solid ASCII
  facet normal -1.000000e+00 0.000000e+00 0.000000e+00
    outer loop
      vertex   -1.300000e+01 1.610000e+02 1.610000e+02
      vertex   -1.300000e+01 1.610000e+02 1.660000e+02
      vertex   -1.300000e+01 1.640000e+02 1.610000e+02
    endloop
  endfacet
  facet normal -1.000000e+00 0.000000e+00 0.000000e+00
    outer loop
      vertex   -1.300000e+01 1.640000e+02 1.610000e+02
      vertex   -1.300000e+01 1.610000e+02 1.660000e+02
      vertex   -1.300000e+01 1.640000e+02 1.690000e+02
    endloop
  endfacet
  facet normal -1.000000e+00 -0.000000e+00 0.000000e+00
    outer loop
      vertex   -1.300000e+01 1.640000e+02 1.690000e+02
      vertex   -1.300000e+01 1.610000e+02 1.660000e+02
      vertex   -1.300000e+01 1.560000e+02 1.690000e+02
    endloop
  endfacet
  facet normal -1.000000e+00 0.000000e+00 0.000000e+00
    outer loop
      vertex   -1.300000e+01 1.560000e+02 1.690000e+02
      vertex   -1.300000e+01 1.610000e+02 1.660000e+02
      vertex   -1.300000e+01 1.560000e+02 1.660000e+02
    endloop
  endfacet
  facet normal -0.000000e+00 -0.000000e+00 -1.000000e+00
    outer loop
      vertex   -1.000000e+01 1.640000e+02 1.610000e+02
      vertex   -1.000000e+01 1.610000e+02 1.610000e+02
      vertex   -1.300000e+01 1.640000e+02 1.610000e+02
    endloop
  endfacet
  facet normal 0.000000e+00 0.000000e+00 -1.000000e+00
    outer loop
      vertex   -1.300000e+01 1.640000e+02 1.610000e+02
      vertex   -1.000000e+01 1.610000e+02 1.610000e+02
      vertex   -1.300000e+01 1.610000e+02 1.610000e+02
    endloop
  endfacet
  facet normal 0.000000e+00 -1.000000e+00 0.000000e+00
    outer loop
      vertex   -1.000000e+01 1.610000e+02 1.610000e+02
      vertex   -1.000000e+01 1.610000e+02 1.660000e+02
      vertex   -1.300000e+01 1.610000e+02 1.610000e+02
    endloop
  endfacet
  facet normal 0.000000e+00 -1.000000e+00 0.000000e+00
    outer loop
      vertex   -1.300000e+01 1.610000e+02 1.610000e+02
      vertex   -1.000000e+01 1.610000e+02 1.660000e+02
      vertex   -1.300000e+01 1.610000e+02 1.660000e+02
    endloop
  endfacet
  facet normal -0.000000e+00 -0.000000e+00 -1.000000e+00
    outer loop
      vertex   -1.000000e+01 1.610000e+02 1.660000e+02
      vertex   -1.000000e+01 1.560000e+02 1.660000e+02
      vertex   -1.300000e+01 1.610000e+02 1.660000e+02
    endloop
  endfacet
  facet normal 0.000000e+00 0.000000e+00 -1.000000e+00
    outer loop
      vertex   -1.300000e+01 1.610000e+02 1.660000e+02
      vertex   -1.000000e+01 1.560000e+02 1.660000e+02
      vertex   -1.300000e+01 1.560000e+02 1.660000e+02
    endloop
  endfacet
  facet normal 0.000000e+00 1.000000e+00 0.000000e+00
    outer loop
      vertex   -1.000000e+01 1.640000e+02 1.690000e+02
      vertex   -1.000000e+01 1.640000e+02 1.610000e+02
      vertex   -1.300000e+01 1.640000e+02 1.690000e+02
    endloop
  endfacet
  facet normal 0.000000e+00 1.000000e+00 0.000000e+00
    outer loop
      vertex   -1.300000e+01 1.640000e+02 1.690000e+02
      vertex   -1.000000e+01 1.640000e+02 1.610000e+02
      vertex   -1.300000e+01 1.640000e+02 1.610000e+02
    endloop
  endfacet
  facet normal 0.000000e+00 -0.000000e+00 1.000000e+00
    outer loop
      vertex   -1.000000e+01 1.560000e+02 1.690000e+02
      vertex   -1.000000e+01 1.640000e+02 1.690000e+02
      vertex   -1.300000e+01 1.560000e+02 1.690000e+02
    endloop
  endfacet
  facet normal 0.000000e+00 0.000000e+00 1.000000e+00
    outer loop
      vertex   -1.300000e+01 1.560000e+02 1.690000e+02
      vertex   -1.000000e+01 1.640000e+02 1.690000e+02
      vertex   -1.300000e+01 1.640000e+02 1.690000e+02
    endloop
  endfacet
  facet normal 0.000000e+00 -1.000000e+00 0.000000e+00
    outer loop
      vertex   -1.000000e+01 1.560000e+02 1.660000e+02
      vertex   -1.000000e+01 1.560000e+02 1.690000e+02
      vertex   -1.300000e+01 1.560000e+02 1.660000e+02
    endloop
  endfacet
  facet normal 0.000000e+00 -1.000000e+00 0.000000e+00
    outer loop
      vertex   -1.300000e+01 1.560000e+02 1.660000e+02
      vertex   -1.000000e+01 1.560000e+02 1.690000e+02
      vertex   -1.300000e+01 1.560000e+02 1.690000e+02
    endloop
  endfacet
  facet normal -1.000000e+00 0.000000e+00 3.552714e-15
    outer loop
      vertex   -1.000000e+01 1.640000e+02 1.610000e+02
      vertex   -1.000000e+01 1.600000e+02 1.600000e+02
      vertex   -1.000000e+01 1.610000e+02 1.610000e+02
    endloop
  endfacet
  facet normal -1.000000e+00 1.421085e-15 2.131628e-15
    outer loop
      vertex   -1.000000e+01 1.610000e+02 1.610000e+02
      vertex   -1.000000e+01 1.600000e+02 1.600000e+02
      vertex   -1.000000e+01 1.600000e+02 1.650000e+02
    endloop
  endfacet
  facet normal -1.000000e+00 5.048710e-29 1.776357e-15
    outer loop
      vertex   -1.000000e+01 1.610000e+02 1.610000e+02
      vertex   -1.000000e+01 1.600000e+02 1.650000e+02
      vertex   -1.000000e+01 1.610000e+02 1.660000e+02
    endloop
  endfacet
  facet normal -1.000000e+00 0.000000e+00 1.776357e-15
    outer loop
      vertex   -1.000000e+01 1.610000e+02 1.660000e+02
      vertex   -1.000000e+01 1.600000e+02 1.650000e+02
      vertex   -1.000000e+01 1.560000e+02 1.660000e+02
    endloop
  endfacet
  facet normal -1.000000e+00 0.000000e+00 1.776357e-15
    outer loop
      vertex   -1.000000e+01 1.560000e+02 1.660000e+02
      vertex   -1.000000e+01 1.600000e+02 1.650000e+02
      vertex   -1.000000e+01 1.550000e+02 1.650000e+02
    endloop
  endfacet
  facet normal -1.000000e+00 3.552714e-16 1.421085e-15
    outer loop
      vertex   -1.000000e+01 1.560000e+02 1.660000e+02
      vertex   -1.000000e+01 1.550000e+02 1.650000e+02
      vertex   -1.000000e+01 1.550000e+02 1.700000e+02
    endloop
  endfacet
  facet normal -1.000000e+00 2.019484e-29 3.552714e-15
    outer loop
      vertex   -1.000000e+01 1.600000e+02 1.600000e+02
      vertex   -1.000000e+01 1.640000e+02 1.610000e+02
      vertex   -1.000000e+01 1.650000e+02 1.600000e+02
    endloop
  endfacet
  facet normal -1.000000e+00 -1.776357e-15 1.776357e-15
    outer loop
      vertex   -1.000000e+01 1.650000e+02 1.600000e+02
      vertex   -1.000000e+01 1.640000e+02 1.610000e+02
      vertex   -1.000000e+01 1.640000e+02 1.690000e+02
    endloop
  endfacet
  facet normal -1.000000e+00 -1.776357e-15 1.776357e-15
    outer loop
      vertex   -1.000000e+01 1.650000e+02 1.600000e+02
      vertex   -1.000000e+01 1.640000e+02 1.690000e+02
      vertex   -1.000000e+01 1.650000e+02 1.700000e+02
    endloop
  endfacet
  facet normal -1.000000e+00 -0.000000e+00 0.000000e+00
    outer loop
      vertex   -1.000000e+01 1.650000e+02 1.700000e+02
      vertex   -1.000000e+01 1.640000e+02 1.690000e+02
      vertex   -1.000000e+01 1.550000e+02 1.700000e+02
    endloop
  endfacet
  facet normal -1.000000e+00 0.000000e+00 0.000000e+00
    outer loop
      vertex   -1.000000e+01 1.550000e+02 1.700000e+02
      vertex   -1.000000e+01 1.640000e+02 1.690000e+02
      vertex   -1.000000e+01 1.560000e+02 1.690000e+02
    endloop
  endfacet
  facet normal -1.000000e+00 1.776357e-15 1.776357e-15
    outer loop
      vertex   -1.000000e+01 1.550000e+02 1.700000e+02
      vertex   -1.000000e+01 1.560000e+02 1.690000e+02
      vertex   -1.000000e+01 1.560000e+02 1.660000e+02
    endloop
  endfacet
  facet normal 0.000000e+00 0.000000e+00 -1.000000e+00
    outer loop
      vertex   -1.000000e+01 1.550000e+02 1.650000e+02
      vertex   -1.000000e+01 1.600000e+02 1.650000e+02
      vertex   -5.000000e+00 1.550000e+02 1.650000e+02
    endloop
  endfacet
  facet normal 0.000000e+00 0.000000e+00 -1.000000e+00
    outer loop
      vertex   -5.000000e+00 1.550000e+02 1.650000e+02
      vertex   -1.000000e+01 1.600000e+02 1.650000e+02
      vertex   -5.000000e+00 1.600000e+02 1.650000e+02
    endloop
  endfacet
  facet normal 0.000000e+00 -1.000000e+00 -0.000000e+00
    outer loop
      vertex   -1.000000e+01 1.600000e+02 1.650000e+02
      vertex   -1.000000e+01 1.600000e+02 1.600000e+02
      vertex   -5.000000e+00 1.600000e+02 1.650000e+02
    endloop
  endfacet
  facet normal 0.000000e+00 -1.000000e+00 0.000000e+00
    outer loop
      vertex   -5.000000e+00 1.600000e+02 1.650000e+02
      vertex   -1.000000e+01 1.600000e+02 1.600000e+02
      vertex   -5.000000e+00 1.600000e+02 1.600000e+02
    endloop
  endfacet
  facet normal 0.000000e+00 -5.684342e-15 -1.000000e+00
    outer loop
      vertex   -1.000000e+01 1.600000e+02 1.600000e+02
      vertex   -1.000000e+01 1.650000e+02 1.600000e+02
      vertex   -5.000000e+00 1.600000e+02 1.600000e+02
    endloop
  endfacet
  facet normal 0.000000e+00 -5.684342e-15 -1.000000e+00
    outer loop
      vertex   -5.000000e+00 1.600000e+02 1.600000e+02
      vertex   -1.000000e+01 1.650000e+02 1.600000e+02
      vertex   -5.000000e+00 1.650000e+02 1.600000e+02
    endloop
  endfacet
  facet normal 1.000000e+00 -1.009742e-29 -1.776357e-15
    outer loop
      vertex   -5.000000e+00 1.600000e+02 1.600000e+02
      vertex   -5.000000e+00 1.650000e+02 1.600000e+02
      vertex   -5.000000e+00 1.600000e+02 1.650000e+02
    endloop
  endfacet
  facet normal 1.000000e+00 -5.048710e-30 -1.776357e-15
    outer loop
      vertex   -5.000000e+00 1.600000e+02 1.650000e+02
      vertex   -5.000000e+00 1.650000e+02 1.600000e+02
      vertex   -5.000000e+00 1.650000e+02 1.700000e+02
    endloop
  endfacet
  facet normal 1.000000e+00 0.000000e+00 -1.776357e-15
    outer loop
      vertex   -5.000000e+00 1.600000e+02 1.650000e+02
      vertex   -5.000000e+00 1.650000e+02 1.700000e+02
      vertex   -5.000000e+00 1.550000e+02 1.700000e+02
    endloop
  endfacet
  facet normal 1.000000e+00 0.000000e+00 -1.776357e-15
    outer loop
      vertex   -5.000000e+00 1.550000e+02 1.700000e+02
      vertex   -5.000000e+00 1.550000e+02 1.650000e+02
      vertex   -5.000000e+00 1.600000e+02 1.650000e+02
    endloop
  endfacet
  facet normal 0.000000e+00 1.000000e+00 0.000000e+00
    outer loop
      vertex   -1.000000e+01 1.650000e+02 1.600000e+02
      vertex   -1.000000e+01 1.650000e+02 1.700000e+02
      vertex   -5.000000e+00 1.650000e+02 1.600000e+02
    endloop
  endfacet
  facet normal 0.000000e+00 1.000000e+00 -0.000000e+00
    outer loop
      vertex   -5.000000e+00 1.650000e+02 1.600000e+02
      vertex   -1.000000e+01 1.650000e+02 1.700000e+02
      vertex   -5.000000e+00 1.650000e+02 1.700000e+02
    endloop
  endfacet
  facet normal -0.000000e+00 0.000000e+00 1.000000e+00
    outer loop
      vertex   -1.000000e+01 1.650000e+02 1.700000e+02
      vertex   -1.000000e+01 1.550000e+02 1.700000e+02
      vertex   -5.000000e+00 1.650000e+02 1.700000e+02
    endloop
  endfacet
  facet normal 0.000000e+00 0.000000e+00 1.000000e+00
    outer loop
      vertex   -5.000000e+00 1.650000e+02 1.700000e+02
      vertex   -1.000000e+01 1.550000e+02 1.700000e+02
      vertex   -5.000000e+00 1.550000e+02 1.700000e+02
    endloop
  endfacet
  facet normal 0.000000e+00 -1.000000e+00 -0.000000e+00
    outer loop
      vertex   -1.000000e+01 1.550000e+02 1.700000e+02
      vertex   -1.000000e+01 1.550000e+02 1.650000e+02
      vertex   -5.000000e+00 1.550000e+02 1.700000e+02
    endloop
  endfacet
  facet normal 0.000000e+00 -1.000000e+00 0.000000e+00
    outer loop
      vertex   -5.000000e+00 1.550000e+02 1.700000e+02
      vertex   -1.000000e+01 1.550000e+02 1.650000e+02
      vertex   -5.000000e+00 1.550000e+02 1.650000e+02
    endloop
  endfacet
endsolid
