solid ASCII
  facet normal 0.000000e+00 1.000000e+00 0.000000e+00
    outer loop
      vertex   -1.000000e+01 1.860000e+02 2.900000e+01
      vertex   -1.000000e+01 1.860000e+02 2.400000e+01
      vertex   -1.300000e+01 1.860000e+02 2.900000e+01
    endloop
  endfacet
  facet normal 0.000000e+00 1.000000e+00 0.000000e+00
    outer loop
      vertex   -1.300000e+01 1.860000e+02 2.900000e+01
      vertex   -1.000000e+01 1.860000e+02 2.400000e+01
      vertex   -1.300000e+01 1.860000e+02 2.400000e+01
    endloop
  endfacet
  facet normal -2.368476e-15 -0.000000e+00 -1.000000e+00
    outer loop
      vertex   -1.000000e+01 1.890000e+02 2.900000e+01
      vertex   -1.000000e+01 1.860000e+02 2.900000e+01
      vertex   -1.300000e+01 1.890000e+02 2.900000e+01
    endloop
  endfacet
  facet normal -2.368476e-15 -0.000000e+00 -1.000000e+00
    outer loop
      vertex   -1.300000e+01 1.890000e+02 2.900000e+01
      vertex   -1.000000e+01 1.860000e+02 2.900000e+01
      vertex   -1.300000e+01 1.860000e+02 2.900000e+01
    endloop
  endfacet
  facet normal 0.000000e+00 -1.000000e+00 0.000000e+00
    outer loop
      vertex   -1.000000e+01 1.890000e+02 2.100000e+01
      vertex   -1.000000e+01 1.890000e+02 2.900000e+01
      vertex   -1.300000e+01 1.890000e+02 2.100000e+01
    endloop
  endfacet
  facet normal 0.000000e+00 -1.000000e+00 0.000000e+00
    outer loop
      vertex   -1.300000e+01 1.890000e+02 2.100000e+01
      vertex   -1.000000e+01 1.890000e+02 2.900000e+01
      vertex   -1.300000e+01 1.890000e+02 2.900000e+01
    endloop
  endfacet
  facet normal -1.184238e-15 1.292159e-14 -1.000000e+00
    outer loop
      vertex   -1.000000e+01 1.860000e+02 2.400000e+01
      vertex   -1.000000e+01 1.695034e+02 2.400000e+01
      vertex   -1.300000e+01 1.860000e+02 2.400000e+01
    endloop
  endfacet
  facet normal -1.184238e-15 1.292159e-14 -1.000000e+00
    outer loop
      vertex   -1.300000e+01 1.860000e+02 2.400000e+01
      vertex   -1.000000e+01 1.695034e+02 2.400000e+01
      vertex   -1.300000e+01 1.695034e+02 2.400000e+01
    endloop
  endfacet
  facet normal 2.243871e-29 1.000000e+00 1.894781e-14
    outer loop
      vertex   -1.000000e+01 1.695034e+02 2.400000e+01
      vertex   -1.000000e+01 1.695034e+02 2.100000e+01
      vertex   -1.300000e+01 1.695034e+02 2.400000e+01
    endloop
  endfacet
  facet normal 0.000000e+00 1.000000e+00 1.894781e-14
    outer loop
      vertex   -1.300000e+01 1.695034e+02 2.400000e+01
      vertex   -1.000000e+01 1.695034e+02 2.100000e+01
      vertex   -1.300000e+01 1.695034e+02 2.100000e+01
    endloop
  endfacet
  facet normal 0.000000e+00 -1.239108e-14 1.000000e+00
    outer loop
      vertex   -1.000000e+01 1.695034e+02 2.100000e+01
      vertex   -1.000000e+01 1.890000e+02 2.100000e+01
      vertex   -1.300000e+01 1.695034e+02 2.100000e+01
    endloop
  endfacet
  facet normal 0.000000e+00 -1.239108e-14 1.000000e+00
    outer loop
      vertex   -1.300000e+01 1.695034e+02 2.100000e+01
      vertex   -1.000000e+01 1.890000e+02 2.100000e+01
      vertex   -1.300000e+01 1.890000e+02 2.100000e+01
    endloop
  endfacet
  facet normal -1.184238e-15 -0.000000e+00 -1.000000e+00
    outer loop
      vertex   -1.000000e+01 1.900000e+01 2.400000e+01
      vertex   -1.000000e+01 1.400000e+01 2.400000e+01
      vertex   -1.300000e+01 1.900000e+01 2.400000e+01
    endloop
  endfacet
  facet normal -1.184238e-15 -0.000000e+00 -1.000000e+00
    outer loop
      vertex   -1.300000e+01 1.900000e+01 2.400000e+01
      vertex   -1.000000e+01 1.400000e+01 2.400000e+01
      vertex   -1.300000e+01 1.400000e+01 2.400000e+01
    endloop
  endfacet
  facet normal 1.184238e-15 -1.000000e+00 -2.804839e-30
    outer loop
      vertex   -1.000000e+01 1.900000e+01 2.100000e+01
      vertex   -1.000000e+01 1.900000e+01 2.400000e+01
      vertex   -1.300000e+01 1.900000e+01 2.100000e+01
    endloop
  endfacet
  facet normal 1.184238e-15 -1.000000e+00 -7.012097e-31
    outer loop
      vertex   -1.300000e+01 1.900000e+01 2.100000e+01
      vertex   -1.000000e+01 1.900000e+01 2.400000e+01
      vertex   -1.300000e+01 1.900000e+01 2.400000e+01
    endloop
  endfacet
  facet normal 2.368476e-15 -4.440892e-16 1.000000e+00
    outer loop
      vertex   -1.000000e+01 1.100000e+01 2.100000e+01
      vertex   -1.000000e+01 1.900000e+01 2.100000e+01
      vertex   -1.300000e+01 1.100000e+01 2.100000e+01
    endloop
  endfacet
  facet normal 1.184238e-15 -0.000000e+00 1.000000e+00
    outer loop
      vertex   -1.300000e+01 1.100000e+01 2.100000e+01
      vertex   -1.000000e+01 1.900000e+01 2.100000e+01
      vertex   -1.300000e+01 1.900000e+01 2.100000e+01
    endloop
  endfacet
  facet normal 1.184238e-15 -1.000000e+00 -1.682903e-30
    outer loop
      vertex   -1.000000e+01 1.400000e+01 2.400000e+01
      vertex   -1.000000e+01 1.400000e+01 2.900000e+01
      vertex   -1.300000e+01 1.400000e+01 2.400000e+01
    endloop
  endfacet
  facet normal 1.184238e-15 -1.000000e+00 -2.103629e-30
    outer loop
      vertex   -1.300000e+01 1.400000e+01 2.400000e+01
      vertex   -1.000000e+01 1.400000e+01 2.900000e+01
      vertex   -1.300000e+01 1.400000e+01 2.900000e+01
    endloop
  endfacet
  facet normal 0.000000e+00 -0.000000e+00 -1.000000e+00
    outer loop
      vertex   -1.000000e+01 1.400000e+01 2.900000e+01
      vertex   -1.000000e+01 1.100000e+01 2.900000e+01
      vertex   -1.300000e+01 1.400000e+01 2.900000e+01
    endloop
  endfacet
  facet normal 0.000000e+00 0.000000e+00 -1.000000e+00
    outer loop
      vertex   -1.300000e+01 1.400000e+01 2.900000e+01
      vertex   -1.000000e+01 1.100000e+01 2.900000e+01
      vertex   -1.300000e+01 1.100000e+01 2.900000e+01
    endloop
  endfacet
  facet normal 5.921189e-16 1.000000e+00 -1.051815e-30
    outer loop
      vertex   -1.000000e+01 1.100000e+01 2.900000e+01
      vertex   -1.000000e+01 1.100000e+01 2.100000e+01
      vertex   -1.300000e+01 1.100000e+01 2.900000e+01
    endloop
  endfacet
  facet normal 5.921189e-16 1.000000e+00 -7.888609e-31
    outer loop
      vertex   -1.300000e+01 1.100000e+01 2.900000e+01
      vertex   -1.000000e+01 1.100000e+01 2.100000e+01
      vertex   -1.300000e+01 1.100000e+01 2.100000e+01
    endloop
  endfacet
  facet normal 1.184238e-15 -1.000000e+00 -1.402419e-30
    outer loop
      vertex   -1.000000e+01 1.900000e+01 7.750000e+01
      vertex   -1.000000e+01 1.900000e+01 8.050000e+01
      vertex   -1.300000e+01 1.900000e+01 7.750000e+01
    endloop
  endfacet
  facet normal 1.184238e-15 -1.000000e+00 0.000000e+00
    outer loop
      vertex   -1.300000e+01 1.900000e+01 7.750000e+01
      vertex   -1.000000e+01 1.900000e+01 8.050000e+01
      vertex   -1.300000e+01 1.900000e+01 8.050000e+01
    endloop
  endfacet
  facet normal 0.000000e+00 -0.000000e+00 1.000000e+00
    outer loop
      vertex   -1.000000e+01 1.400000e+01 7.750000e+01
      vertex   -1.000000e+01 1.900000e+01 7.750000e+01
      vertex   -1.300000e+01 1.400000e+01 7.750000e+01
    endloop
  endfacet
  facet normal 0.000000e+00 0.000000e+00 1.000000e+00
    outer loop
      vertex   -1.300000e+01 1.400000e+01 7.750000e+01
      vertex   -1.000000e+01 1.900000e+01 7.750000e+01
      vertex   -1.300000e+01 1.900000e+01 7.750000e+01
    endloop
  endfacet
  facet normal 1.184238e-15 -1.000000e+00 -2.103629e-30
    outer loop
      vertex   -1.000000e+01 1.400000e+01 7.250000e+01
      vertex   -1.000000e+01 1.400000e+01 7.750000e+01
      vertex   -1.300000e+01 1.400000e+01 7.250000e+01
    endloop
  endfacet
  facet normal 1.184238e-15 -1.000000e+00 0.000000e+00
    outer loop
      vertex   -1.300000e+01 1.400000e+01 7.250000e+01
      vertex   -1.000000e+01 1.400000e+01 7.750000e+01
      vertex   -1.300000e+01 1.400000e+01 7.750000e+01
    endloop
  endfacet
  facet normal 0.000000e+00 -0.000000e+00 -1.000000e+00
    outer loop
      vertex   -1.000000e+01 1.900000e+01 8.050000e+01
      vertex   -1.000000e+01 1.100000e+01 8.050000e+01
      vertex   -1.300000e+01 1.900000e+01 8.050000e+01
    endloop
  endfacet
  facet normal 0.000000e+00 0.000000e+00 -1.000000e+00
    outer loop
      vertex   -1.300000e+01 1.900000e+01 8.050000e+01
      vertex   -1.000000e+01 1.100000e+01 8.050000e+01
      vertex   -1.300000e+01 1.100000e+01 8.050000e+01
    endloop
  endfacet
  facet normal 5.921189e-16 1.000000e+00 -9.203377e-31
    outer loop
      vertex   -1.000000e+01 1.100000e+01 8.050000e+01
      vertex   -1.000000e+01 1.100000e+01 7.250000e+01
      vertex   -1.300000e+01 1.100000e+01 8.050000e+01
    endloop
  endfacet
  facet normal 5.921189e-16 1.000000e+00 0.000000e+00
    outer loop
      vertex   -1.300000e+01 1.100000e+01 8.050000e+01
      vertex   -1.000000e+01 1.100000e+01 7.250000e+01
      vertex   -1.300000e+01 1.100000e+01 7.250000e+01
    endloop
  endfacet
  facet normal 0.000000e+00 -0.000000e+00 1.000000e+00
    outer loop
      vertex   -1.000000e+01 1.100000e+01 7.250000e+01
      vertex   -1.000000e+01 1.400000e+01 7.250000e+01
      vertex   -1.300000e+01 1.100000e+01 7.250000e+01
    endloop
  endfacet
  facet normal 0.000000e+00 0.000000e+00 1.000000e+00
    outer loop
      vertex   -1.300000e+01 1.100000e+01 7.250000e+01
      vertex   -1.000000e+01 1.400000e+01 7.250000e+01
      vertex   -1.300000e+01 1.400000e+01 7.250000e+01
    endloop
  endfacet
  facet normal 0.000000e+00 -1.000000e+00 0.000000e+00
    outer loop
      vertex   -1.000000e+01 1.640000e+02 7.250000e+01
      vertex   -1.000000e+01 1.640000e+02 8.050000e+01
      vertex   -1.300000e+01 1.640000e+02 7.250000e+01
    endloop
  endfacet
  facet normal 0.000000e+00 -1.000000e+00 0.000000e+00
    outer loop
      vertex   -1.300000e+01 1.640000e+02 7.250000e+01
      vertex   -1.000000e+01 1.640000e+02 8.050000e+01
      vertex   -1.300000e+01 1.640000e+02 8.050000e+01
    endloop
  endfacet
  facet normal 0.000000e+00 -0.000000e+00 1.000000e+00
    outer loop
      vertex   -1.000000e+01 1.610000e+02 7.250000e+01
      vertex   -1.000000e+01 1.640000e+02 7.250000e+01
      vertex   -1.300000e+01 1.610000e+02 7.250000e+01
    endloop
  endfacet
  facet normal 0.000000e+00 0.000000e+00 1.000000e+00
    outer loop
      vertex   -1.300000e+01 1.610000e+02 7.250000e+01
      vertex   -1.000000e+01 1.640000e+02 7.250000e+01
      vertex   -1.300000e+01 1.640000e+02 7.250000e+01
    endloop
  endfacet
  facet normal 0.000000e+00 1.000000e+00 0.000000e+00
    outer loop
      vertex   -1.000000e+01 1.610000e+02 7.750000e+01
      vertex   -1.000000e+01 1.610000e+02 7.250000e+01
      vertex   -1.300000e+01 1.610000e+02 7.750000e+01
    endloop
  endfacet
  facet normal 0.000000e+00 1.000000e+00 0.000000e+00
    outer loop
      vertex   -1.300000e+01 1.610000e+02 7.750000e+01
      vertex   -1.000000e+01 1.610000e+02 7.250000e+01
      vertex   -1.300000e+01 1.610000e+02 7.250000e+01
    endloop
  endfacet
  facet normal -1.421085e-14 -0.000000e+00 -1.000000e+00
    outer loop
      vertex   -1.000000e+01 1.640000e+02 8.050000e+01
      vertex   -1.000000e+01 1.560000e+02 8.050000e+01
      vertex   -1.300000e+01 1.640000e+02 8.050000e+01
    endloop
  endfacet
  facet normal -1.421085e-14 6.310887e-30 -1.000000e+00
    outer loop
      vertex   -1.300000e+01 1.640000e+02 8.050000e+01
      vertex   -1.000000e+01 1.560000e+02 8.050000e+01
      vertex   -1.300000e+01 1.560000e+02 8.050000e+01
    endloop
  endfacet
  facet normal 0.000000e+00 1.000000e+00 0.000000e+00
    outer loop
      vertex   -1.000000e+01 1.560000e+02 8.050000e+01
      vertex   -1.000000e+01 1.560000e+02 7.750000e+01
      vertex   -1.300000e+01 1.560000e+02 8.050000e+01
    endloop
  endfacet
  facet normal 0.000000e+00 1.000000e+00 0.000000e+00
    outer loop
      vertex   -1.300000e+01 1.560000e+02 8.050000e+01
      vertex   -1.000000e+01 1.560000e+02 7.750000e+01
      vertex   -1.300000e+01 1.560000e+02 7.750000e+01
    endloop
  endfacet
  facet normal 0.000000e+00 -0.000000e+00 1.000000e+00
    outer loop
      vertex   -1.000000e+01 1.560000e+02 7.750000e+01
      vertex   -1.000000e+01 1.610000e+02 7.750000e+01
      vertex   -1.300000e+01 1.560000e+02 7.750000e+01
    endloop
  endfacet
  facet normal 0.000000e+00 0.000000e+00 1.000000e+00
    outer loop
      vertex   -1.300000e+01 1.560000e+02 7.750000e+01
      vertex   -1.000000e+01 1.610000e+02 7.750000e+01
      vertex   -1.300000e+01 1.610000e+02 7.750000e+01
    endloop
  endfacet
  facet normal 0.000000e+00 4.348202e-14 -1.000000e+00
    outer loop
      vertex   -1.000000e+01 1.860000e+02 1.090000e+02
      vertex   -1.000000e+01 1.696589e+02 1.090000e+02
      vertex   -1.300000e+01 1.860000e+02 1.090000e+02
    endloop
  endfacet
  facet normal 0.000000e+00 4.348202e-14 -1.000000e+00
    outer loop
      vertex   -1.300000e+01 1.860000e+02 1.090000e+02
      vertex   -1.000000e+01 1.696589e+02 1.090000e+02
      vertex   -1.300000e+01 1.696589e+02 1.090000e+02
    endloop
  endfacet
  facet normal 0.000000e+00 1.000000e+00 0.000000e+00
    outer loop
      vertex   -1.000000e+01 1.860000e+02 1.140000e+02
      vertex   -1.000000e+01 1.860000e+02 1.090000e+02
      vertex   -1.300000e+01 1.860000e+02 1.140000e+02
    endloop
  endfacet
  facet normal 0.000000e+00 1.000000e+00 0.000000e+00
    outer loop
      vertex   -1.300000e+01 1.860000e+02 1.140000e+02
      vertex   -1.000000e+01 1.860000e+02 1.090000e+02
      vertex   -1.300000e+01 1.860000e+02 1.090000e+02
    endloop
  endfacet
  facet normal -0.000000e+00 -0.000000e+00 -1.000000e+00
    outer loop
      vertex   -1.000000e+01 1.890000e+02 1.140000e+02
      vertex   -1.000000e+01 1.860000e+02 1.140000e+02
      vertex   -1.300000e+01 1.890000e+02 1.140000e+02
    endloop
  endfacet
  facet normal 0.000000e+00 0.000000e+00 -1.000000e+00
    outer loop
      vertex   -1.300000e+01 1.890000e+02 1.140000e+02
      vertex   -1.000000e+01 1.860000e+02 1.140000e+02
      vertex   -1.300000e+01 1.860000e+02 1.140000e+02
    endloop
  endfacet
  facet normal 0.000000e+00 1.000000e+00 3.789561e-14
    outer loop
      vertex   -1.000000e+01 1.696589e+02 1.090000e+02
      vertex   -1.000000e+01 1.696589e+02 1.060000e+02
      vertex   -1.300000e+01 1.696589e+02 1.090000e+02
    endloop
  endfacet
  facet normal -1.795097e-28 1.000000e+00 3.789561e-14
    outer loop
      vertex   -1.300000e+01 1.696589e+02 1.090000e+02
      vertex   -1.000000e+01 1.696589e+02 1.060000e+02
      vertex   -1.300000e+01 1.696589e+02 1.060000e+02
    endloop
  endfacet
  facet normal -4.736952e-15 -4.188076e-14 1.000000e+00
    outer loop
      vertex   -1.000000e+01 1.696589e+02 1.060000e+02
      vertex   -1.000000e+01 1.890000e+02 1.060000e+02
      vertex   -1.300000e+01 1.696589e+02 1.060000e+02
    endloop
  endfacet
  facet normal -4.736952e-15 -4.188076e-14 1.000000e+00
    outer loop
      vertex   -1.300000e+01 1.696589e+02 1.060000e+02
      vertex   -1.000000e+01 1.890000e+02 1.060000e+02
      vertex   -1.300000e+01 1.890000e+02 1.060000e+02
    endloop
  endfacet
  facet normal -0.000000e+00 -1.000000e+00 0.000000e+00
    outer loop
      vertex   -1.000000e+01 1.890000e+02 1.060000e+02
      vertex   -1.000000e+01 1.890000e+02 1.140000e+02
      vertex   -1.300000e+01 1.890000e+02 1.060000e+02
    endloop
  endfacet
  facet normal 0.000000e+00 -1.000000e+00 0.000000e+00
    outer loop
      vertex   -1.300000e+01 1.890000e+02 1.060000e+02
      vertex   -1.000000e+01 1.890000e+02 1.140000e+02
      vertex   -1.300000e+01 1.890000e+02 1.140000e+02
    endloop
  endfacet
  facet normal 0.000000e+00 -0.000000e+00 -1.000000e+00
    outer loop
      vertex   -1.000000e+01 1.900000e+01 1.090000e+02
      vertex   -1.000000e+01 1.400000e+01 1.090000e+02
      vertex   -1.300000e+01 1.900000e+01 1.090000e+02
    endloop
  endfacet
  facet normal 0.000000e+00 0.000000e+00 -1.000000e+00
    outer loop
      vertex   -1.300000e+01 1.900000e+01 1.090000e+02
      vertex   -1.000000e+01 1.400000e+01 1.090000e+02
      vertex   -1.300000e+01 1.400000e+01 1.090000e+02
    endloop
  endfacet
  facet normal 1.184238e-15 -1.000000e+00 -2.103629e-30
    outer loop
      vertex   -1.000000e+01 1.900000e+01 1.060000e+02
      vertex   -1.000000e+01 1.900000e+01 1.090000e+02
      vertex   -1.300000e+01 1.900000e+01 1.060000e+02
    endloop
  endfacet
  facet normal 1.184238e-15 -1.000000e+00 0.000000e+00
    outer loop
      vertex   -1.300000e+01 1.900000e+01 1.060000e+02
      vertex   -1.000000e+01 1.900000e+01 1.090000e+02
      vertex   -1.300000e+01 1.900000e+01 1.090000e+02
    endloop
  endfacet
  facet normal 0.000000e+00 -0.000000e+00 1.000000e+00
    outer loop
      vertex   -1.000000e+01 1.100000e+01 1.060000e+02
      vertex   -1.000000e+01 1.900000e+01 1.060000e+02
      vertex   -1.300000e+01 1.100000e+01 1.060000e+02
    endloop
  endfacet
  facet normal 0.000000e+00 0.000000e+00 1.000000e+00
    outer loop
      vertex   -1.300000e+01 1.100000e+01 1.060000e+02
      vertex   -1.000000e+01 1.900000e+01 1.060000e+02
      vertex   -1.300000e+01 1.900000e+01 1.060000e+02
    endloop
  endfacet
  facet normal 1.184238e-15 -1.000000e+00 -2.103629e-30
    outer loop
      vertex   -1.000000e+01 1.400000e+01 1.090000e+02
      vertex   -1.000000e+01 1.400000e+01 1.140000e+02
      vertex   -1.300000e+01 1.400000e+01 1.090000e+02
    endloop
  endfacet
  facet normal 1.184238e-15 -1.000000e+00 0.000000e+00
    outer loop
      vertex   -1.300000e+01 1.400000e+01 1.090000e+02
      vertex   -1.000000e+01 1.400000e+01 1.140000e+02
      vertex   -1.300000e+01 1.400000e+01 1.140000e+02
    endloop
  endfacet
  facet normal 0.000000e+00 -0.000000e+00 -1.000000e+00
    outer loop
      vertex   -1.000000e+01 1.400000e+01 1.140000e+02
      vertex   -1.000000e+01 1.100000e+01 1.140000e+02
      vertex   -1.300000e+01 1.400000e+01 1.140000e+02
    endloop
  endfacet
  facet normal 0.000000e+00 0.000000e+00 -1.000000e+00
    outer loop
      vertex   -1.300000e+01 1.400000e+01 1.140000e+02
      vertex   -1.000000e+01 1.100000e+01 1.140000e+02
      vertex   -1.300000e+01 1.100000e+01 1.140000e+02
    endloop
  endfacet
  facet normal 5.921189e-16 1.000000e+00 -1.051815e-30
    outer loop
      vertex   -1.000000e+01 1.100000e+01 1.140000e+02
      vertex   -1.000000e+01 1.100000e+01 1.060000e+02
      vertex   -1.300000e+01 1.100000e+01 1.140000e+02
    endloop
  endfacet
  facet normal 5.921189e-16 1.000000e+00 0.000000e+00
    outer loop
      vertex   -1.300000e+01 1.100000e+01 1.140000e+02
      vertex   -1.000000e+01 1.100000e+01 1.060000e+02
      vertex   -1.300000e+01 1.100000e+01 1.060000e+02
    endloop
  endfacet
  facet normal 1.184238e-15 -1.000000e+00 -2.103629e-30
    outer loop
      vertex   -1.000000e+01 1.900000e+01 1.660000e+02
      vertex   -1.000000e+01 1.900000e+01 1.690000e+02
      vertex   -1.300000e+01 1.900000e+01 1.660000e+02
    endloop
  endfacet
  facet normal 1.184238e-15 -1.000000e+00 0.000000e+00
    outer loop
      vertex   -1.300000e+01 1.900000e+01 1.660000e+02
      vertex   -1.000000e+01 1.900000e+01 1.690000e+02
      vertex   -1.300000e+01 1.900000e+01 1.690000e+02
    endloop
  endfacet
  facet normal 0.000000e+00 -0.000000e+00 1.000000e+00
    outer loop
      vertex   -1.000000e+01 1.400000e+01 1.660000e+02
      vertex   -1.000000e+01 1.900000e+01 1.660000e+02
      vertex   -1.300000e+01 1.400000e+01 1.660000e+02
    endloop
  endfacet
  facet normal 0.000000e+00 0.000000e+00 1.000000e+00
    outer loop
      vertex   -1.300000e+01 1.400000e+01 1.660000e+02
      vertex   -1.000000e+01 1.900000e+01 1.660000e+02
      vertex   -1.300000e+01 1.900000e+01 1.660000e+02
    endloop
  endfacet
  facet normal 1.184238e-15 -1.000000e+00 -2.103629e-30
    outer loop
      vertex   -1.000000e+01 1.400000e+01 1.610000e+02
      vertex   -1.000000e+01 1.400000e+01 1.660000e+02
      vertex   -1.300000e+01 1.400000e+01 1.610000e+02
    endloop
  endfacet
  facet normal 1.184238e-15 -1.000000e+00 0.000000e+00
    outer loop
      vertex   -1.300000e+01 1.400000e+01 1.610000e+02
      vertex   -1.000000e+01 1.400000e+01 1.660000e+02
      vertex   -1.300000e+01 1.400000e+01 1.660000e+02
    endloop
  endfacet
  facet normal 0.000000e+00 -0.000000e+00 -1.000000e+00
    outer loop
      vertex   -1.000000e+01 1.900000e+01 1.690000e+02
      vertex   -1.000000e+01 1.100000e+01 1.690000e+02
      vertex   -1.300000e+01 1.900000e+01 1.690000e+02
    endloop
  endfacet
  facet normal 0.000000e+00 0.000000e+00 -1.000000e+00
    outer loop
      vertex   -1.300000e+01 1.900000e+01 1.690000e+02
      vertex   -1.000000e+01 1.100000e+01 1.690000e+02
      vertex   -1.300000e+01 1.100000e+01 1.690000e+02
    endloop
  endfacet
  facet normal 5.921189e-16 1.000000e+00 -1.051815e-30
    outer loop
      vertex   -1.000000e+01 1.100000e+01 1.690000e+02
      vertex   -1.000000e+01 1.100000e+01 1.610000e+02
      vertex   -1.300000e+01 1.100000e+01 1.690000e+02
    endloop
  endfacet
  facet normal 5.921189e-16 1.000000e+00 0.000000e+00
    outer loop
      vertex   -1.300000e+01 1.100000e+01 1.690000e+02
      vertex   -1.000000e+01 1.100000e+01 1.610000e+02
      vertex   -1.300000e+01 1.100000e+01 1.610000e+02
    endloop
  endfacet
  facet normal 0.000000e+00 -0.000000e+00 1.000000e+00
    outer loop
      vertex   -1.000000e+01 1.100000e+01 1.610000e+02
      vertex   -1.000000e+01 1.400000e+01 1.610000e+02
      vertex   -1.300000e+01 1.100000e+01 1.610000e+02
    endloop
  endfacet
  facet normal 0.000000e+00 0.000000e+00 1.000000e+00
    outer loop
      vertex   -1.300000e+01 1.100000e+01 1.610000e+02
      vertex   -1.000000e+01 1.400000e+01 1.610000e+02
      vertex   -1.300000e+01 1.400000e+01 1.610000e+02
    endloop
  endfacet
  facet normal 0.000000e+00 -0.000000e+00 1.000000e+00
    outer loop
      vertex   -1.000000e+01 1.610000e+02 1.610000e+02
      vertex   -1.000000e+01 1.640000e+02 1.610000e+02
      vertex   -1.300000e+01 1.610000e+02 1.610000e+02
    endloop
  endfacet
  facet normal 0.000000e+00 0.000000e+00 1.000000e+00
    outer loop
      vertex   -1.300000e+01 1.610000e+02 1.610000e+02
      vertex   -1.000000e+01 1.640000e+02 1.610000e+02
      vertex   -1.300000e+01 1.640000e+02 1.610000e+02
    endloop
  endfacet
  facet normal 0.000000e+00 1.000000e+00 0.000000e+00
    outer loop
      vertex   -1.000000e+01 1.610000e+02 1.660000e+02
      vertex   -1.000000e+01 1.610000e+02 1.610000e+02
      vertex   -1.300000e+01 1.610000e+02 1.660000e+02
    endloop
  endfacet
  facet normal 0.000000e+00 1.000000e+00 0.000000e+00
    outer loop
      vertex   -1.300000e+01 1.610000e+02 1.660000e+02
      vertex   -1.000000e+01 1.610000e+02 1.610000e+02
      vertex   -1.300000e+01 1.610000e+02 1.610000e+02
    endloop
  endfacet
  facet normal 0.000000e+00 -0.000000e+00 1.000000e+00
    outer loop
      vertex   -1.000000e+01 1.560000e+02 1.660000e+02
      vertex   -1.000000e+01 1.610000e+02 1.660000e+02
      vertex   -1.300000e+01 1.560000e+02 1.660000e+02
    endloop
  endfacet
  facet normal 0.000000e+00 0.000000e+00 1.000000e+00
    outer loop
      vertex   -1.300000e+01 1.560000e+02 1.660000e+02
      vertex   -1.000000e+01 1.610000e+02 1.660000e+02
      vertex   -1.300000e+01 1.610000e+02 1.660000e+02
    endloop
  endfacet
  facet normal 0.000000e+00 -1.000000e+00 0.000000e+00
    outer loop
      vertex   -1.000000e+01 1.640000e+02 1.610000e+02
      vertex   -1.000000e+01 1.640000e+02 1.690000e+02
      vertex   -1.300000e+01 1.640000e+02 1.610000e+02
    endloop
  endfacet
  facet normal 0.000000e+00 -1.000000e+00 0.000000e+00
    outer loop
      vertex   -1.300000e+01 1.640000e+02 1.610000e+02
      vertex   -1.000000e+01 1.640000e+02 1.690000e+02
      vertex   -1.300000e+01 1.640000e+02 1.690000e+02
    endloop
  endfacet
  facet normal -0.000000e+00 -0.000000e+00 -1.000000e+00
    outer loop
      vertex   -1.000000e+01 1.640000e+02 1.690000e+02
      vertex   -1.000000e+01 1.560000e+02 1.690000e+02
      vertex   -1.300000e+01 1.640000e+02 1.690000e+02
    endloop
  endfacet
  facet normal 0.000000e+00 0.000000e+00 -1.000000e+00
    outer loop
      vertex   -1.300000e+01 1.640000e+02 1.690000e+02
      vertex   -1.000000e+01 1.560000e+02 1.690000e+02
      vertex   -1.300000e+01 1.560000e+02 1.690000e+02
    endloop
  endfacet
  facet normal 0.000000e+00 1.000000e+00 0.000000e+00
    outer loop
      vertex   -1.000000e+01 1.560000e+02 1.690000e+02
      vertex   -1.000000e+01 1.560000e+02 1.660000e+02
      vertex   -1.300000e+01 1.560000e+02 1.690000e+02
    endloop
  endfacet
  facet normal 0.000000e+00 1.000000e+00 0.000000e+00
    outer loop
      vertex   -1.300000e+01 1.560000e+02 1.690000e+02
      vertex   -1.000000e+01 1.560000e+02 1.660000e+02
      vertex   -1.300000e+01 1.560000e+02 1.660000e+02
    endloop
  endfacet
  facet normal 0.000000e+00 -1.000000e+00 0.000000e+00
    outer loop
      vertex   -1.000000e+01 0.000000e+00 1.776357e-14
      vertex   -1.000000e+01 0.000000e+00 2.000000e+02
      vertex   -1.300000e+01 0.000000e+00 3.552714e-14
    endloop
  endfacet
  facet normal 0.000000e+00 -1.000000e+00 0.000000e+00
    outer loop
      vertex   -1.300000e+01 0.000000e+00 3.552714e-14
      vertex   -1.000000e+01 0.000000e+00 2.000000e+02
      vertex   -1.300000e+01 0.000000e+00 2.000000e+02
    endloop
  endfacet
  facet normal -5.921189e-15 -0.000000e+00 -1.000000e+00
    outer loop
      vertex   -1.000000e+01 2.000000e+02 1.776357e-14
      vertex   -1.000000e+01 0.000000e+00 1.776357e-14
      vertex   -1.300000e+01 2.000000e+02 3.552714e-14
    endloop
  endfacet
  facet normal -5.921189e-15 -0.000000e+00 -1.000000e+00
    outer loop
      vertex   -1.300000e+01 2.000000e+02 3.552714e-14
      vertex   -1.000000e+01 0.000000e+00 1.776357e-14
      vertex   -1.300000e+01 0.000000e+00 3.552714e-14
    endloop
  endfacet
  facet normal 0.000000e+00 1.000000e+00 0.000000e+00
    outer loop
      vertex   -1.000000e+01 2.000000e+02 2.000000e+02
      vertex   -1.000000e+01 2.000000e+02 1.776357e-14
      vertex   -1.300000e+01 2.000000e+02 2.000000e+02
    endloop
  endfacet
  facet normal 0.000000e+00 1.000000e+00 0.000000e+00
    outer loop
      vertex   -1.300000e+01 2.000000e+02 2.000000e+02
      vertex   -1.000000e+01 2.000000e+02 1.776357e-14
      vertex   -1.300000e+01 2.000000e+02 3.552714e-14
    endloop
  endfacet
  facet normal 0.000000e+00 -0.000000e+00 1.000000e+00
    outer loop
      vertex   -1.000000e+01 0.000000e+00 2.000000e+02
      vertex   -1.000000e+01 2.000000e+02 2.000000e+02
      vertex   -1.300000e+01 0.000000e+00 2.000000e+02
    endloop
  endfacet
  facet normal 0.000000e+00 0.000000e+00 1.000000e+00
    outer loop
      vertex   -1.300000e+01 0.000000e+00 2.000000e+02
      vertex   -1.000000e+01 2.000000e+02 2.000000e+02
      vertex   -1.300000e+01 2.000000e+02 2.000000e+02
    endloop
  endfacet
  facet normal -1.000000e+00 -2.295335e-29 1.776357e-15
    outer loop
      vertex   -1.300000e+01 1.860000e+02 2.400000e+01
      vertex   -1.300000e+01 1.695034e+02 2.400000e+01
      vertex   -1.300000e+01 1.860000e+02 2.900000e+01
    endloop
  endfacet
  facet normal -1.000000e+00 -1.609789e-17 1.829469e-15
    outer loop
      vertex   -1.300000e+01 1.860000e+02 2.900000e+01
      vertex   -1.300000e+01 1.695034e+02 2.400000e+01
      vertex   -1.300000e+01 1.640000e+02 7.250000e+01
    endloop
  endfacet
  facet normal -1.000000e+00 0.000000e+00 1.837611e-15
    outer loop
      vertex   -1.300000e+01 1.860000e+02 2.900000e+01
      vertex   -1.300000e+01 1.640000e+02 7.250000e+01
      vertex   -1.300000e+01 1.890000e+02 2.900000e+01
    endloop
  endfacet
  facet normal -1.000000e+00 1.342649e-16 1.914774e-15
    outer loop
      vertex   -1.300000e+01 1.890000e+02 2.900000e+01
      vertex   -1.300000e+01 1.640000e+02 7.250000e+01
      vertex   -1.300000e+01 1.890000e+02 1.060000e+02
    endloop
  endfacet
  facet normal -1.000000e+00 3.649186e-16 1.914774e-15
    outer loop
      vertex   -1.300000e+01 1.890000e+02 2.900000e+01
      vertex   -1.300000e+01 1.890000e+02 1.060000e+02
      vertex   -1.300000e+01 2.000000e+02 3.552714e-14
    endloop
  endfacet
  facet normal -1.000000e+00 -9.689219e-16 1.776357e-15
    outer loop
      vertex   -1.300000e+01 2.000000e+02 3.552714e-14
      vertex   -1.300000e+01 1.890000e+02 1.060000e+02
      vertex   -1.300000e+01 2.000000e+02 2.000000e+02
    endloop
  endfacet
  facet normal -1.000000e+00 1.421085e-14 0.000000e+00
    outer loop
      vertex   -1.300000e+01 2.000000e+02 2.000000e+02
      vertex   -1.300000e+01 1.890000e+02 1.060000e+02
      vertex   -1.300000e+01 1.890000e+02 1.140000e+02
    endloop
  endfacet
  facet normal -1.000000e+00 -1.092323e-16 1.831639e-15
    outer loop
      vertex   -1.300000e+01 2.000000e+02 2.000000e+02
      vertex   -1.300000e+01 1.890000e+02 1.140000e+02
      vertex   -1.300000e+01 1.640000e+02 1.610000e+02
    endloop
  endfacet
  facet normal -1.000000e+00 0.000000e+00 1.889741e-15
    outer loop
      vertex   -1.300000e+01 1.640000e+02 1.610000e+02
      vertex   -1.300000e+01 1.890000e+02 1.140000e+02
      vertex   -1.300000e+01 1.860000e+02 1.140000e+02
    endloop
  endfacet
  facet normal -1.000000e+00 -5.057789e-16 1.652994e-15
    outer loop
      vertex   -1.300000e+01 1.640000e+02 1.610000e+02
      vertex   -1.300000e+01 1.860000e+02 1.140000e+02
      vertex   -1.300000e+01 1.696589e+02 1.090000e+02
    endloop
  endfacet
  facet normal -1.000000e+00 0.000000e+00 0.000000e+00
    outer loop
      vertex   -1.300000e+01 1.696589e+02 1.090000e+02
      vertex   -1.300000e+01 1.860000e+02 1.140000e+02
      vertex   -1.300000e+01 1.860000e+02 1.090000e+02
    endloop
  endfacet
  facet normal -1.000000e+00 1.034319e-30 5.921189e-16
    outer loop
      vertex   -1.300000e+01 1.695034e+02 2.100000e+01
      vertex   -1.300000e+01 1.900000e+01 2.400000e+01
      vertex   -1.300000e+01 1.695034e+02 2.400000e+01
    endloop
  endfacet
  facet normal -1.000000e+00 3.363955e-30 1.925770e-15
    outer loop
      vertex   -1.300000e+01 1.695034e+02 2.400000e+01
      vertex   -1.300000e+01 1.900000e+01 2.400000e+01
      vertex   -1.300000e+01 1.560000e+02 7.750000e+01
    endloop
  endfacet
  facet normal -1.000000e+00 -1.225789e-15 1.616382e-15
    outer loop
      vertex   -1.300000e+01 1.695034e+02 2.400000e+01
      vertex   -1.300000e+01 1.560000e+02 7.750000e+01
      vertex   -1.300000e+01 1.610000e+02 7.250000e+01
    endloop
  endfacet
  facet normal -1.000000e+00 0.000000e+00 2.842171e-15
    outer loop
      vertex   -1.300000e+01 1.610000e+02 7.250000e+01
      vertex   -1.300000e+01 1.560000e+02 7.750000e+01
      vertex   -1.300000e+01 1.610000e+02 7.750000e+01
    endloop
  endfacet
  facet normal -1.000000e+00 -2.410727e-29 1.945534e-15
    outer loop
      vertex   -1.300000e+01 1.890000e+02 2.100000e+01
      vertex   -1.300000e+01 2.000000e+02 3.552714e-14
      vertex   -1.300000e+01 1.695034e+02 2.100000e+01
    endloop
  endfacet
  facet normal -1.000000e+00 0.000000e+00 1.945534e-15
    outer loop
      vertex   -1.300000e+01 1.695034e+02 2.100000e+01
      vertex   -1.300000e+01 2.000000e+02 3.552714e-14
      vertex   -1.300000e+01 0.000000e+00 3.552714e-14
    endloop
  endfacet
  facet normal -1.000000e+00 3.306628e-30 1.945534e-15
    outer loop
      vertex   -1.300000e+01 1.695034e+02 2.100000e+01
      vertex   -1.300000e+01 0.000000e+00 3.552714e-14
      vertex   -1.300000e+01 1.900000e+01 2.100000e+01
    endloop
  endfacet
  facet normal -1.000000e+00 0.000000e+00 1.945534e-15
    outer loop
      vertex   -1.300000e+01 1.900000e+01 2.100000e+01
      vertex   -1.300000e+01 0.000000e+00 3.552714e-14
      vertex   -1.300000e+01 1.100000e+01 2.100000e+01
    endloop
  endfacet
  facet normal -1.000000e+00 1.170781e-15 1.332268e-15
    outer loop
      vertex   -1.300000e+01 1.100000e+01 2.100000e+01
      vertex   -1.300000e+01 0.000000e+00 3.552714e-14
      vertex   -1.300000e+01 1.100000e+01 2.900000e+01
    endloop
  endfacet
  facet normal -1.000000e+00 -1.022751e-15 2.164297e-15
    outer loop
      vertex   -1.300000e+01 1.100000e+01 2.900000e+01
      vertex   -1.300000e+01 0.000000e+00 3.552714e-14
      vertex   -1.300000e+01 1.100000e+01 7.250000e+01
    endloop
  endfacet
  facet normal -1.000000e+00 0.000000e+00 2.164297e-15
    outer loop
      vertex   -1.300000e+01 1.100000e+01 2.900000e+01
      vertex   -1.300000e+01 1.100000e+01 7.250000e+01
      vertex   -1.300000e+01 1.400000e+01 2.900000e+01
    endloop
  endfacet
  facet normal -1.000000e+00 0.000000e+00 2.164297e-15
    outer loop
      vertex   -1.300000e+01 1.400000e+01 2.900000e+01
      vertex   -1.300000e+01 1.100000e+01 7.250000e+01
      vertex   -1.300000e+01 1.400000e+01 7.250000e+01
    endloop
  endfacet
  facet normal -1.000000e+00 3.879400e-16 2.164297e-15
    outer loop
      vertex   -1.300000e+01 1.400000e+01 2.900000e+01
      vertex   -1.300000e+01 1.400000e+01 7.250000e+01
      vertex   -1.300000e+01 1.900000e+01 2.400000e+01
    endloop
  endfacet
  facet normal -1.000000e+00 -1.925770e-15 1.925770e-15
    outer loop
      vertex   -1.300000e+01 1.900000e+01 2.400000e+01
      vertex   -1.300000e+01 1.400000e+01 7.250000e+01
      vertex   -1.300000e+01 1.900000e+01 7.750000e+01
    endloop
  endfacet
  facet normal -1.000000e+00 0.000000e+00 1.925770e-15
    outer loop
      vertex   -1.300000e+01 1.900000e+01 2.400000e+01
      vertex   -1.300000e+01 1.900000e+01 7.750000e+01
      vertex   -1.300000e+01 1.560000e+02 7.750000e+01
    endloop
  endfacet
  facet normal -1.000000e+00 0.000000e+00 0.000000e+00
    outer loop
      vertex   -1.300000e+01 1.560000e+02 7.750000e+01
      vertex   -1.300000e+01 1.900000e+01 7.750000e+01
      vertex   -1.300000e+01 1.900000e+01 8.050000e+01
    endloop
  endfacet
  facet normal -1.000000e+00 5.186443e-17 2.368476e-15
    outer loop
      vertex   -1.300000e+01 1.560000e+02 7.750000e+01
      vertex   -1.300000e+01 1.900000e+01 8.050000e+01
      vertex   -1.300000e+01 1.560000e+02 8.050000e+01
    endloop
  endfacet
  facet normal -1.000000e+00 5.186443e-17 2.089832e-15
    outer loop
      vertex   -1.300000e+01 1.560000e+02 8.050000e+01
      vertex   -1.300000e+01 1.900000e+01 8.050000e+01
      vertex   -1.300000e+01 1.900000e+01 1.060000e+02
    endloop
  endfacet
  facet normal -1.000000e+00 -3.371188e-16 0.000000e+00
    outer loop
      vertex   -1.300000e+01 1.560000e+02 8.050000e+01
      vertex   -1.300000e+01 1.900000e+01 1.060000e+02
      vertex   -1.300000e+01 1.900000e+01 1.090000e+02
    endloop
  endfacet
  facet normal -1.000000e+00 -1.170781e-15 1.332268e-15
    outer loop
      vertex   -1.300000e+01 1.890000e+02 2.100000e+01
      vertex   -1.300000e+01 1.890000e+02 2.900000e+01
      vertex   -1.300000e+01 2.000000e+02 3.552714e-14
    endloop
  endfacet
  facet normal -1.000000e+00 0.000000e+00 1.776357e-15
    outer loop
      vertex   -1.300000e+01 1.900000e+01 2.400000e+01
      vertex   -1.300000e+01 1.400000e+01 2.400000e+01
      vertex   -1.300000e+01 1.400000e+01 2.900000e+01
    endloop
  endfacet
  facet normal -1.000000e+00 1.006365e-30 5.921189e-16
    outer loop
      vertex   -1.300000e+01 1.900000e+01 2.100000e+01
      vertex   -1.300000e+01 1.900000e+01 2.400000e+01
      vertex   -1.300000e+01 1.695034e+02 2.100000e+01
    endloop
  endfacet
  facet normal -1.000000e+00 0.000000e+00 2.089832e-15
    outer loop
      vertex   -1.300000e+01 1.900000e+01 1.060000e+02
      vertex   -1.300000e+01 1.900000e+01 8.050000e+01
      vertex   -1.300000e+01 1.100000e+01 1.060000e+02
    endloop
  endfacet
  facet normal -1.000000e+00 0.000000e+00 2.089832e-15
    outer loop
      vertex   -1.300000e+01 1.100000e+01 1.060000e+02
      vertex   -1.300000e+01 1.900000e+01 8.050000e+01
      vertex   -1.300000e+01 1.100000e+01 8.050000e+01
    endloop
  endfacet
  facet normal -1.000000e+00 -2.051835e-15 2.089832e-15
    outer loop
      vertex   -1.300000e+01 1.100000e+01 1.060000e+02
      vertex   -1.300000e+01 1.100000e+01 8.050000e+01
      vertex   -1.300000e+01 0.000000e+00 3.552714e-14
    endloop
  endfacet
  facet normal -1.000000e+00 1.324193e-14 0.000000e+00
    outer loop
      vertex   -1.300000e+01 0.000000e+00 3.552714e-14
      vertex   -1.300000e+01 1.100000e+01 8.050000e+01
      vertex   -1.300000e+01 1.100000e+01 7.250000e+01
    endloop
  endfacet
  facet normal -1.000000e+00 0.000000e+00 0.000000e+00
    outer loop
      vertex   -1.300000e+01 1.400000e+01 7.250000e+01
      vertex   -1.300000e+01 1.400000e+01 7.750000e+01
      vertex   -1.300000e+01 1.900000e+01 7.750000e+01
    endloop
  endfacet
  facet normal -1.000000e+00 -1.465494e-15 3.108624e-15
    outer loop
      vertex   -1.300000e+01 1.640000e+02 7.250000e+01
      vertex   -1.300000e+01 1.640000e+02 8.050000e+01
      vertex   -1.300000e+01 1.890000e+02 1.060000e+02
    endloop
  endfacet
  facet normal -1.000000e+00 -7.001899e-29 1.671865e-15
    outer loop
      vertex   -1.300000e+01 1.890000e+02 1.060000e+02
      vertex   -1.300000e+01 1.640000e+02 8.050000e+01
      vertex   -1.300000e+01 1.696589e+02 1.060000e+02
    endloop
  endfacet
  facet normal -1.000000e+00 4.440892e-16 1.573314e-15
    outer loop
      vertex   -1.300000e+01 1.696589e+02 1.060000e+02
      vertex   -1.300000e+01 1.640000e+02 8.050000e+01
      vertex   -1.300000e+01 1.560000e+02 8.050000e+01
    endloop
  endfacet
  facet normal -1.000000e+00 3.381325e-15 1.281374e-28
    outer loop
      vertex   -1.300000e+01 1.696589e+02 1.060000e+02
      vertex   -1.300000e+01 1.560000e+02 8.050000e+01
      vertex   -1.300000e+01 1.696589e+02 1.090000e+02
    endloop
  endfacet
  facet normal -1.000000e+00 8.670064e-17 1.578984e-15
    outer loop
      vertex   -1.300000e+01 1.696589e+02 1.090000e+02
      vertex   -1.300000e+01 1.560000e+02 8.050000e+01
      vertex   -1.300000e+01 1.560000e+02 1.660000e+02
    endloop
  endfacet
  facet normal -1.000000e+00 2.049277e-15 2.049277e-15
    outer loop
      vertex   -1.300000e+01 1.696589e+02 1.090000e+02
      vertex   -1.300000e+01 1.560000e+02 1.660000e+02
      vertex   -1.300000e+01 1.610000e+02 1.610000e+02
    endloop
  endfacet
  facet normal -1.000000e+00 0.000000e+00 0.000000e+00
    outer loop
      vertex   -1.300000e+01 1.610000e+02 1.610000e+02
      vertex   -1.300000e+01 1.560000e+02 1.660000e+02
      vertex   -1.300000e+01 1.610000e+02 1.660000e+02
    endloop
  endfacet
  facet normal -1.000000e+00 0.000000e+00 1.831296e-15
    outer loop
      vertex   -1.300000e+01 1.610000e+02 7.250000e+01
      vertex   -1.300000e+01 1.640000e+02 7.250000e+01
      vertex   -1.300000e+01 1.695034e+02 2.400000e+01
    endloop
  endfacet
  facet normal -1.000000e+00 0.000000e+00 0.000000e+00
    outer loop
      vertex   -1.300000e+01 1.400000e+01 1.090000e+02
      vertex   -1.300000e+01 1.400000e+01 1.140000e+02
      vertex   -1.300000e+01 1.900000e+01 1.090000e+02
    endloop
  endfacet
  facet normal -1.000000e+00 2.267690e-15 2.267690e-15
    outer loop
      vertex   -1.300000e+01 1.900000e+01 1.090000e+02
      vertex   -1.300000e+01 1.400000e+01 1.140000e+02
      vertex   -1.300000e+01 1.400000e+01 1.610000e+02
    endloop
  endfacet
  facet normal -1.000000e+00 -1.869849e-15 1.869849e-15
    outer loop
      vertex   -1.300000e+01 1.900000e+01 1.090000e+02
      vertex   -1.300000e+01 1.400000e+01 1.610000e+02
      vertex   -1.300000e+01 1.900000e+01 1.660000e+02
    endloop
  endfacet
  facet normal -1.000000e+00 -0.000000e+00 0.000000e+00
    outer loop
      vertex   -1.300000e+01 1.900000e+01 1.660000e+02
      vertex   -1.300000e+01 1.400000e+01 1.610000e+02
      vertex   -1.300000e+01 1.400000e+01 1.660000e+02
    endloop
  endfacet
  facet normal -1.000000e+00 0.000000e+00 2.267690e-15
    outer loop
      vertex   -1.300000e+01 1.400000e+01 1.610000e+02
      vertex   -1.300000e+01 1.400000e+01 1.140000e+02
      vertex   -1.300000e+01 1.100000e+01 1.610000e+02
    endloop
  endfacet
  facet normal -1.000000e+00 0.000000e+00 2.267690e-15
    outer loop
      vertex   -1.300000e+01 1.100000e+01 1.610000e+02
      vertex   -1.300000e+01 1.400000e+01 1.140000e+02
      vertex   -1.300000e+01 1.100000e+01 1.140000e+02
    endloop
  endfacet
  facet normal -1.000000e+00 3.518355e-15 2.267690e-15
    outer loop
      vertex   -1.300000e+01 1.100000e+01 1.610000e+02
      vertex   -1.300000e+01 1.100000e+01 1.140000e+02
      vertex   -1.300000e+01 0.000000e+00 2.000000e+02
    endloop
  endfacet
  facet normal -1.000000e+00 -1.421085e-14 0.000000e+00
    outer loop
      vertex   -1.300000e+01 0.000000e+00 2.000000e+02
      vertex   -1.300000e+01 1.100000e+01 1.140000e+02
      vertex   -1.300000e+01 1.100000e+01 1.060000e+02
    endloop
  endfacet
  facet normal -1.000000e+00 9.689219e-16 1.776357e-15
    outer loop
      vertex   -1.300000e+01 0.000000e+00 2.000000e+02
      vertex   -1.300000e+01 1.100000e+01 1.060000e+02
      vertex   -1.300000e+01 0.000000e+00 3.552714e-14
    endloop
  endfacet
  facet normal -1.000000e+00 -1.296611e-16 1.869849e-15
    outer loop
      vertex   -1.300000e+01 1.900000e+01 1.090000e+02
      vertex   -1.300000e+01 1.900000e+01 1.660000e+02
      vertex   -1.300000e+01 1.560000e+02 1.660000e+02
    endloop
  endfacet
  facet normal -1.000000e+00 -1.296611e-16 0.000000e+00
    outer loop
      vertex   -1.300000e+01 1.560000e+02 1.660000e+02
      vertex   -1.300000e+01 1.900000e+01 1.660000e+02
      vertex   -1.300000e+01 1.900000e+01 1.690000e+02
    endloop
  endfacet
  facet normal -1.000000e+00 -1.296611e-16 0.000000e+00
    outer loop
      vertex   -1.300000e+01 1.560000e+02 1.660000e+02
      vertex   -1.300000e+01 1.900000e+01 1.690000e+02
      vertex   -1.300000e+01 1.560000e+02 1.690000e+02
    endloop
  endfacet
  facet normal -1.000000e+00 -1.296611e-16 1.524982e-15
    outer loop
      vertex   -1.300000e+01 1.560000e+02 1.690000e+02
      vertex   -1.300000e+01 1.900000e+01 1.690000e+02
      vertex   -1.300000e+01 0.000000e+00 2.000000e+02
    endloop
  endfacet
  facet normal -1.000000e+00 0.000000e+00 2.177470e-15
    outer loop
      vertex   -1.300000e+01 1.560000e+02 1.690000e+02
      vertex   -1.300000e+01 0.000000e+00 2.000000e+02
      vertex   -1.300000e+01 2.000000e+02 2.000000e+02
    endloop
  endfacet
  facet normal -1.000000e+00 0.000000e+00 1.604451e-15
    outer loop
      vertex   -1.300000e+01 1.900000e+01 1.690000e+02
      vertex   -1.300000e+01 1.100000e+01 1.690000e+02
      vertex   -1.300000e+01 0.000000e+00 2.000000e+02
    endloop
  endfacet
  facet normal -1.000000e+00 -4.521636e-15 0.000000e+00
    outer loop
      vertex   -1.300000e+01 0.000000e+00 2.000000e+02
      vertex   -1.300000e+01 1.100000e+01 1.690000e+02
      vertex   -1.300000e+01 1.100000e+01 1.610000e+02
    endloop
  endfacet
  facet normal -1.000000e+00 0.000000e+00 1.708035e-15
    outer loop
      vertex   -1.300000e+01 1.610000e+02 1.610000e+02
      vertex   -1.300000e+01 1.640000e+02 1.610000e+02
      vertex   -1.300000e+01 1.696589e+02 1.090000e+02
    endloop
  endfacet
  facet normal -1.000000e+00 1.875043e-15 0.000000e+00
    outer loop
      vertex   -1.300000e+01 1.640000e+02 1.610000e+02
      vertex   -1.300000e+01 1.640000e+02 1.690000e+02
      vertex   -1.300000e+01 2.000000e+02 2.000000e+02
    endloop
  endfacet
  facet normal -1.000000e+00 0.000000e+00 2.177470e-15
    outer loop
      vertex   -1.300000e+01 2.000000e+02 2.000000e+02
      vertex   -1.300000e+01 1.640000e+02 1.690000e+02
      vertex   -1.300000e+01 1.560000e+02 1.690000e+02
    endloop
  endfacet
  facet normal -1.000000e+00 -8.644072e-18 1.578984e-15
    outer loop
      vertex   -1.300000e+01 1.560000e+02 1.660000e+02
      vertex   -1.300000e+01 1.560000e+02 8.050000e+01
      vertex   -1.300000e+01 1.900000e+01 1.090000e+02
    endloop
  endfacet
  facet normal 1.000000e+00 1.836268e-29 -1.421085e-15
    outer loop
      vertex   -1.000000e+01 1.860000e+02 2.400000e+01
      vertex   -1.000000e+01 1.860000e+02 2.900000e+01
      vertex   -1.000000e+01 1.695034e+02 2.400000e+01
    endloop
  endfacet
  facet normal 1.000000e+00 8.800177e-17 -1.711432e-15
    outer loop
      vertex   -1.000000e+01 1.695034e+02 2.400000e+01
      vertex   -1.000000e+01 1.860000e+02 2.900000e+01
      vertex   -1.000000e+01 1.640000e+02 7.250000e+01
    endloop
  endfacet
  facet normal 1.000000e+00 0.000000e+00 -1.721418e-15
    outer loop
      vertex   -1.000000e+01 1.695034e+02 2.400000e+01
      vertex   -1.000000e+01 1.640000e+02 7.250000e+01
      vertex   -1.000000e+01 1.610000e+02 7.250000e+01
    endloop
  endfacet
  facet normal 1.000000e+00 0.000000e+00 -1.755939e-15
    outer loop
      vertex   -1.000000e+01 1.860000e+02 2.900000e+01
      vertex   -1.000000e+01 1.890000e+02 2.900000e+01
      vertex   -1.000000e+01 1.640000e+02 7.250000e+01
    endloop
  endfacet
  facet normal 1.000000e+00 -3.552714e-17 -1.776357e-15
    outer loop
      vertex   -1.000000e+01 1.640000e+02 7.250000e+01
      vertex   -1.000000e+01 1.890000e+02 2.900000e+01
      vertex   -1.000000e+01 1.890000e+02 1.060000e+02
    endloop
  endfacet
  facet normal 1.000000e+00 -3.330669e-16 -1.554312e-15
    outer loop
      vertex   -1.000000e+01 1.640000e+02 7.250000e+01
      vertex   -1.000000e+01 1.890000e+02 1.060000e+02
      vertex   -1.000000e+01 1.640000e+02 8.050000e+01
    endloop
  endfacet
  facet normal 1.000000e+00 7.861781e-29 -1.880848e-15
    outer loop
      vertex   -1.000000e+01 1.640000e+02 8.050000e+01
      vertex   -1.000000e+01 1.890000e+02 1.060000e+02
      vertex   -1.000000e+01 1.696589e+02 1.060000e+02
    endloop
  endfacet
  facet normal 1.000000e+00 0.000000e+00 -1.880848e-15
    outer loop
      vertex   -1.000000e+01 1.640000e+02 8.050000e+01
      vertex   -1.000000e+01 1.696589e+02 1.060000e+02
      vertex   -1.000000e+01 1.560000e+02 8.050000e+01
    endloop
  endfacet
  facet normal 1.000000e+00 -1.950764e-16 -1.776357e-15
    outer loop
      vertex   -1.000000e+01 1.560000e+02 8.050000e+01
      vertex   -1.000000e+01 1.696589e+02 1.060000e+02
      vertex   -1.000000e+01 1.696589e+02 1.090000e+02
    endloop
  endfacet
  facet normal 1.000000e+00 -1.300510e-16 -1.807521e-15
    outer loop
      vertex   -1.000000e+01 1.560000e+02 8.050000e+01
      vertex   -1.000000e+01 1.696589e+02 1.090000e+02
      vertex   -1.000000e+01 1.560000e+02 1.660000e+02
    endloop
  endfacet
  facet normal 1.000000e+00 3.541232e-29 -1.776357e-15
    outer loop
      vertex   -1.000000e+01 1.560000e+02 1.660000e+02
      vertex   -1.000000e+01 1.696589e+02 1.090000e+02
      vertex   -1.000000e+01 1.610000e+02 1.610000e+02
    endloop
  endfacet
  facet normal 1.000000e+00 0.000000e+00 -1.776357e-15
    outer loop
      vertex   -1.000000e+01 1.560000e+02 1.660000e+02
      vertex   -1.000000e+01 1.610000e+02 1.610000e+02
      vertex   -1.000000e+01 1.610000e+02 1.660000e+02
    endloop
  endfacet
  facet normal 1.000000e+00 1.614870e-16 -1.776357e-15
    outer loop
      vertex   -1.000000e+01 1.890000e+02 1.060000e+02
      vertex   -1.000000e+01 1.890000e+02 2.900000e+01
      vertex   -1.000000e+01 2.000000e+02 1.776357e-14
    endloop
  endfacet
  facet normal 1.000000e+00 1.614870e-16 -1.776357e-15
    outer loop
      vertex   -1.000000e+01 2.000000e+02 1.776357e-14
      vertex   -1.000000e+01 1.890000e+02 2.900000e+01
      vertex   -1.000000e+01 1.890000e+02 2.100000e+01
    endloop
  endfacet
  facet normal 1.000000e+00 2.318244e-29 -1.860945e-15
    outer loop
      vertex   -1.000000e+01 2.000000e+02 1.776357e-14
      vertex   -1.000000e+01 1.890000e+02 2.100000e+01
      vertex   -1.000000e+01 1.695034e+02 2.100000e+01
    endloop
  endfacet
  facet normal 1.000000e+00 -4.137278e-30 -2.368476e-15
    outer loop
      vertex   -1.000000e+01 1.695034e+02 2.400000e+01
      vertex   -1.000000e+01 1.900000e+01 2.400000e+01
      vertex   -1.000000e+01 1.695034e+02 2.100000e+01
    endloop
  endfacet
  facet normal 1.000000e+00 -3.969550e-30 -2.368476e-15
    outer loop
      vertex   -1.000000e+01 1.695034e+02 2.100000e+01
      vertex   -1.000000e+01 1.900000e+01 2.400000e+01
      vertex   -1.000000e+01 1.900000e+01 2.100000e+01
    endloop
  endfacet
  facet normal 1.000000e+00 -3.118933e-30 -1.860945e-15
    outer loop
      vertex   -1.000000e+01 1.695034e+02 2.100000e+01
      vertex   -1.000000e+01 1.900000e+01 2.100000e+01
      vertex   -1.000000e+01 0.000000e+00 1.776357e-14
    endloop
  endfacet
  facet normal 1.000000e+00 6.010369e-31 -1.860945e-15
    outer loop
      vertex   -1.000000e+01 0.000000e+00 1.776357e-14
      vertex   -1.000000e+01 1.900000e+01 2.100000e+01
      vertex   -1.000000e+01 1.100000e+01 2.100000e+01
    endloop
  endfacet
  facet normal 1.000000e+00 -1.614870e-16 -1.776357e-15
    outer loop
      vertex   -1.000000e+01 0.000000e+00 1.776357e-14
      vertex   -1.000000e+01 1.100000e+01 2.100000e+01
      vertex   -1.000000e+01 1.100000e+01 2.900000e+01
    endloop
  endfacet
  facet normal 1.000000e+00 0.000000e+00 -1.421085e-15
    outer loop
      vertex   -1.000000e+01 1.400000e+01 2.400000e+01
      vertex   -1.000000e+01 1.900000e+01 2.400000e+01
      vertex   -1.000000e+01 1.400000e+01 2.900000e+01
    endloop
  endfacet
  facet normal 1.000000e+00 -3.348535e-16 -1.755939e-15
    outer loop
      vertex   -1.000000e+01 1.400000e+01 2.900000e+01
      vertex   -1.000000e+01 1.900000e+01 2.400000e+01
      vertex   -1.000000e+01 1.400000e+01 7.250000e+01
    endloop
  endfacet
  facet normal 1.000000e+00 0.000000e+00 -1.755939e-15
    outer loop
      vertex   -1.000000e+01 1.400000e+01 2.900000e+01
      vertex   -1.000000e+01 1.400000e+01 7.250000e+01
      vertex   -1.000000e+01 1.100000e+01 7.250000e+01
    endloop
  endfacet
  facet normal 1.000000e+00 -2.153160e-16 -1.755939e-15
    outer loop
      vertex   -1.000000e+01 0.000000e+00 1.776357e-14
      vertex   -1.000000e+01 1.100000e+01 2.900000e+01
      vertex   -1.000000e+01 1.100000e+01 7.250000e+01
    endloop
  endfacet
  facet normal 1.000000e+00 0.000000e+00 -1.755939e-15
    outer loop
      vertex   -1.000000e+01 1.100000e+01 7.250000e+01
      vertex   -1.000000e+01 1.100000e+01 2.900000e+01
      vertex   -1.000000e+01 1.400000e+01 2.900000e+01
    endloop
  endfacet
  facet normal 1.000000e+00 0.000000e+00 -1.184238e-15
    outer loop
      vertex   -1.000000e+01 1.900000e+01 7.750000e+01
      vertex   -1.000000e+01 1.560000e+02 7.750000e+01
      vertex   -1.000000e+01 1.900000e+01 8.050000e+01
    endloop
  endfacet
  facet normal 1.000000e+00 0.000000e+00 -1.184238e-15
    outer loop
      vertex   -1.000000e+01 1.900000e+01 8.050000e+01
      vertex   -1.000000e+01 1.560000e+02 7.750000e+01
      vertex   -1.000000e+01 1.560000e+02 8.050000e+01
    endloop
  endfacet
  facet normal 1.000000e+00 0.000000e+00 -1.880848e-15
    outer loop
      vertex   -1.000000e+01 1.900000e+01 8.050000e+01
      vertex   -1.000000e+01 1.560000e+02 8.050000e+01
      vertex   -1.000000e+01 1.900000e+01 1.060000e+02
    endloop
  endfacet
  facet normal 1.000000e+00 1.944916e-17 -1.776357e-15
    outer loop
      vertex   -1.000000e+01 1.900000e+01 1.060000e+02
      vertex   -1.000000e+01 1.560000e+02 8.050000e+01
      vertex   -1.000000e+01 1.900000e+01 1.090000e+02
    endloop
  endfacet
  facet normal 1.000000e+00 1.296611e-17 -1.807521e-15
    outer loop
      vertex   -1.000000e+01 1.900000e+01 1.090000e+02
      vertex   -1.000000e+01 1.560000e+02 8.050000e+01
      vertex   -1.000000e+01 1.560000e+02 1.660000e+02
    endloop
  endfacet
  facet normal 1.000000e+00 0.000000e+00 -1.776357e-15
    outer loop
      vertex   -1.000000e+01 1.900000e+01 1.090000e+02
      vertex   -1.000000e+01 1.560000e+02 1.660000e+02
      vertex   -1.000000e+01 1.900000e+01 1.660000e+02
    endloop
  endfacet
  facet normal 1.000000e+00 0.000000e+00 -1.776357e-15
    outer loop
      vertex   -1.000000e+01 1.900000e+01 1.660000e+02
      vertex   -1.000000e+01 1.560000e+02 1.660000e+02
      vertex   -1.000000e+01 1.900000e+01 1.690000e+02
    endloop
  endfacet
  facet normal 1.000000e+00 0.000000e+00 -1.776357e-15
    outer loop
      vertex   -1.000000e+01 1.900000e+01 1.690000e+02
      vertex   -1.000000e+01 1.560000e+02 1.660000e+02
      vertex   -1.000000e+01 1.560000e+02 1.690000e+02
    endloop
  endfacet
  facet normal 1.000000e+00 0.000000e+00 -1.719055e-15
    outer loop
      vertex   -1.000000e+01 1.900000e+01 1.690000e+02
      vertex   -1.000000e+01 1.560000e+02 1.690000e+02
      vertex   -1.000000e+01 0.000000e+00 2.000000e+02
    endloop
  endfacet
  facet normal 1.000000e+00 0.000000e+00 -1.719055e-15
    outer loop
      vertex   -1.000000e+01 0.000000e+00 2.000000e+02
      vertex   -1.000000e+01 1.560000e+02 1.690000e+02
      vertex   -1.000000e+01 2.000000e+02 2.000000e+02
    endloop
  endfacet
  facet normal 1.000000e+00 0.000000e+00 -1.719055e-15
    outer loop
      vertex   -1.000000e+01 2.000000e+02 2.000000e+02
      vertex   -1.000000e+01 1.560000e+02 1.690000e+02
      vertex   -1.000000e+01 1.640000e+02 1.690000e+02
    endloop
  endfacet
  facet normal 1.000000e+00 4.934325e-17 -1.776357e-15
    outer loop
      vertex   -1.000000e+01 2.000000e+02 2.000000e+02
      vertex   -1.000000e+01 1.640000e+02 1.690000e+02
      vertex   -1.000000e+01 1.640000e+02 1.610000e+02
    endloop
  endfacet
  facet normal 1.000000e+00 0.000000e+00 -1.776357e-15
    outer loop
      vertex   -1.000000e+01 1.400000e+01 7.750000e+01
      vertex   -1.000000e+01 1.400000e+01 7.250000e+01
      vertex   -1.000000e+01 1.900000e+01 7.750000e+01
    endloop
  endfacet
  facet normal 1.000000e+00 -4.980440e-17 -1.726552e-15
    outer loop
      vertex   -1.000000e+01 1.900000e+01 7.750000e+01
      vertex   -1.000000e+01 1.400000e+01 7.250000e+01
      vertex   -1.000000e+01 1.900000e+01 2.400000e+01
    endloop
  endfacet
  facet normal 1.000000e+00 0.000000e+00 -1.726552e-15
    outer loop
      vertex   -1.000000e+01 1.900000e+01 7.750000e+01
      vertex   -1.000000e+01 1.900000e+01 2.400000e+01
      vertex   -1.000000e+01 1.560000e+02 7.750000e+01
    endloop
  endfacet
  facet normal 1.000000e+00 -2.909366e-30 -1.726552e-15
    outer loop
      vertex   -1.000000e+01 1.560000e+02 7.750000e+01
      vertex   -1.000000e+01 1.900000e+01 2.400000e+01
      vertex   -1.000000e+01 1.695034e+02 2.400000e+01
    endloop
  endfacet
  facet normal 1.000000e+00 6.661897e-17 -1.709738e-15
    outer loop
      vertex   -1.000000e+01 1.560000e+02 7.750000e+01
      vertex   -1.000000e+01 1.695034e+02 2.400000e+01
      vertex   -1.000000e+01 1.610000e+02 7.250000e+01
    endloop
  endfacet
  facet normal 1.000000e+00 -1.544219e-15 -1.554312e-15
    outer loop
      vertex   -1.000000e+01 1.100000e+01 7.250000e+01
      vertex   -1.000000e+01 1.100000e+01 8.050000e+01
      vertex   -1.000000e+01 0.000000e+00 1.776357e-14
    endloop
  endfacet
  facet normal 1.000000e+00 8.454319e-16 -1.880848e-15
    outer loop
      vertex   -1.000000e+01 0.000000e+00 1.776357e-14
      vertex   -1.000000e+01 1.100000e+01 8.050000e+01
      vertex   -1.000000e+01 1.100000e+01 1.060000e+02
    endloop
  endfacet
  facet normal 1.000000e+00 -1.614870e-16 -1.776357e-15
    outer loop
      vertex   -1.000000e+01 0.000000e+00 1.776357e-14
      vertex   -1.000000e+01 1.100000e+01 1.060000e+02
      vertex   -1.000000e+01 0.000000e+00 2.000000e+02
    endloop
  endfacet
  facet normal 1.000000e+00 -1.614870e-16 -1.776357e-15
    outer loop
      vertex   -1.000000e+01 0.000000e+00 2.000000e+02
      vertex   -1.000000e+01 1.100000e+01 1.060000e+02
      vertex   -1.000000e+01 1.100000e+01 1.140000e+02
    endloop
  endfacet
  facet normal 1.000000e+00 -1.614870e-16 -1.776357e-15
    outer loop
      vertex   -1.000000e+01 0.000000e+00 2.000000e+02
      vertex   -1.000000e+01 1.100000e+01 1.140000e+02
      vertex   -1.000000e+01 1.100000e+01 1.610000e+02
    endloop
  endfacet
  facet normal 1.000000e+00 0.000000e+00 -1.776357e-15
    outer loop
      vertex   -1.000000e+01 1.100000e+01 1.610000e+02
      vertex   -1.000000e+01 1.100000e+01 1.140000e+02
      vertex   -1.000000e+01 1.400000e+01 1.140000e+02
    endloop
  endfacet
  facet normal 1.000000e+00 0.000000e+00 -1.776357e-15
    outer loop
      vertex   -1.000000e+01 1.100000e+01 1.610000e+02
      vertex   -1.000000e+01 1.400000e+01 1.140000e+02
      vertex   -1.000000e+01 1.400000e+01 1.610000e+02
    endloop
  endfacet
  facet normal 1.000000e+00 0.000000e+00 -1.776357e-15
    outer loop
      vertex   -1.000000e+01 1.400000e+01 1.610000e+02
      vertex   -1.000000e+01 1.400000e+01 1.140000e+02
      vertex   -1.000000e+01 1.900000e+01 1.090000e+02
    endloop
  endfacet
  facet normal 1.000000e+00 7.085908e-31 -1.776357e-15
    outer loop
      vertex   -1.000000e+01 1.400000e+01 1.610000e+02
      vertex   -1.000000e+01 1.900000e+01 1.090000e+02
      vertex   -1.000000e+01 1.900000e+01 1.660000e+02
    endloop
  endfacet
  facet normal 1.000000e+00 0.000000e+00 -1.880848e-15
    outer loop
      vertex   -1.000000e+01 1.100000e+01 8.050000e+01
      vertex   -1.000000e+01 1.900000e+01 8.050000e+01
      vertex   -1.000000e+01 1.100000e+01 1.060000e+02
    endloop
  endfacet
  facet normal 1.000000e+00 0.000000e+00 -1.880848e-15
    outer loop
      vertex   -1.000000e+01 1.100000e+01 1.060000e+02
      vertex   -1.000000e+01 1.900000e+01 8.050000e+01
      vertex   -1.000000e+01 1.900000e+01 1.060000e+02
    endloop
  endfacet
  facet normal 1.000000e+00 0.000000e+00 -1.776357e-15
    outer loop
      vertex   -1.000000e+01 1.610000e+02 7.250000e+01
      vertex   -1.000000e+01 1.610000e+02 7.750000e+01
      vertex   -1.000000e+01 1.560000e+02 7.750000e+01
    endloop
  endfacet
  facet normal 1.000000e+00 7.723958e-29 -1.776357e-15
    outer loop
      vertex   -1.000000e+01 1.860000e+02 1.090000e+02
      vertex   -1.000000e+01 1.860000e+02 1.140000e+02
      vertex   -1.000000e+01 1.696589e+02 1.090000e+02
    endloop
  endfacet
  facet normal 1.000000e+00 6.152543e-29 -1.776357e-15
    outer loop
      vertex   -1.000000e+01 1.696589e+02 1.090000e+02
      vertex   -1.000000e+01 1.860000e+02 1.140000e+02
      vertex   -1.000000e+01 1.640000e+02 1.610000e+02
    endloop
  endfacet
  facet normal 1.000000e+00 0.000000e+00 -1.776357e-15
    outer loop
      vertex   -1.000000e+01 1.696589e+02 1.090000e+02
      vertex   -1.000000e+01 1.640000e+02 1.610000e+02
      vertex   -1.000000e+01 1.610000e+02 1.610000e+02
    endloop
  endfacet
  facet normal 1.000000e+00 0.000000e+00 -1.776357e-15
    outer loop
      vertex   -1.000000e+01 1.860000e+02 1.140000e+02
      vertex   -1.000000e+01 1.890000e+02 1.140000e+02
      vertex   -1.000000e+01 1.640000e+02 1.610000e+02
    endloop
  endfacet
  facet normal 1.000000e+00 3.130438e-17 -1.759706e-15
    outer loop
      vertex   -1.000000e+01 1.640000e+02 1.610000e+02
      vertex   -1.000000e+01 1.890000e+02 1.140000e+02
      vertex   -1.000000e+01 2.000000e+02 2.000000e+02
    endloop
  endfacet
  facet normal 1.000000e+00 1.614870e-16 -1.776357e-15
    outer loop
      vertex   -1.000000e+01 1.890000e+02 1.140000e+02
      vertex   -1.000000e+01 1.890000e+02 1.060000e+02
      vertex   -1.000000e+01 2.000000e+02 2.000000e+02
    endloop
  endfacet
  facet normal 1.000000e+00 1.614870e-16 -1.776357e-15
    outer loop
      vertex   -1.000000e+01 2.000000e+02 2.000000e+02
      vertex   -1.000000e+01 1.890000e+02 1.060000e+02
      vertex   -1.000000e+01 2.000000e+02 1.776357e-14
    endloop
  endfacet
  facet normal 1.000000e+00 0.000000e+00 -1.776357e-15
    outer loop
      vertex   -1.000000e+01 1.400000e+01 1.090000e+02
      vertex   -1.000000e+01 1.900000e+01 1.090000e+02
      vertex   -1.000000e+01 1.400000e+01 1.140000e+02
    endloop
  endfacet
  facet normal 1.000000e+00 0.000000e+00 -1.776357e-15
    outer loop
      vertex   -1.000000e+01 1.900000e+01 1.660000e+02
      vertex   -1.000000e+01 1.400000e+01 1.660000e+02
      vertex   -1.000000e+01 1.400000e+01 1.610000e+02
    endloop
  endfacet
  facet normal 1.000000e+00 -1.614870e-16 -1.776357e-15
    outer loop
      vertex   -1.000000e+01 1.100000e+01 1.610000e+02
      vertex   -1.000000e+01 1.100000e+01 1.690000e+02
      vertex   -1.000000e+01 0.000000e+00 2.000000e+02
    endloop
  endfacet
  facet normal 1.000000e+00 0.000000e+00 -1.719055e-15
    outer loop
      vertex   -1.000000e+01 0.000000e+00 2.000000e+02
      vertex   -1.000000e+01 1.100000e+01 1.690000e+02
      vertex   -1.000000e+01 1.900000e+01 1.690000e+02
    endloop
  endfacet
  facet normal 1.000000e+00 0.000000e+00 -1.860945e-15
    outer loop
      vertex   -1.000000e+01 0.000000e+00 1.776357e-14
      vertex   -1.000000e+01 2.000000e+02 1.776357e-14
      vertex   -1.000000e+01 1.695034e+02 2.100000e+01
    endloop
  endfacet
endsolid
