solid ASCII
  facet normal 0.000000e+00 -1.903239e-16 1.000000e+00
    outer loop
      vertex   2.000000e+00 1.200000e+02 3.000000e+00
      vertex   2.000000e+00 1.060000e+02 3.000000e+00
      vertex   6.000000e+00 1.200000e+02 3.000000e+00
    endloop
  endfacet
  facet normal 0.000000e+00 -1.903239e-16 1.000000e+00
    outer loop
      vertex   6.000000e+00 1.200000e+02 3.000000e+00
      vertex   2.000000e+00 1.060000e+02 3.000000e+00
      vertex   6.000000e+00 1.060000e+02 3.000000e+00
    endloop
  endfacet
  facet normal 0.000000e+00 -1.000000e+00 1.421085e-14
    outer loop
      vertex   2.000000e+00 1.060000e+02 3.000000e+00
      vertex   2.000000e+00 1.060000e+02 -8.881784e-15
      vertex   6.000000e+00 1.060000e+02 3.000000e+00
    endloop
  endfacet
  facet normal 0.000000e+00 -1.000000e+00 1.421085e-14
    outer loop
      vertex   6.000000e+00 1.060000e+02 3.000000e+00
      vertex   2.000000e+00 1.060000e+02 -8.881784e-15
      vertex   6.000000e+00 1.060000e+02 -8.881784e-15
    endloop
  endfacet
  facet normal 1.000000e+00 -1.903239e-16 2.704666e-30
    outer loop
      vertex   6.000000e+00 1.060000e+02 3.000000e+00
      vertex   6.000000e+00 1.060000e+02 -8.881784e-15
      vertex   6.000000e+00 1.200000e+02 3.000000e+00
    endloop
  endfacet
  facet normal 1.000000e+00 -1.903239e-16 0.000000e+00
    outer loop
      vertex   6.000000e+00 1.200000e+02 3.000000e+00
      vertex   6.000000e+00 1.060000e+02 -8.881784e-15
      vertex   6.000000e+00 1.200000e+02 -1.110223e-14
    endloop
  endfacet
  facet normal 4.440892e-16 1.000000e+00 5.921189e-16
    outer loop
      vertex   2.000000e+00 5.000000e+00 0.000000e+00
      vertex   2.000000e+00 5.000000e+00 3.000000e+00
      vertex   6.000000e+00 5.000000e+00 0.000000e+00
    endloop
  endfacet
  facet normal 2.220446e-16 1.000000e+00 2.960595e-16
    outer loop
      vertex   6.000000e+00 5.000000e+00 0.000000e+00
      vertex   2.000000e+00 5.000000e+00 3.000000e+00
      vertex   6.000000e+00 5.000000e+00 3.000000e+00
    endloop
  endfacet
  facet normal 0.000000e+00 0.000000e+00 1.000000e+00
    outer loop
      vertex   2.000000e+00 5.000000e+00 3.000000e+00
      vertex   2.000000e+00 3.532840e-15 3.000000e+00
      vertex   6.000000e+00 5.000000e+00 3.000000e+00
    endloop
  endfacet
  facet normal 0.000000e+00 0.000000e+00 1.000000e+00
    outer loop
      vertex   6.000000e+00 5.000000e+00 3.000000e+00
      vertex   2.000000e+00 3.532840e-15 3.000000e+00
      vertex   6.000000e+00 2.644662e-15 3.000000e+00
    endloop
  endfacet
  facet normal 1.000000e+00 -0.000000e+00 0.000000e+00
    outer loop
      vertex   6.000000e+00 2.644662e-15 3.000000e+00
      vertex   6.000000e+00 2.644662e-15 0.000000e+00
      vertex   6.000000e+00 5.000000e+00 3.000000e+00
    endloop
  endfacet
  facet normal 1.000000e+00 0.000000e+00 0.000000e+00
    outer loop
      vertex   6.000000e+00 5.000000e+00 3.000000e+00
      vertex   6.000000e+00 2.644662e-15 0.000000e+00
      vertex   6.000000e+00 5.000000e+00 0.000000e+00
    endloop
  endfacet
  facet normal 1.000000e+00 0.000000e+00 -1.636786e-14
    outer loop
      vertex   2.000000e+00 3.532840e-15 3.000000e+00
      vertex   2.000000e+00 5.000000e+00 3.000000e+00
      vertex   2.000000e+00 0.000000e+00 1.000000e+01
    endloop
  endfacet
  facet normal 1.000000e+00 -1.973730e-17 -1.638196e-14
    outer loop
      vertex   2.000000e+00 0.000000e+00 1.000000e+01
      vertex   2.000000e+00 5.000000e+00 3.000000e+00
      vertex   2.000000e+00 4.500000e+01 1.000000e+01
    endloop
  endfacet
  facet normal 1.000000e+00 -2.886580e-15 0.000000e+00
    outer loop
      vertex   2.000000e+00 4.500000e+01 1.000000e+01
      vertex   2.000000e+00 5.000000e+00 3.000000e+00
      vertex   2.000000e+00 4.500000e+01 0.000000e+00
    endloop
  endfacet
  facet normal 1.000000e+00 -2.886580e-15 0.000000e+00
    outer loop
      vertex   2.000000e+00 4.500000e+01 0.000000e+00
      vertex   2.000000e+00 5.000000e+00 3.000000e+00
      vertex   2.000000e+00 5.000000e+00 0.000000e+00
    endloop
  endfacet
  facet normal 0.000000e+00 -1.903239e-16 1.000000e+00
    outer loop
      vertex   1.400000e+01 1.060000e+02 3.000000e+00
      vertex   1.400000e+01 1.200000e+02 3.000000e+00
      vertex   1.000000e+01 1.060000e+02 3.000000e+00
    endloop
  endfacet
  facet normal 0.000000e+00 -1.903239e-16 1.000000e+00
    outer loop
      vertex   1.000000e+01 1.060000e+02 3.000000e+00
      vertex   1.400000e+01 1.200000e+02 3.000000e+00
      vertex   1.000000e+01 1.200000e+02 3.000000e+00
    endloop
  endfacet
  facet normal 0.000000e+00 -1.000000e+00 1.421085e-14
    outer loop
      vertex   1.400000e+01 1.060000e+02 -8.881784e-15
      vertex   1.400000e+01 1.060000e+02 3.000000e+00
      vertex   1.000000e+01 1.060000e+02 -8.881784e-15
    endloop
  endfacet
  facet normal 0.000000e+00 -1.000000e+00 1.421085e-14
    outer loop
      vertex   1.000000e+01 1.060000e+02 -8.881784e-15
      vertex   1.400000e+01 1.060000e+02 3.000000e+00
      vertex   1.000000e+01 1.060000e+02 3.000000e+00
    endloop
  endfacet
  facet normal -1.000000e+00 -1.268826e-16 1.803111e-30
    outer loop
      vertex   1.000000e+01 1.060000e+02 -8.881784e-15
      vertex   1.000000e+01 1.060000e+02 3.000000e+00
      vertex   1.000000e+01 1.200000e+02 -1.110223e-14
    endloop
  endfacet
  facet normal -1.000000e+00 -1.268826e-16 0.000000e+00
    outer loop
      vertex   1.000000e+01 1.200000e+02 -1.110223e-14
      vertex   1.000000e+01 1.060000e+02 3.000000e+00
      vertex   1.000000e+01 1.200000e+02 3.000000e+00
    endloop
  endfacet
  facet normal -1.000000e+00 -1.268826e-16 -3.045183e-15
    outer loop
      vertex   1.400000e+01 1.200000e+02 3.000000e+00
      vertex   1.400000e+01 1.060000e+02 3.000000e+00
      vertex   1.400000e+01 1.200000e+02 1.000000e+01
    endloop
  endfacet
  facet normal -1.000000e+00 -9.689219e-16 -1.361105e-15
    outer loop
      vertex   1.400000e+01 1.200000e+02 1.000000e+01
      vertex   1.400000e+01 1.060000e+02 3.000000e+00
      vertex   1.400000e+01 6.500000e+01 1.000000e+01
    endloop
  endfacet
  facet normal -1.000000e+00 -7.365382e-16 -0.000000e+00
    outer loop
      vertex   1.400000e+01 6.500000e+01 1.000000e+01
      vertex   1.400000e+01 1.060000e+02 3.000000e+00
      vertex   1.400000e+01 6.500000e+01 0.000000e+00
    endloop
  endfacet
  facet normal -1.000000e+00 -7.365382e-16 9.851141e-30
    outer loop
      vertex   1.400000e+01 6.500000e+01 0.000000e+00
      vertex   1.400000e+01 1.060000e+02 3.000000e+00
      vertex   1.400000e+01 1.060000e+02 -8.881784e-15
    endloop
  endfacet
  facet normal -2.220446e-16 1.000000e+00 5.921189e-16
    outer loop
      vertex   1.400000e+01 5.000000e+00 3.000000e+00
      vertex   1.400000e+01 5.000000e+00 0.000000e+00
      vertex   1.000000e+01 5.000000e+00 3.000000e+00
    endloop
  endfacet
  facet normal -4.440892e-16 1.000000e+00 2.960595e-16
    outer loop
      vertex   1.000000e+01 5.000000e+00 3.000000e+00
      vertex   1.400000e+01 5.000000e+00 0.000000e+00
      vertex   1.000000e+01 5.000000e+00 0.000000e+00
    endloop
  endfacet
  facet normal 0.000000e+00 -0.000000e+00 1.000000e+00
    outer loop
      vertex   1.400000e+01 3.532840e-15 3.000000e+00
      vertex   1.400000e+01 5.000000e+00 3.000000e+00
      vertex   1.000000e+01 2.644662e-15 3.000000e+00
    endloop
  endfacet
  facet normal 0.000000e+00 0.000000e+00 1.000000e+00
    outer loop
      vertex   1.000000e+01 2.644662e-15 3.000000e+00
      vertex   1.400000e+01 5.000000e+00 3.000000e+00
      vertex   1.000000e+01 5.000000e+00 3.000000e+00
    endloop
  endfacet
  facet normal -1.000000e+00 0.000000e+00 0.000000e+00
    outer loop
      vertex   1.000000e+01 2.644662e-15 0.000000e+00
      vertex   1.000000e+01 2.644662e-15 3.000000e+00
      vertex   1.000000e+01 5.000000e+00 0.000000e+00
    endloop
  endfacet
  facet normal -1.000000e+00 0.000000e+00 0.000000e+00
    outer loop
      vertex   1.000000e+01 5.000000e+00 0.000000e+00
      vertex   1.000000e+01 2.644662e-15 3.000000e+00
      vertex   1.000000e+01 5.000000e+00 3.000000e+00
    endloop
  endfacet
  facet normal -1.000000e+00 0.000000e+00 1.776357e-15
    outer loop
      vertex   1.400000e+01 3.532840e-15 3.000000e+00
      vertex   1.400000e+01 0.000000e+00 1.000000e+01
      vertex   1.400000e+01 5.000000e+00 3.000000e+00
    endloop
  endfacet
  facet normal -1.000000e+00 -1.065814e-15 1.015061e-15
    outer loop
      vertex   1.400000e+01 5.000000e+00 3.000000e+00
      vertex   1.400000e+01 0.000000e+00 1.000000e+01
      vertex   1.400000e+01 4.500000e+01 1.000000e+01
    endloop
  endfacet
  facet normal -1.000000e+00 -8.881784e-16 0.000000e+00
    outer loop
      vertex   1.400000e+01 5.000000e+00 3.000000e+00
      vertex   1.400000e+01 4.500000e+01 1.000000e+01
      vertex   1.400000e+01 4.500000e+01 0.000000e+00
    endloop
  endfacet
  facet normal -1.000000e+00 -8.881784e-16 0.000000e+00
    outer loop
      vertex   1.400000e+01 4.500000e+01 0.000000e+00
      vertex   1.400000e+01 5.000000e+00 0.000000e+00
      vertex   1.400000e+01 5.000000e+00 3.000000e+00
    endloop
  endfacet
  facet normal -9.989931e-01 -4.486483e-02 0.000000e+00
    outer loop
      vertex   1.400000e+01 4.500000e+01 0.000000e+00
      vertex   1.400000e+01 4.500000e+01 1.000000e+01
      vertex   1.397585e+01 4.553784e+01 0.000000e+00
    endloop
  endfacet
  facet normal -9.989931e-01 -4.486483e-02 0.000000e+00
    outer loop
      vertex   1.397585e+01 4.553784e+01 0.000000e+00
      vertex   1.400000e+01 4.500000e+01 1.000000e+01
      vertex   1.397585e+01 4.553784e+01 1.000000e+01
    endloop
  endfacet
  facet normal -9.909498e-01 -1.342333e-01 0.000000e+00
    outer loop
      vertex   1.397585e+01 4.553784e+01 0.000000e+00
      vertex   1.397585e+01 4.553784e+01 1.000000e+01
      vertex   1.390358e+01 4.607134e+01 0.000000e+00
    endloop
  endfacet
  facet normal -9.909498e-01 -1.342333e-01 0.000000e+00
    outer loop
      vertex   1.390358e+01 4.607134e+01 0.000000e+00
      vertex   1.397585e+01 4.553784e+01 1.000000e+01
      vertex   1.390358e+01 4.607134e+01 1.000000e+01
    endloop
  endfacet
  facet normal -9.749279e-01 -2.225209e-01 0.000000e+00
    outer loop
      vertex   1.390358e+01 4.607134e+01 0.000000e+00
      vertex   1.390358e+01 4.607134e+01 1.000000e+01
      vertex   1.378378e+01 4.659622e+01 0.000000e+00
    endloop
  endfacet
  facet normal -9.749279e-01 -2.225209e-01 0.000000e+00
    outer loop
      vertex   1.378378e+01 4.659622e+01 0.000000e+00
      vertex   1.390358e+01 4.607134e+01 1.000000e+01
      vertex   1.378378e+01 4.659622e+01 1.000000e+01
    endloop
  endfacet
  facet normal -9.510565e-01 -3.090170e-01 0.000000e+00
    outer loop
      vertex   1.378378e+01 4.659622e+01 0.000000e+00
      vertex   1.378378e+01 4.659622e+01 1.000000e+01
      vertex   1.361741e+01 4.710825e+01 0.000000e+00
    endloop
  endfacet
  facet normal -9.510565e-01 -3.090170e-01 0.000000e+00
    outer loop
      vertex   1.361741e+01 4.710825e+01 0.000000e+00
      vertex   1.378378e+01 4.659622e+01 1.000000e+01
      vertex   1.361741e+01 4.710825e+01 1.000000e+01
    endloop
  endfacet
  facet normal -9.195278e-01 -3.930250e-01 0.000000e+00
    outer loop
      vertex   1.361741e+01 4.710825e+01 0.000000e+00
      vertex   1.361741e+01 4.710825e+01 1.000000e+01
      vertex   1.340581e+01 4.760330e+01 0.000000e+00
    endloop
  endfacet
  facet normal -9.195278e-01 -3.930250e-01 0.000000e+00
    outer loop
      vertex   1.340581e+01 4.760330e+01 0.000000e+00
      vertex   1.361741e+01 4.710825e+01 1.000000e+01
      vertex   1.340581e+01 4.760330e+01 1.000000e+01
    endloop
  endfacet
  facet normal -8.805955e-01 -4.738687e-01 0.000000e+00
    outer loop
      vertex   1.340581e+01 4.760330e+01 0.000000e+00
      vertex   1.340581e+01 4.760330e+01 1.000000e+01
      vertex   1.315069e+01 4.807740e+01 0.000000e+00
    endloop
  endfacet
  facet normal -8.805955e-01 -4.738687e-01 0.000000e+00
    outer loop
      vertex   1.315069e+01 4.807740e+01 0.000000e+00
      vertex   1.340581e+01 4.760330e+01 1.000000e+01
      vertex   1.315069e+01 4.807740e+01 1.000000e+01
    endloop
  endfacet
  facet normal -8.345733e-01 -5.508970e-01 0.000000e+00
    outer loop
      vertex   1.315069e+01 4.807740e+01 0.000000e+00
      vertex   1.315069e+01 4.807740e+01 1.000000e+01
      vertex   1.285410e+01 4.852671e+01 0.000000e+00
    endloop
  endfacet
  facet normal -8.345733e-01 -5.508970e-01 0.000000e+00
    outer loop
      vertex   1.285410e+01 4.852671e+01 0.000000e+00
      vertex   1.315069e+01 4.807740e+01 1.000000e+01
      vertex   1.285410e+01 4.852671e+01 1.000000e+01
    endloop
  endfacet
  facet normal -7.818315e-01 -6.234898e-01 0.000000e+00
    outer loop
      vertex   1.285410e+01 4.852671e+01 0.000000e+00
      vertex   1.285410e+01 4.852671e+01 1.000000e+01
      vertex   1.251843e+01 4.894763e+01 0.000000e+00
    endloop
  endfacet
  facet normal -7.818315e-01 -6.234898e-01 0.000000e+00
    outer loop
      vertex   1.251843e+01 4.894763e+01 0.000000e+00
      vertex   1.285410e+01 4.852671e+01 1.000000e+01
      vertex   1.251843e+01 4.894763e+01 1.000000e+01
    endloop
  endfacet
  facet normal -7.227949e-01 -6.910626e-01 0.000000e+00
    outer loop
      vertex   1.251843e+01 4.894763e+01 0.000000e+00
      vertex   1.251843e+01 4.894763e+01 1.000000e+01
      vertex   1.214638e+01 4.933677e+01 0.000000e+00
    endloop
  endfacet
  facet normal -7.227949e-01 -6.910626e-01 0.000000e+00
    outer loop
      vertex   1.214638e+01 4.933677e+01 0.000000e+00
      vertex   1.251843e+01 4.894763e+01 1.000000e+01
      vertex   1.214638e+01 4.933677e+01 1.000000e+01
    endloop
  endfacet
  facet normal -6.579387e-01 -7.530715e-01 0.000000e+00
    outer loop
      vertex   1.214638e+01 4.933677e+01 0.000000e+00
      vertex   1.214638e+01 4.933677e+01 1.000000e+01
      vertex   1.174094e+01 4.969099e+01 0.000000e+00
    endloop
  endfacet
  facet normal -6.579387e-01 -7.530715e-01 0.000000e+00
    outer loop
      vertex   1.174094e+01 4.969099e+01 0.000000e+00
      vertex   1.214638e+01 4.933677e+01 1.000000e+01
      vertex   1.174094e+01 4.969099e+01 1.000000e+01
    endloop
  endfacet
  facet normal -5.877853e-01 -8.090170e-01 0.000000e+00
    outer loop
      vertex   1.174094e+01 4.969099e+01 0.000000e+00
      vertex   1.174094e+01 4.969099e+01 1.000000e+01
      vertex   1.130538e+01 5.000744e+01 0.000000e+00
    endloop
  endfacet
  facet normal -5.877853e-01 -8.090170e-01 0.000000e+00
    outer loop
      vertex   1.130538e+01 5.000744e+01 0.000000e+00
      vertex   1.174094e+01 4.969099e+01 1.000000e+01
      vertex   1.130538e+01 5.000744e+01 1.000000e+01
    endloop
  endfacet
  facet normal -5.128993e-01 -8.584488e-01 0.000000e+00
    outer loop
      vertex   1.130538e+01 5.000744e+01 0.000000e+00
      vertex   1.130538e+01 5.000744e+01 1.000000e+01
      vertex   1.084321e+01 5.028357e+01 0.000000e+00
    endloop
  endfacet
  facet normal -5.128993e-01 -8.584488e-01 0.000000e+00
    outer loop
      vertex   1.084321e+01 5.028357e+01 0.000000e+00
      vertex   1.130538e+01 5.000744e+01 1.000000e+01
      vertex   1.084321e+01 5.028357e+01 1.000000e+01
    endloop
  endfacet
  facet normal -4.338837e-01 -9.009689e-01 0.000000e+00
    outer loop
      vertex   1.084321e+01 5.028357e+01 0.000000e+00
      vertex   1.084321e+01 5.028357e+01 1.000000e+01
      vertex   1.035815e+01 5.051717e+01 0.000000e+00
    endloop
  endfacet
  facet normal -4.338837e-01 -9.009689e-01 0.000000e+00
    outer loop
      vertex   1.035815e+01 5.051717e+01 0.000000e+00
      vertex   1.084321e+01 5.028357e+01 1.000000e+01
      vertex   1.035815e+01 5.051717e+01 1.000000e+01
    endloop
  endfacet
  facet normal -3.513748e-01 -9.362349e-01 0.000000e+00
    outer loop
      vertex   1.035815e+01 5.051717e+01 0.000000e+00
      vertex   1.035815e+01 5.051717e+01 1.000000e+01
      vertex   9.854102e+00 5.070634e+01 0.000000e+00
    endloop
  endfacet
  facet normal -3.513748e-01 -9.362349e-01 0.000000e+00
    outer loop
      vertex   9.854102e+00 5.070634e+01 0.000000e+00
      vertex   1.035815e+01 5.051717e+01 1.000000e+01
      vertex   9.854102e+00 5.070634e+01 1.000000e+01
    endloop
  endfacet
  facet normal -2.660368e-01 -9.639629e-01 0.000000e+00
    outer loop
      vertex   9.854102e+00 5.070634e+01 0.000000e+00
      vertex   9.854102e+00 5.070634e+01 1.000000e+01
      vertex   9.335126e+00 5.084957e+01 0.000000e+00
    endloop
  endfacet
  facet normal -2.660368e-01 -9.639629e-01 0.000000e+00
    outer loop
      vertex   9.335126e+00 5.084957e+01 0.000000e+00
      vertex   9.854102e+00 5.070634e+01 1.000000e+01
      vertex   9.335126e+00 5.084957e+01 1.000000e+01
    endloop
  endfacet
  facet normal -1.785569e-01 -9.839296e-01 0.000000e+00
    outer loop
      vertex   9.335126e+00 5.084957e+01 0.000000e+00
      vertex   9.335126e+00 5.084957e+01 1.000000e+01
      vertex   8.805400e+00 5.094570e+01 0.000000e+00
    endloop
  endfacet
  facet normal -1.785569e-01 -9.839296e-01 0.000000e+00
    outer loop
      vertex   8.805400e+00 5.094570e+01 0.000000e+00
      vertex   9.335126e+00 5.084957e+01 1.000000e+01
      vertex   8.805400e+00 5.094570e+01 1.000000e+01
    endloop
  endfacet
  facet normal -8.963931e-02 -9.959743e-01 0.000000e+00
    outer loop
      vertex   8.805400e+00 5.094570e+01 0.000000e+00
      vertex   8.805400e+00 5.094570e+01 1.000000e+01
      vertex   8.269189e+00 5.099396e+01 0.000000e+00
    endloop
  endfacet
  facet normal -8.963931e-02 -9.959743e-01 0.000000e+00
    outer loop
      vertex   8.269189e+00 5.099396e+01 0.000000e+00
      vertex   8.805400e+00 5.094570e+01 1.000000e+01
      vertex   8.269189e+00 5.099396e+01 1.000000e+01
    endloop
  endfacet
  facet normal 0.000000e+00 -1.000000e+00 0.000000e+00
    outer loop
      vertex   8.269189e+00 5.099396e+01 0.000000e+00
      vertex   8.269189e+00 5.099396e+01 1.000000e+01
      vertex   7.730811e+00 5.099396e+01 0.000000e+00
    endloop
  endfacet
  facet normal 0.000000e+00 -1.000000e+00 0.000000e+00
    outer loop
      vertex   7.730811e+00 5.099396e+01 0.000000e+00
      vertex   8.269189e+00 5.099396e+01 1.000000e+01
      vertex   7.730811e+00 5.099396e+01 1.000000e+01
    endloop
  endfacet
  facet normal 8.963931e-02 -9.959743e-01 0.000000e+00
    outer loop
      vertex   7.730811e+00 5.099396e+01 0.000000e+00
      vertex   7.730811e+00 5.099396e+01 1.000000e+01
      vertex   7.194600e+00 5.094570e+01 0.000000e+00
    endloop
  endfacet
  facet normal 8.963931e-02 -9.959743e-01 0.000000e+00
    outer loop
      vertex   7.194600e+00 5.094570e+01 0.000000e+00
      vertex   7.730811e+00 5.099396e+01 1.000000e+01
      vertex   7.194600e+00 5.094570e+01 1.000000e+01
    endloop
  endfacet
  facet normal 1.785569e-01 -9.839296e-01 0.000000e+00
    outer loop
      vertex   7.194600e+00 5.094570e+01 0.000000e+00
      vertex   7.194600e+00 5.094570e+01 1.000000e+01
      vertex   6.664874e+00 5.084957e+01 0.000000e+00
    endloop
  endfacet
  facet normal 1.785569e-01 -9.839296e-01 0.000000e+00
    outer loop
      vertex   6.664874e+00 5.084957e+01 0.000000e+00
      vertex   7.194600e+00 5.094570e+01 1.000000e+01
      vertex   6.664874e+00 5.084957e+01 1.000000e+01
    endloop
  endfacet
  facet normal 2.660368e-01 -9.639629e-01 0.000000e+00
    outer loop
      vertex   6.664874e+00 5.084957e+01 0.000000e+00
      vertex   6.664874e+00 5.084957e+01 1.000000e+01
      vertex   6.145898e+00 5.070634e+01 0.000000e+00
    endloop
  endfacet
  facet normal 2.660368e-01 -9.639629e-01 0.000000e+00
    outer loop
      vertex   6.145898e+00 5.070634e+01 0.000000e+00
      vertex   6.664874e+00 5.084957e+01 1.000000e+01
      vertex   6.145898e+00 5.070634e+01 1.000000e+01
    endloop
  endfacet
  facet normal 3.513748e-01 -9.362349e-01 0.000000e+00
    outer loop
      vertex   6.145898e+00 5.070634e+01 0.000000e+00
      vertex   6.145898e+00 5.070634e+01 1.000000e+01
      vertex   5.641850e+00 5.051717e+01 0.000000e+00
    endloop
  endfacet
  facet normal 3.513748e-01 -9.362349e-01 0.000000e+00
    outer loop
      vertex   5.641850e+00 5.051717e+01 0.000000e+00
      vertex   6.145898e+00 5.070634e+01 1.000000e+01
      vertex   5.641850e+00 5.051717e+01 1.000000e+01
    endloop
  endfacet
  facet normal 4.338837e-01 -9.009689e-01 0.000000e+00
    outer loop
      vertex   5.641850e+00 5.051717e+01 0.000000e+00
      vertex   5.641850e+00 5.051717e+01 1.000000e+01
      vertex   5.156788e+00 5.028357e+01 0.000000e+00
    endloop
  endfacet
  facet normal 4.338837e-01 -9.009689e-01 0.000000e+00
    outer loop
      vertex   5.156788e+00 5.028357e+01 0.000000e+00
      vertex   5.641850e+00 5.051717e+01 1.000000e+01
      vertex   5.156788e+00 5.028357e+01 1.000000e+01
    endloop
  endfacet
  facet normal 5.128993e-01 -8.584488e-01 0.000000e+00
    outer loop
      vertex   5.156788e+00 5.028357e+01 0.000000e+00
      vertex   5.156788e+00 5.028357e+01 1.000000e+01
      vertex   4.694618e+00 5.000744e+01 0.000000e+00
    endloop
  endfacet
  facet normal 5.128993e-01 -8.584488e-01 0.000000e+00
    outer loop
      vertex   4.694618e+00 5.000744e+01 0.000000e+00
      vertex   5.156788e+00 5.028357e+01 1.000000e+01
      vertex   4.694618e+00 5.000744e+01 1.000000e+01
    endloop
  endfacet
  facet normal 5.877853e-01 -8.090170e-01 0.000000e+00
    outer loop
      vertex   4.694618e+00 5.000744e+01 0.000000e+00
      vertex   4.694618e+00 5.000744e+01 1.000000e+01
      vertex   4.259061e+00 4.969099e+01 0.000000e+00
    endloop
  endfacet
  facet normal 5.877853e-01 -8.090170e-01 0.000000e+00
    outer loop
      vertex   4.259061e+00 4.969099e+01 0.000000e+00
      vertex   4.694618e+00 5.000744e+01 1.000000e+01
      vertex   4.259061e+00 4.969099e+01 1.000000e+01
    endloop
  endfacet
  facet normal 6.579387e-01 -7.530715e-01 0.000000e+00
    outer loop
      vertex   4.259061e+00 4.969099e+01 0.000000e+00
      vertex   4.259061e+00 4.969099e+01 1.000000e+01
      vertex   3.853624e+00 4.933677e+01 0.000000e+00
    endloop
  endfacet
  facet normal 6.579387e-01 -7.530715e-01 0.000000e+00
    outer loop
      vertex   3.853624e+00 4.933677e+01 0.000000e+00
      vertex   4.259061e+00 4.969099e+01 1.000000e+01
      vertex   3.853624e+00 4.933677e+01 1.000000e+01
    endloop
  endfacet
  facet normal 7.227949e-01 -6.910626e-01 0.000000e+00
    outer loop
      vertex   3.853624e+00 4.933677e+01 0.000000e+00
      vertex   3.853624e+00 4.933677e+01 1.000000e+01
      vertex   3.481571e+00 4.894763e+01 0.000000e+00
    endloop
  endfacet
  facet normal 7.227949e-01 -6.910626e-01 0.000000e+00
    outer loop
      vertex   3.481571e+00 4.894763e+01 0.000000e+00
      vertex   3.853624e+00 4.933677e+01 1.000000e+01
      vertex   3.481571e+00 4.894763e+01 1.000000e+01
    endloop
  endfacet
  facet normal 7.818315e-01 -6.234898e-01 0.000000e+00
    outer loop
      vertex   3.481571e+00 4.894763e+01 0.000000e+00
      vertex   3.481571e+00 4.894763e+01 1.000000e+01
      vertex   3.145898e+00 4.852671e+01 0.000000e+00
    endloop
  endfacet
  facet normal 7.818315e-01 -6.234898e-01 0.000000e+00
    outer loop
      vertex   3.145898e+00 4.852671e+01 0.000000e+00
      vertex   3.481571e+00 4.894763e+01 1.000000e+01
      vertex   3.145898e+00 4.852671e+01 1.000000e+01
    endloop
  endfacet
  facet normal 8.345733e-01 -5.508970e-01 0.000000e+00
    outer loop
      vertex   3.145898e+00 4.852671e+01 0.000000e+00
      vertex   3.145898e+00 4.852671e+01 1.000000e+01
      vertex   2.849307e+00 4.807740e+01 0.000000e+00
    endloop
  endfacet
  facet normal 8.345733e-01 -5.508970e-01 0.000000e+00
    outer loop
      vertex   2.849307e+00 4.807740e+01 0.000000e+00
      vertex   3.145898e+00 4.852671e+01 1.000000e+01
      vertex   2.849307e+00 4.807740e+01 1.000000e+01
    endloop
  endfacet
  facet normal 8.805955e-01 -4.738687e-01 0.000000e+00
    outer loop
      vertex   2.849307e+00 4.807740e+01 0.000000e+00
      vertex   2.849307e+00 4.807740e+01 1.000000e+01
      vertex   2.594187e+00 4.760330e+01 0.000000e+00
    endloop
  endfacet
  facet normal 8.805955e-01 -4.738687e-01 0.000000e+00
    outer loop
      vertex   2.594187e+00 4.760330e+01 0.000000e+00
      vertex   2.849307e+00 4.807740e+01 1.000000e+01
      vertex   2.594187e+00 4.760330e+01 1.000000e+01
    endloop
  endfacet
  facet normal 9.195278e-01 -3.930250e-01 0.000000e+00
    outer loop
      vertex   2.594187e+00 4.760330e+01 0.000000e+00
      vertex   2.594187e+00 4.760330e+01 1.000000e+01
      vertex   2.382591e+00 4.710825e+01 0.000000e+00
    endloop
  endfacet
  facet normal 9.195278e-01 -3.930250e-01 0.000000e+00
    outer loop
      vertex   2.382591e+00 4.710825e+01 0.000000e+00
      vertex   2.594187e+00 4.760330e+01 1.000000e+01
      vertex   2.382591e+00 4.710825e+01 1.000000e+01
    endloop
  endfacet
  facet normal 9.510565e-01 -3.090170e-01 0.000000e+00
    outer loop
      vertex   2.382591e+00 4.710825e+01 0.000000e+00
      vertex   2.382591e+00 4.710825e+01 1.000000e+01
      vertex   2.216223e+00 4.659622e+01 0.000000e+00
    endloop
  endfacet
  facet normal 9.510565e-01 -3.090170e-01 0.000000e+00
    outer loop
      vertex   2.216223e+00 4.659622e+01 0.000000e+00
      vertex   2.382591e+00 4.710825e+01 1.000000e+01
      vertex   2.216223e+00 4.659622e+01 1.000000e+01
    endloop
  endfacet
  facet normal 9.749279e-01 -2.225209e-01 0.000000e+00
    outer loop
      vertex   2.216223e+00 4.659622e+01 0.000000e+00
      vertex   2.216223e+00 4.659622e+01 1.000000e+01
      vertex   2.096422e+00 4.607134e+01 0.000000e+00
    endloop
  endfacet
  facet normal 9.749279e-01 -2.225209e-01 0.000000e+00
    outer loop
      vertex   2.096422e+00 4.607134e+01 0.000000e+00
      vertex   2.216223e+00 4.659622e+01 1.000000e+01
      vertex   2.096422e+00 4.607134e+01 1.000000e+01
    endloop
  endfacet
  facet normal 9.909498e-01 -1.342333e-01 0.000000e+00
    outer loop
      vertex   2.096422e+00 4.607134e+01 0.000000e+00
      vertex   2.096422e+00 4.607134e+01 1.000000e+01
      vertex   2.024154e+00 4.553784e+01 0.000000e+00
    endloop
  endfacet
  facet normal 9.909498e-01 -1.342333e-01 0.000000e+00
    outer loop
      vertex   2.024154e+00 4.553784e+01 0.000000e+00
      vertex   2.096422e+00 4.607134e+01 1.000000e+01
      vertex   2.024154e+00 4.553784e+01 1.000000e+01
    endloop
  endfacet
  facet normal 9.989931e-01 -4.486483e-02 0.000000e+00
    outer loop
      vertex   2.024154e+00 4.553784e+01 0.000000e+00
      vertex   2.024154e+00 4.553784e+01 1.000000e+01
      vertex   2.000000e+00 4.500000e+01 0.000000e+00
    endloop
  endfacet
  facet normal 9.989931e-01 -4.486483e-02 0.000000e+00
    outer loop
      vertex   2.000000e+00 4.500000e+01 0.000000e+00
      vertex   2.024154e+00 4.553784e+01 1.000000e+01
      vertex   2.000000e+00 4.500000e+01 1.000000e+01
    endloop
  endfacet
  facet normal 1.000000e+00 -1.586033e-16 -3.616155e-15
    outer loop
      vertex   2.000000e+00 1.200000e+02 3.000000e+00
      vertex   2.000000e+00 1.200000e+02 1.000000e+01
      vertex   2.000000e+00 1.060000e+02 3.000000e+00
    endloop
  endfacet
  facet normal 1.000000e+00 2.422305e-17 -3.981808e-15
    outer loop
      vertex   2.000000e+00 1.060000e+02 3.000000e+00
      vertex   2.000000e+00 1.200000e+02 1.000000e+01
      vertex   2.000000e+00 6.500000e+01 1.000000e+01
    endloop
  endfacet
  facet normal 1.000000e+00 7.040439e-16 0.000000e+00
    outer loop
      vertex   2.000000e+00 1.060000e+02 3.000000e+00
      vertex   2.000000e+00 6.500000e+01 1.000000e+01
      vertex   2.000000e+00 6.500000e+01 0.000000e+00
    endloop
  endfacet
  facet normal 1.000000e+00 7.040439e-16 -9.851141e-30
    outer loop
      vertex   2.000000e+00 6.500000e+01 0.000000e+00
      vertex   2.000000e+00 1.060000e+02 -8.881784e-15
      vertex   2.000000e+00 1.060000e+02 3.000000e+00
    endloop
  endfacet
  facet normal 9.989931e-01 4.486483e-02 -0.000000e+00
    outer loop
      vertex   2.000000e+00 6.500000e+01 0.000000e+00
      vertex   2.000000e+00 6.500000e+01 1.000000e+01
      vertex   2.024154e+00 6.446216e+01 0.000000e+00
    endloop
  endfacet
  facet normal 9.989931e-01 4.486483e-02 -0.000000e+00
    outer loop
      vertex   2.024154e+00 6.446216e+01 0.000000e+00
      vertex   2.000000e+00 6.500000e+01 1.000000e+01
      vertex   2.024154e+00 6.446216e+01 1.000000e+01
    endloop
  endfacet
  facet normal 9.909498e-01 1.342333e-01 -0.000000e+00
    outer loop
      vertex   2.024154e+00 6.446216e+01 0.000000e+00
      vertex   2.024154e+00 6.446216e+01 1.000000e+01
      vertex   2.096422e+00 6.392866e+01 0.000000e+00
    endloop
  endfacet
  facet normal 9.909498e-01 1.342333e-01 -0.000000e+00
    outer loop
      vertex   2.096422e+00 6.392866e+01 0.000000e+00
      vertex   2.024154e+00 6.446216e+01 1.000000e+01
      vertex   2.096422e+00 6.392866e+01 1.000000e+01
    endloop
  endfacet
  facet normal 9.749279e-01 2.225209e-01 -0.000000e+00
    outer loop
      vertex   2.096422e+00 6.392866e+01 0.000000e+00
      vertex   2.096422e+00 6.392866e+01 1.000000e+01
      vertex   2.216223e+00 6.340378e+01 0.000000e+00
    endloop
  endfacet
  facet normal 9.749279e-01 2.225209e-01 -0.000000e+00
    outer loop
      vertex   2.216223e+00 6.340378e+01 0.000000e+00
      vertex   2.096422e+00 6.392866e+01 1.000000e+01
      vertex   2.216223e+00 6.340378e+01 1.000000e+01
    endloop
  endfacet
  facet normal 9.510565e-01 3.090170e-01 -0.000000e+00
    outer loop
      vertex   2.216223e+00 6.340378e+01 0.000000e+00
      vertex   2.216223e+00 6.340378e+01 1.000000e+01
      vertex   2.382591e+00 6.289175e+01 0.000000e+00
    endloop
  endfacet
  facet normal 9.510565e-01 3.090170e-01 -0.000000e+00
    outer loop
      vertex   2.382591e+00 6.289175e+01 0.000000e+00
      vertex   2.216223e+00 6.340378e+01 1.000000e+01
      vertex   2.382591e+00 6.289175e+01 1.000000e+01
    endloop
  endfacet
  facet normal 9.195278e-01 3.930250e-01 -0.000000e+00
    outer loop
      vertex   2.382591e+00 6.289175e+01 0.000000e+00
      vertex   2.382591e+00 6.289175e+01 1.000000e+01
      vertex   2.594187e+00 6.239670e+01 0.000000e+00
    endloop
  endfacet
  facet normal 9.195278e-01 3.930250e-01 -0.000000e+00
    outer loop
      vertex   2.594187e+00 6.239670e+01 0.000000e+00
      vertex   2.382591e+00 6.289175e+01 1.000000e+01
      vertex   2.594187e+00 6.239670e+01 1.000000e+01
    endloop
  endfacet
  facet normal 8.805955e-01 4.738687e-01 -0.000000e+00
    outer loop
      vertex   2.594187e+00 6.239670e+01 0.000000e+00
      vertex   2.594187e+00 6.239670e+01 1.000000e+01
      vertex   2.849307e+00 6.192260e+01 0.000000e+00
    endloop
  endfacet
  facet normal 8.805955e-01 4.738687e-01 -0.000000e+00
    outer loop
      vertex   2.849307e+00 6.192260e+01 0.000000e+00
      vertex   2.594187e+00 6.239670e+01 1.000000e+01
      vertex   2.849307e+00 6.192260e+01 1.000000e+01
    endloop
  endfacet
  facet normal 8.345733e-01 5.508970e-01 -0.000000e+00
    outer loop
      vertex   2.849307e+00 6.192260e+01 0.000000e+00
      vertex   2.849307e+00 6.192260e+01 1.000000e+01
      vertex   3.145898e+00 6.147329e+01 0.000000e+00
    endloop
  endfacet
  facet normal 8.345733e-01 5.508970e-01 -0.000000e+00
    outer loop
      vertex   3.145898e+00 6.147329e+01 0.000000e+00
      vertex   2.849307e+00 6.192260e+01 1.000000e+01
      vertex   3.145898e+00 6.147329e+01 1.000000e+01
    endloop
  endfacet
  facet normal 7.818315e-01 6.234898e-01 -0.000000e+00
    outer loop
      vertex   3.145898e+00 6.147329e+01 0.000000e+00
      vertex   3.145898e+00 6.147329e+01 1.000000e+01
      vertex   3.481571e+00 6.105237e+01 0.000000e+00
    endloop
  endfacet
  facet normal 7.818315e-01 6.234898e-01 -0.000000e+00
    outer loop
      vertex   3.481571e+00 6.105237e+01 0.000000e+00
      vertex   3.145898e+00 6.147329e+01 1.000000e+01
      vertex   3.481571e+00 6.105237e+01 1.000000e+01
    endloop
  endfacet
  facet normal 7.227949e-01 6.910626e-01 -0.000000e+00
    outer loop
      vertex   3.481571e+00 6.105237e+01 0.000000e+00
      vertex   3.481571e+00 6.105237e+01 1.000000e+01
      vertex   3.853624e+00 6.066323e+01 0.000000e+00
    endloop
  endfacet
  facet normal 7.227949e-01 6.910626e-01 -0.000000e+00
    outer loop
      vertex   3.853624e+00 6.066323e+01 0.000000e+00
      vertex   3.481571e+00 6.105237e+01 1.000000e+01
      vertex   3.853624e+00 6.066323e+01 1.000000e+01
    endloop
  endfacet
  facet normal 6.579387e-01 7.530715e-01 -0.000000e+00
    outer loop
      vertex   3.853624e+00 6.066323e+01 0.000000e+00
      vertex   3.853624e+00 6.066323e+01 1.000000e+01
      vertex   4.259061e+00 6.030901e+01 0.000000e+00
    endloop
  endfacet
  facet normal 6.579387e-01 7.530715e-01 -0.000000e+00
    outer loop
      vertex   4.259061e+00 6.030901e+01 0.000000e+00
      vertex   3.853624e+00 6.066323e+01 1.000000e+01
      vertex   4.259061e+00 6.030901e+01 1.000000e+01
    endloop
  endfacet
  facet normal 5.877853e-01 8.090170e-01 -0.000000e+00
    outer loop
      vertex   4.259061e+00 6.030901e+01 0.000000e+00
      vertex   4.259061e+00 6.030901e+01 1.000000e+01
      vertex   4.694618e+00 5.999256e+01 0.000000e+00
    endloop
  endfacet
  facet normal 5.877853e-01 8.090170e-01 -0.000000e+00
    outer loop
      vertex   4.694618e+00 5.999256e+01 0.000000e+00
      vertex   4.259061e+00 6.030901e+01 1.000000e+01
      vertex   4.694618e+00 5.999256e+01 1.000000e+01
    endloop
  endfacet
  facet normal 5.128993e-01 8.584488e-01 -0.000000e+00
    outer loop
      vertex   4.694618e+00 5.999256e+01 0.000000e+00
      vertex   4.694618e+00 5.999256e+01 1.000000e+01
      vertex   5.156788e+00 5.971643e+01 0.000000e+00
    endloop
  endfacet
  facet normal 5.128993e-01 8.584488e-01 -0.000000e+00
    outer loop
      vertex   5.156788e+00 5.971643e+01 0.000000e+00
      vertex   4.694618e+00 5.999256e+01 1.000000e+01
      vertex   5.156788e+00 5.971643e+01 1.000000e+01
    endloop
  endfacet
  facet normal 4.338837e-01 9.009689e-01 -0.000000e+00
    outer loop
      vertex   5.156788e+00 5.971643e+01 0.000000e+00
      vertex   5.156788e+00 5.971643e+01 1.000000e+01
      vertex   5.641850e+00 5.948283e+01 0.000000e+00
    endloop
  endfacet
  facet normal 4.338837e-01 9.009689e-01 -0.000000e+00
    outer loop
      vertex   5.641850e+00 5.948283e+01 0.000000e+00
      vertex   5.156788e+00 5.971643e+01 1.000000e+01
      vertex   5.641850e+00 5.948283e+01 1.000000e+01
    endloop
  endfacet
  facet normal 3.513748e-01 9.362349e-01 -0.000000e+00
    outer loop
      vertex   5.641850e+00 5.948283e+01 0.000000e+00
      vertex   5.641850e+00 5.948283e+01 1.000000e+01
      vertex   6.145898e+00 5.929366e+01 0.000000e+00
    endloop
  endfacet
  facet normal 3.513748e-01 9.362349e-01 -0.000000e+00
    outer loop
      vertex   6.145898e+00 5.929366e+01 0.000000e+00
      vertex   5.641850e+00 5.948283e+01 1.000000e+01
      vertex   6.145898e+00 5.929366e+01 1.000000e+01
    endloop
  endfacet
  facet normal 2.660368e-01 9.639629e-01 -0.000000e+00
    outer loop
      vertex   6.145898e+00 5.929366e+01 0.000000e+00
      vertex   6.145898e+00 5.929366e+01 1.000000e+01
      vertex   6.664874e+00 5.915043e+01 0.000000e+00
    endloop
  endfacet
  facet normal 2.660368e-01 9.639629e-01 -0.000000e+00
    outer loop
      vertex   6.664874e+00 5.915043e+01 0.000000e+00
      vertex   6.145898e+00 5.929366e+01 1.000000e+01
      vertex   6.664874e+00 5.915043e+01 1.000000e+01
    endloop
  endfacet
  facet normal 1.785569e-01 9.839296e-01 -0.000000e+00
    outer loop
      vertex   6.664874e+00 5.915043e+01 0.000000e+00
      vertex   6.664874e+00 5.915043e+01 1.000000e+01
      vertex   7.194600e+00 5.905430e+01 0.000000e+00
    endloop
  endfacet
  facet normal 1.785569e-01 9.839296e-01 -0.000000e+00
    outer loop
      vertex   7.194600e+00 5.905430e+01 0.000000e+00
      vertex   6.664874e+00 5.915043e+01 1.000000e+01
      vertex   7.194600e+00 5.905430e+01 1.000000e+01
    endloop
  endfacet
  facet normal 8.963931e-02 9.959743e-01 -0.000000e+00
    outer loop
      vertex   7.194600e+00 5.905430e+01 0.000000e+00
      vertex   7.194600e+00 5.905430e+01 1.000000e+01
      vertex   7.730811e+00 5.900604e+01 0.000000e+00
    endloop
  endfacet
  facet normal 8.963931e-02 9.959743e-01 -0.000000e+00
    outer loop
      vertex   7.730811e+00 5.900604e+01 0.000000e+00
      vertex   7.194600e+00 5.905430e+01 1.000000e+01
      vertex   7.730811e+00 5.900604e+01 1.000000e+01
    endloop
  endfacet
  facet normal 0.000000e+00 1.000000e+00 0.000000e+00
    outer loop
      vertex   7.730811e+00 5.900604e+01 0.000000e+00
      vertex   7.730811e+00 5.900604e+01 1.000000e+01
      vertex   8.269189e+00 5.900604e+01 0.000000e+00
    endloop
  endfacet
  facet normal 0.000000e+00 1.000000e+00 -0.000000e+00
    outer loop
      vertex   8.269189e+00 5.900604e+01 0.000000e+00
      vertex   7.730811e+00 5.900604e+01 1.000000e+01
      vertex   8.269189e+00 5.900604e+01 1.000000e+01
    endloop
  endfacet
  facet normal -8.963931e-02 9.959743e-01 0.000000e+00
    outer loop
      vertex   8.269189e+00 5.900604e+01 0.000000e+00
      vertex   8.269189e+00 5.900604e+01 1.000000e+01
      vertex   8.805400e+00 5.905430e+01 0.000000e+00
    endloop
  endfacet
  facet normal -8.963931e-02 9.959743e-01 0.000000e+00
    outer loop
      vertex   8.805400e+00 5.905430e+01 0.000000e+00
      vertex   8.269189e+00 5.900604e+01 1.000000e+01
      vertex   8.805400e+00 5.905430e+01 1.000000e+01
    endloop
  endfacet
  facet normal -1.785569e-01 9.839296e-01 0.000000e+00
    outer loop
      vertex   8.805400e+00 5.905430e+01 0.000000e+00
      vertex   8.805400e+00 5.905430e+01 1.000000e+01
      vertex   9.335126e+00 5.915043e+01 0.000000e+00
    endloop
  endfacet
  facet normal -1.785569e-01 9.839296e-01 0.000000e+00
    outer loop
      vertex   9.335126e+00 5.915043e+01 0.000000e+00
      vertex   8.805400e+00 5.905430e+01 1.000000e+01
      vertex   9.335126e+00 5.915043e+01 1.000000e+01
    endloop
  endfacet
  facet normal -2.660368e-01 9.639629e-01 0.000000e+00
    outer loop
      vertex   9.335126e+00 5.915043e+01 0.000000e+00
      vertex   9.335126e+00 5.915043e+01 1.000000e+01
      vertex   9.854102e+00 5.929366e+01 0.000000e+00
    endloop
  endfacet
  facet normal -2.660368e-01 9.639629e-01 0.000000e+00
    outer loop
      vertex   9.854102e+00 5.929366e+01 0.000000e+00
      vertex   9.335126e+00 5.915043e+01 1.000000e+01
      vertex   9.854102e+00 5.929366e+01 1.000000e+01
    endloop
  endfacet
  facet normal -3.513748e-01 9.362349e-01 0.000000e+00
    outer loop
      vertex   9.854102e+00 5.929366e+01 0.000000e+00
      vertex   9.854102e+00 5.929366e+01 1.000000e+01
      vertex   1.035815e+01 5.948283e+01 0.000000e+00
    endloop
  endfacet
  facet normal -3.513748e-01 9.362349e-01 0.000000e+00
    outer loop
      vertex   1.035815e+01 5.948283e+01 0.000000e+00
      vertex   9.854102e+00 5.929366e+01 1.000000e+01
      vertex   1.035815e+01 5.948283e+01 1.000000e+01
    endloop
  endfacet
  facet normal -4.338837e-01 9.009689e-01 0.000000e+00
    outer loop
      vertex   1.035815e+01 5.948283e+01 0.000000e+00
      vertex   1.035815e+01 5.948283e+01 1.000000e+01
      vertex   1.084321e+01 5.971643e+01 0.000000e+00
    endloop
  endfacet
  facet normal -4.338837e-01 9.009689e-01 0.000000e+00
    outer loop
      vertex   1.084321e+01 5.971643e+01 0.000000e+00
      vertex   1.035815e+01 5.948283e+01 1.000000e+01
      vertex   1.084321e+01 5.971643e+01 1.000000e+01
    endloop
  endfacet
  facet normal -5.128993e-01 8.584488e-01 0.000000e+00
    outer loop
      vertex   1.084321e+01 5.971643e+01 0.000000e+00
      vertex   1.084321e+01 5.971643e+01 1.000000e+01
      vertex   1.130538e+01 5.999256e+01 0.000000e+00
    endloop
  endfacet
  facet normal -5.128993e-01 8.584488e-01 0.000000e+00
    outer loop
      vertex   1.130538e+01 5.999256e+01 0.000000e+00
      vertex   1.084321e+01 5.971643e+01 1.000000e+01
      vertex   1.130538e+01 5.999256e+01 1.000000e+01
    endloop
  endfacet
  facet normal -5.877853e-01 8.090170e-01 0.000000e+00
    outer loop
      vertex   1.130538e+01 5.999256e+01 0.000000e+00
      vertex   1.130538e+01 5.999256e+01 1.000000e+01
      vertex   1.174094e+01 6.030901e+01 0.000000e+00
    endloop
  endfacet
  facet normal -5.877853e-01 8.090170e-01 0.000000e+00
    outer loop
      vertex   1.174094e+01 6.030901e+01 0.000000e+00
      vertex   1.130538e+01 5.999256e+01 1.000000e+01
      vertex   1.174094e+01 6.030901e+01 1.000000e+01
    endloop
  endfacet
  facet normal -6.579387e-01 7.530715e-01 0.000000e+00
    outer loop
      vertex   1.174094e+01 6.030901e+01 0.000000e+00
      vertex   1.174094e+01 6.030901e+01 1.000000e+01
      vertex   1.214638e+01 6.066323e+01 0.000000e+00
    endloop
  endfacet
  facet normal -6.579387e-01 7.530715e-01 0.000000e+00
    outer loop
      vertex   1.214638e+01 6.066323e+01 0.000000e+00
      vertex   1.174094e+01 6.030901e+01 1.000000e+01
      vertex   1.214638e+01 6.066323e+01 1.000000e+01
    endloop
  endfacet
  facet normal -7.227949e-01 6.910626e-01 0.000000e+00
    outer loop
      vertex   1.214638e+01 6.066323e+01 0.000000e+00
      vertex   1.214638e+01 6.066323e+01 1.000000e+01
      vertex   1.251843e+01 6.105237e+01 0.000000e+00
    endloop
  endfacet
  facet normal -7.227949e-01 6.910626e-01 0.000000e+00
    outer loop
      vertex   1.251843e+01 6.105237e+01 0.000000e+00
      vertex   1.214638e+01 6.066323e+01 1.000000e+01
      vertex   1.251843e+01 6.105237e+01 1.000000e+01
    endloop
  endfacet
  facet normal -7.818315e-01 6.234898e-01 0.000000e+00
    outer loop
      vertex   1.251843e+01 6.105237e+01 0.000000e+00
      vertex   1.251843e+01 6.105237e+01 1.000000e+01
      vertex   1.285410e+01 6.147329e+01 0.000000e+00
    endloop
  endfacet
  facet normal -7.818315e-01 6.234898e-01 0.000000e+00
    outer loop
      vertex   1.285410e+01 6.147329e+01 0.000000e+00
      vertex   1.251843e+01 6.105237e+01 1.000000e+01
      vertex   1.285410e+01 6.147329e+01 1.000000e+01
    endloop
  endfacet
  facet normal -8.345733e-01 5.508970e-01 0.000000e+00
    outer loop
      vertex   1.285410e+01 6.147329e+01 0.000000e+00
      vertex   1.285410e+01 6.147329e+01 1.000000e+01
      vertex   1.315069e+01 6.192260e+01 0.000000e+00
    endloop
  endfacet
  facet normal -8.345733e-01 5.508970e-01 0.000000e+00
    outer loop
      vertex   1.315069e+01 6.192260e+01 0.000000e+00
      vertex   1.285410e+01 6.147329e+01 1.000000e+01
      vertex   1.315069e+01 6.192260e+01 1.000000e+01
    endloop
  endfacet
  facet normal -8.805955e-01 4.738687e-01 0.000000e+00
    outer loop
      vertex   1.315069e+01 6.192260e+01 0.000000e+00
      vertex   1.315069e+01 6.192260e+01 1.000000e+01
      vertex   1.340581e+01 6.239670e+01 0.000000e+00
    endloop
  endfacet
  facet normal -8.805955e-01 4.738687e-01 0.000000e+00
    outer loop
      vertex   1.340581e+01 6.239670e+01 0.000000e+00
      vertex   1.315069e+01 6.192260e+01 1.000000e+01
      vertex   1.340581e+01 6.239670e+01 1.000000e+01
    endloop
  endfacet
  facet normal -9.195278e-01 3.930250e-01 0.000000e+00
    outer loop
      vertex   1.340581e+01 6.239670e+01 0.000000e+00
      vertex   1.340581e+01 6.239670e+01 1.000000e+01
      vertex   1.361741e+01 6.289175e+01 0.000000e+00
    endloop
  endfacet
  facet normal -9.195278e-01 3.930250e-01 0.000000e+00
    outer loop
      vertex   1.361741e+01 6.289175e+01 0.000000e+00
      vertex   1.340581e+01 6.239670e+01 1.000000e+01
      vertex   1.361741e+01 6.289175e+01 1.000000e+01
    endloop
  endfacet
  facet normal -9.510565e-01 3.090170e-01 0.000000e+00
    outer loop
      vertex   1.361741e+01 6.289175e+01 0.000000e+00
      vertex   1.361741e+01 6.289175e+01 1.000000e+01
      vertex   1.378378e+01 6.340378e+01 0.000000e+00
    endloop
  endfacet
  facet normal -9.510565e-01 3.090170e-01 0.000000e+00
    outer loop
      vertex   1.378378e+01 6.340378e+01 0.000000e+00
      vertex   1.361741e+01 6.289175e+01 1.000000e+01
      vertex   1.378378e+01 6.340378e+01 1.000000e+01
    endloop
  endfacet
  facet normal -9.749279e-01 2.225209e-01 0.000000e+00
    outer loop
      vertex   1.378378e+01 6.340378e+01 0.000000e+00
      vertex   1.378378e+01 6.340378e+01 1.000000e+01
      vertex   1.390358e+01 6.392866e+01 0.000000e+00
    endloop
  endfacet
  facet normal -9.749279e-01 2.225209e-01 0.000000e+00
    outer loop
      vertex   1.390358e+01 6.392866e+01 0.000000e+00
      vertex   1.378378e+01 6.340378e+01 1.000000e+01
      vertex   1.390358e+01 6.392866e+01 1.000000e+01
    endloop
  endfacet
  facet normal -9.909498e-01 1.342333e-01 0.000000e+00
    outer loop
      vertex   1.390358e+01 6.392866e+01 0.000000e+00
      vertex   1.390358e+01 6.392866e+01 1.000000e+01
      vertex   1.397585e+01 6.446216e+01 0.000000e+00
    endloop
  endfacet
  facet normal -9.909498e-01 1.342333e-01 0.000000e+00
    outer loop
      vertex   1.397585e+01 6.446216e+01 0.000000e+00
      vertex   1.390358e+01 6.392866e+01 1.000000e+01
      vertex   1.397585e+01 6.446216e+01 1.000000e+01
    endloop
  endfacet
  facet normal -9.989931e-01 4.486483e-02 0.000000e+00
    outer loop
      vertex   1.397585e+01 6.446216e+01 0.000000e+00
      vertex   1.397585e+01 6.446216e+01 1.000000e+01
      vertex   1.400000e+01 6.500000e+01 0.000000e+00
    endloop
  endfacet
  facet normal -9.989931e-01 4.486483e-02 0.000000e+00
    outer loop
      vertex   1.400000e+01 6.500000e+01 0.000000e+00
      vertex   1.397585e+01 6.446216e+01 1.000000e+01
      vertex   1.400000e+01 6.500000e+01 1.000000e+01
    endloop
  endfacet
  facet normal -0.000000e+00 -1.000000e+00 -5.046915e-16
    outer loop
      vertex   2.000000e+00 0.000000e+00 1.000000e+01
      vertex   0.000000e+00 0.000000e+00 1.000000e+01
      vertex   2.000000e+00 3.532840e-15 3.000000e+00
    endloop
  endfacet
  facet normal 1.766420e-15 -1.000000e+00 0.000000e+00
    outer loop
      vertex   2.000000e+00 3.532840e-15 3.000000e+00
      vertex   0.000000e+00 0.000000e+00 1.000000e+01
      vertex   0.000000e+00 0.000000e+00 0.000000e+00
    endloop
  endfacet
  facet normal 4.407770e-16 -1.000000e+00 8.837621e-16
    outer loop
      vertex   2.000000e+00 3.532840e-15 3.000000e+00
      vertex   0.000000e+00 0.000000e+00 0.000000e+00
      vertex   6.000000e+00 2.644662e-15 0.000000e+00
    endloop
  endfacet
  facet normal -2.220446e-16 -1.000000e+00 0.000000e+00
    outer loop
      vertex   6.000000e+00 2.644662e-15 0.000000e+00
      vertex   6.000000e+00 2.644662e-15 3.000000e+00
      vertex   2.000000e+00 3.532840e-15 3.000000e+00
    endloop
  endfacet
  facet normal 0.000000e+00 0.000000e+00 -1.000000e+00
    outer loop
      vertex   1.400000e+01 4.500000e+01 0.000000e+00
      vertex   1.600000e+01 -1.925930e-31 0.000000e+00
      vertex   1.400000e+01 5.000000e+00 0.000000e+00
    endloop
  endfacet
  facet normal 0.000000e+00 -0.000000e+00 -1.000000e+00
    outer loop
      vertex   1.400000e+01 5.000000e+00 0.000000e+00
      vertex   1.600000e+01 -1.925930e-31 0.000000e+00
      vertex   1.000000e+01 2.644662e-15 0.000000e+00
    endloop
  endfacet
  facet normal 0.000000e+00 0.000000e+00 -1.000000e+00
    outer loop
      vertex   1.400000e+01 5.000000e+00 0.000000e+00
      vertex   1.000000e+01 2.644662e-15 0.000000e+00
      vertex   1.000000e+01 5.000000e+00 0.000000e+00
    endloop
  endfacet
  facet normal 0.000000e+00 0.000000e+00 -1.000000e+00
    outer loop
      vertex   1.397585e+01 4.553784e+01 0.000000e+00
      vertex   1.397585e+01 6.446216e+01 0.000000e+00
      vertex   1.400000e+01 4.500000e+01 0.000000e+00
    endloop
  endfacet
  facet normal 0.000000e+00 0.000000e+00 -1.000000e+00
    outer loop
      vertex   1.400000e+01 4.500000e+01 0.000000e+00
      vertex   1.397585e+01 6.446216e+01 0.000000e+00
      vertex   1.400000e+01 6.500000e+01 0.000000e+00
    endloop
  endfacet
  facet normal 0.000000e+00 0.000000e+00 -1.000000e+00
    outer loop
      vertex   1.400000e+01 4.500000e+01 0.000000e+00
      vertex   1.400000e+01 6.500000e+01 0.000000e+00
      vertex   1.600000e+01 -1.925930e-31 0.000000e+00
    endloop
  endfacet
  facet normal 0.000000e+00 0.000000e+00 -1.000000e+00
    outer loop
      vertex   1.600000e+01 -1.925930e-31 0.000000e+00
      vertex   1.400000e+01 6.500000e+01 0.000000e+00
      vertex   1.600000e+01 1.200000e+02 0.000000e+00
    endloop
  endfacet
  facet normal 5.957294e-15 -2.166289e-16 -1.000000e+00
    outer loop
      vertex   1.600000e+01 1.200000e+02 0.000000e+00
      vertex   1.400000e+01 6.500000e+01 0.000000e+00
      vertex   1.400000e+01 1.060000e+02 -8.881784e-15
    endloop
  endfacet
  facet normal 1.850372e-15 3.700743e-16 -1.000000e+00
    outer loop
      vertex   1.600000e+01 1.200000e+02 0.000000e+00
      vertex   1.400000e+01 1.060000e+02 -8.881784e-15
      vertex   1.000000e+01 1.200000e+02 -1.110223e-14
    endloop
  endfacet
  facet normal 0.000000e+00 -1.586033e-16 -1.000000e+00
    outer loop
      vertex   1.000000e+01 1.200000e+02 -1.110223e-14
      vertex   1.400000e+01 1.060000e+02 -8.881784e-15
      vertex   1.000000e+01 1.060000e+02 -8.881784e-15
    endloop
  endfacet
  facet normal 0.000000e+00 0.000000e+00 -1.000000e+00
    outer loop
      vertex   1.397585e+01 6.446216e+01 0.000000e+00
      vertex   1.397585e+01 4.553784e+01 0.000000e+00
      vertex   1.390358e+01 6.392866e+01 0.000000e+00
    endloop
  endfacet
  facet normal 0.000000e+00 -0.000000e+00 -1.000000e+00
    outer loop
      vertex   1.390358e+01 6.392866e+01 0.000000e+00
      vertex   1.397585e+01 4.553784e+01 0.000000e+00
      vertex   1.390358e+01 4.607134e+01 0.000000e+00
    endloop
  endfacet
  facet normal 0.000000e+00 0.000000e+00 -1.000000e+00
    outer loop
      vertex   1.390358e+01 6.392866e+01 0.000000e+00
      vertex   1.390358e+01 4.607134e+01 0.000000e+00
      vertex   1.378378e+01 6.340378e+01 0.000000e+00
    endloop
  endfacet
  facet normal 0.000000e+00 -0.000000e+00 -1.000000e+00
    outer loop
      vertex   1.378378e+01 6.340378e+01 0.000000e+00
      vertex   1.390358e+01 4.607134e+01 0.000000e+00
      vertex   1.378378e+01 4.659622e+01 0.000000e+00
    endloop
  endfacet
  facet normal 0.000000e+00 0.000000e+00 -1.000000e+00
    outer loop
      vertex   1.378378e+01 6.340378e+01 0.000000e+00
      vertex   1.378378e+01 4.659622e+01 0.000000e+00
      vertex   1.361741e+01 6.289175e+01 0.000000e+00
    endloop
  endfacet
  facet normal 0.000000e+00 -0.000000e+00 -1.000000e+00
    outer loop
      vertex   1.361741e+01 6.289175e+01 0.000000e+00
      vertex   1.378378e+01 4.659622e+01 0.000000e+00
      vertex   1.361741e+01 4.710825e+01 0.000000e+00
    endloop
  endfacet
  facet normal 0.000000e+00 0.000000e+00 -1.000000e+00
    outer loop
      vertex   1.361741e+01 6.289175e+01 0.000000e+00
      vertex   1.361741e+01 4.710825e+01 0.000000e+00
      vertex   1.340581e+01 6.239670e+01 0.000000e+00
    endloop
  endfacet
  facet normal 0.000000e+00 -0.000000e+00 -1.000000e+00
    outer loop
      vertex   1.340581e+01 6.239670e+01 0.000000e+00
      vertex   1.361741e+01 4.710825e+01 0.000000e+00
      vertex   1.340581e+01 4.760330e+01 0.000000e+00
    endloop
  endfacet
  facet normal 0.000000e+00 0.000000e+00 -1.000000e+00
    outer loop
      vertex   1.340581e+01 6.239670e+01 0.000000e+00
      vertex   1.340581e+01 4.760330e+01 0.000000e+00
      vertex   1.315069e+01 6.192260e+01 0.000000e+00
    endloop
  endfacet
  facet normal 0.000000e+00 -0.000000e+00 -1.000000e+00
    outer loop
      vertex   1.315069e+01 6.192260e+01 0.000000e+00
      vertex   1.340581e+01 4.760330e+01 0.000000e+00
      vertex   1.315069e+01 4.807740e+01 0.000000e+00
    endloop
  endfacet
  facet normal 0.000000e+00 0.000000e+00 -1.000000e+00
    outer loop
      vertex   1.315069e+01 6.192260e+01 0.000000e+00
      vertex   1.315069e+01 4.807740e+01 0.000000e+00
      vertex   1.285410e+01 6.147329e+01 0.000000e+00
    endloop
  endfacet
  facet normal 0.000000e+00 -0.000000e+00 -1.000000e+00
    outer loop
      vertex   1.285410e+01 6.147329e+01 0.000000e+00
      vertex   1.315069e+01 4.807740e+01 0.000000e+00
      vertex   1.285410e+01 4.852671e+01 0.000000e+00
    endloop
  endfacet
  facet normal 0.000000e+00 0.000000e+00 -1.000000e+00
    outer loop
      vertex   1.285410e+01 6.147329e+01 0.000000e+00
      vertex   1.285410e+01 4.852671e+01 0.000000e+00
      vertex   1.251843e+01 6.105237e+01 0.000000e+00
    endloop
  endfacet
  facet normal 0.000000e+00 -0.000000e+00 -1.000000e+00
    outer loop
      vertex   1.251843e+01 6.105237e+01 0.000000e+00
      vertex   1.285410e+01 4.852671e+01 0.000000e+00
      vertex   1.251843e+01 4.894763e+01 0.000000e+00
    endloop
  endfacet
  facet normal 0.000000e+00 0.000000e+00 -1.000000e+00
    outer loop
      vertex   1.251843e+01 6.105237e+01 0.000000e+00
      vertex   1.251843e+01 4.894763e+01 0.000000e+00
      vertex   1.214638e+01 6.066323e+01 0.000000e+00
    endloop
  endfacet
  facet normal 0.000000e+00 -0.000000e+00 -1.000000e+00
    outer loop
      vertex   1.214638e+01 6.066323e+01 0.000000e+00
      vertex   1.251843e+01 4.894763e+01 0.000000e+00
      vertex   1.214638e+01 4.933677e+01 0.000000e+00
    endloop
  endfacet
  facet normal 0.000000e+00 0.000000e+00 -1.000000e+00
    outer loop
      vertex   1.214638e+01 6.066323e+01 0.000000e+00
      vertex   1.214638e+01 4.933677e+01 0.000000e+00
      vertex   1.174094e+01 6.030901e+01 0.000000e+00
    endloop
  endfacet
  facet normal 0.000000e+00 -0.000000e+00 -1.000000e+00
    outer loop
      vertex   1.174094e+01 6.030901e+01 0.000000e+00
      vertex   1.214638e+01 4.933677e+01 0.000000e+00
      vertex   1.174094e+01 4.969099e+01 0.000000e+00
    endloop
  endfacet
  facet normal 0.000000e+00 0.000000e+00 -1.000000e+00
    outer loop
      vertex   1.174094e+01 6.030901e+01 0.000000e+00
      vertex   1.174094e+01 4.969099e+01 0.000000e+00
      vertex   1.130538e+01 5.999256e+01 0.000000e+00
    endloop
  endfacet
  facet normal 0.000000e+00 -0.000000e+00 -1.000000e+00
    outer loop
      vertex   1.130538e+01 5.999256e+01 0.000000e+00
      vertex   1.174094e+01 4.969099e+01 0.000000e+00
      vertex   1.130538e+01 5.000744e+01 0.000000e+00
    endloop
  endfacet
  facet normal 0.000000e+00 0.000000e+00 -1.000000e+00
    outer loop
      vertex   1.130538e+01 5.999256e+01 0.000000e+00
      vertex   1.130538e+01 5.000744e+01 0.000000e+00
      vertex   1.084321e+01 5.971643e+01 0.000000e+00
    endloop
  endfacet
  facet normal 0.000000e+00 -0.000000e+00 -1.000000e+00
    outer loop
      vertex   1.084321e+01 5.971643e+01 0.000000e+00
      vertex   1.130538e+01 5.000744e+01 0.000000e+00
      vertex   1.084321e+01 5.028357e+01 0.000000e+00
    endloop
  endfacet
  facet normal 0.000000e+00 0.000000e+00 -1.000000e+00
    outer loop
      vertex   1.084321e+01 5.971643e+01 0.000000e+00
      vertex   1.084321e+01 5.028357e+01 0.000000e+00
      vertex   1.035815e+01 5.948283e+01 0.000000e+00
    endloop
  endfacet
  facet normal 0.000000e+00 -0.000000e+00 -1.000000e+00
    outer loop
      vertex   1.035815e+01 5.948283e+01 0.000000e+00
      vertex   1.084321e+01 5.028357e+01 0.000000e+00
      vertex   1.035815e+01 5.051717e+01 0.000000e+00
    endloop
  endfacet
  facet normal 0.000000e+00 0.000000e+00 -1.000000e+00
    outer loop
      vertex   1.035815e+01 5.948283e+01 0.000000e+00
      vertex   1.035815e+01 5.051717e+01 0.000000e+00
      vertex   9.854102e+00 5.929366e+01 0.000000e+00
    endloop
  endfacet
  facet normal 0.000000e+00 -0.000000e+00 -1.000000e+00
    outer loop
      vertex   9.854102e+00 5.929366e+01 0.000000e+00
      vertex   1.035815e+01 5.051717e+01 0.000000e+00
      vertex   9.854102e+00 5.070634e+01 0.000000e+00
    endloop
  endfacet
  facet normal 0.000000e+00 0.000000e+00 -1.000000e+00
    outer loop
      vertex   9.854102e+00 5.929366e+01 0.000000e+00
      vertex   9.854102e+00 5.070634e+01 0.000000e+00
      vertex   9.335126e+00 5.915043e+01 0.000000e+00
    endloop
  endfacet
  facet normal 0.000000e+00 -0.000000e+00 -1.000000e+00
    outer loop
      vertex   9.335126e+00 5.915043e+01 0.000000e+00
      vertex   9.854102e+00 5.070634e+01 0.000000e+00
      vertex   9.335126e+00 5.084957e+01 0.000000e+00
    endloop
  endfacet
  facet normal 0.000000e+00 0.000000e+00 -1.000000e+00
    outer loop
      vertex   9.335126e+00 5.915043e+01 0.000000e+00
      vertex   9.335126e+00 5.084957e+01 0.000000e+00
      vertex   8.805400e+00 5.905430e+01 0.000000e+00
    endloop
  endfacet
  facet normal 0.000000e+00 -0.000000e+00 -1.000000e+00
    outer loop
      vertex   8.805400e+00 5.905430e+01 0.000000e+00
      vertex   9.335126e+00 5.084957e+01 0.000000e+00
      vertex   8.805400e+00 5.094570e+01 0.000000e+00
    endloop
  endfacet
  facet normal 0.000000e+00 0.000000e+00 -1.000000e+00
    outer loop
      vertex   8.805400e+00 5.905430e+01 0.000000e+00
      vertex   8.805400e+00 5.094570e+01 0.000000e+00
      vertex   8.269189e+00 5.900604e+01 0.000000e+00
    endloop
  endfacet
  facet normal 0.000000e+00 0.000000e+00 -1.000000e+00
    outer loop
      vertex   8.269189e+00 5.900604e+01 0.000000e+00
      vertex   8.805400e+00 5.094570e+01 0.000000e+00
      vertex   8.269189e+00 5.099396e+01 0.000000e+00
    endloop
  endfacet
  facet normal 0.000000e+00 -0.000000e+00 -1.000000e+00
    outer loop
      vertex   8.269189e+00 5.900604e+01 0.000000e+00
      vertex   8.269189e+00 5.099396e+01 0.000000e+00
      vertex   7.730811e+00 5.099396e+01 0.000000e+00
    endloop
  endfacet
  facet normal -0.000000e+00 0.000000e+00 -1.000000e+00
    outer loop
      vertex   8.269189e+00 5.900604e+01 0.000000e+00
      vertex   7.730811e+00 5.099396e+01 0.000000e+00
      vertex   7.730811e+00 5.900604e+01 0.000000e+00
    endloop
  endfacet
  facet normal 0.000000e+00 -0.000000e+00 -1.000000e+00
    outer loop
      vertex   7.730811e+00 5.900604e+01 0.000000e+00
      vertex   7.730811e+00 5.099396e+01 0.000000e+00
      vertex   7.194600e+00 5.094570e+01 0.000000e+00
    endloop
  endfacet
  facet normal -0.000000e+00 0.000000e+00 -1.000000e+00
    outer loop
      vertex   7.730811e+00 5.900604e+01 0.000000e+00
      vertex   7.194600e+00 5.094570e+01 0.000000e+00
      vertex   7.194600e+00 5.905430e+01 0.000000e+00
    endloop
  endfacet
  facet normal 0.000000e+00 -0.000000e+00 -1.000000e+00
    outer loop
      vertex   7.194600e+00 5.905430e+01 0.000000e+00
      vertex   7.194600e+00 5.094570e+01 0.000000e+00
      vertex   6.664874e+00 5.084957e+01 0.000000e+00
    endloop
  endfacet
  facet normal -0.000000e+00 0.000000e+00 -1.000000e+00
    outer loop
      vertex   7.194600e+00 5.905430e+01 0.000000e+00
      vertex   6.664874e+00 5.084957e+01 0.000000e+00
      vertex   6.664874e+00 5.915043e+01 0.000000e+00
    endloop
  endfacet
  facet normal 0.000000e+00 -0.000000e+00 -1.000000e+00
    outer loop
      vertex   6.664874e+00 5.915043e+01 0.000000e+00
      vertex   6.664874e+00 5.084957e+01 0.000000e+00
      vertex   6.145898e+00 5.070634e+01 0.000000e+00
    endloop
  endfacet
  facet normal -0.000000e+00 0.000000e+00 -1.000000e+00
    outer loop
      vertex   6.664874e+00 5.915043e+01 0.000000e+00
      vertex   6.145898e+00 5.070634e+01 0.000000e+00
      vertex   6.145898e+00 5.929366e+01 0.000000e+00
    endloop
  endfacet
  facet normal 0.000000e+00 -0.000000e+00 -1.000000e+00
    outer loop
      vertex   6.145898e+00 5.929366e+01 0.000000e+00
      vertex   6.145898e+00 5.070634e+01 0.000000e+00
      vertex   5.641850e+00 5.051717e+01 0.000000e+00
    endloop
  endfacet
  facet normal -0.000000e+00 0.000000e+00 -1.000000e+00
    outer loop
      vertex   6.145898e+00 5.929366e+01 0.000000e+00
      vertex   5.641850e+00 5.051717e+01 0.000000e+00
      vertex   5.641850e+00 5.948283e+01 0.000000e+00
    endloop
  endfacet
  facet normal 0.000000e+00 -0.000000e+00 -1.000000e+00
    outer loop
      vertex   5.641850e+00 5.948283e+01 0.000000e+00
      vertex   5.641850e+00 5.051717e+01 0.000000e+00
      vertex   5.156788e+00 5.028357e+01 0.000000e+00
    endloop
  endfacet
  facet normal -0.000000e+00 0.000000e+00 -1.000000e+00
    outer loop
      vertex   5.641850e+00 5.948283e+01 0.000000e+00
      vertex   5.156788e+00 5.028357e+01 0.000000e+00
      vertex   5.156788e+00 5.971643e+01 0.000000e+00
    endloop
  endfacet
  facet normal 0.000000e+00 -0.000000e+00 -1.000000e+00
    outer loop
      vertex   5.156788e+00 5.971643e+01 0.000000e+00
      vertex   5.156788e+00 5.028357e+01 0.000000e+00
      vertex   4.694618e+00 5.000744e+01 0.000000e+00
    endloop
  endfacet
  facet normal -0.000000e+00 0.000000e+00 -1.000000e+00
    outer loop
      vertex   5.156788e+00 5.971643e+01 0.000000e+00
      vertex   4.694618e+00 5.000744e+01 0.000000e+00
      vertex   4.694618e+00 5.999256e+01 0.000000e+00
    endloop
  endfacet
  facet normal 0.000000e+00 -0.000000e+00 -1.000000e+00
    outer loop
      vertex   4.694618e+00 5.999256e+01 0.000000e+00
      vertex   4.694618e+00 5.000744e+01 0.000000e+00
      vertex   4.259061e+00 4.969099e+01 0.000000e+00
    endloop
  endfacet
  facet normal -0.000000e+00 0.000000e+00 -1.000000e+00
    outer loop
      vertex   4.694618e+00 5.999256e+01 0.000000e+00
      vertex   4.259061e+00 4.969099e+01 0.000000e+00
      vertex   4.259061e+00 6.030901e+01 0.000000e+00
    endloop
  endfacet
  facet normal 0.000000e+00 -0.000000e+00 -1.000000e+00
    outer loop
      vertex   4.259061e+00 6.030901e+01 0.000000e+00
      vertex   4.259061e+00 4.969099e+01 0.000000e+00
      vertex   3.853624e+00 4.933677e+01 0.000000e+00
    endloop
  endfacet
  facet normal -0.000000e+00 0.000000e+00 -1.000000e+00
    outer loop
      vertex   4.259061e+00 6.030901e+01 0.000000e+00
      vertex   3.853624e+00 4.933677e+01 0.000000e+00
      vertex   3.853624e+00 6.066323e+01 0.000000e+00
    endloop
  endfacet
  facet normal 0.000000e+00 -0.000000e+00 -1.000000e+00
    outer loop
      vertex   3.853624e+00 6.066323e+01 0.000000e+00
      vertex   3.853624e+00 4.933677e+01 0.000000e+00
      vertex   3.481571e+00 4.894763e+01 0.000000e+00
    endloop
  endfacet
  facet normal -0.000000e+00 0.000000e+00 -1.000000e+00
    outer loop
      vertex   3.853624e+00 6.066323e+01 0.000000e+00
      vertex   3.481571e+00 4.894763e+01 0.000000e+00
      vertex   3.481571e+00 6.105237e+01 0.000000e+00
    endloop
  endfacet
  facet normal 0.000000e+00 -0.000000e+00 -1.000000e+00
    outer loop
      vertex   3.481571e+00 6.105237e+01 0.000000e+00
      vertex   3.481571e+00 4.894763e+01 0.000000e+00
      vertex   3.145898e+00 4.852671e+01 0.000000e+00
    endloop
  endfacet
  facet normal -0.000000e+00 0.000000e+00 -1.000000e+00
    outer loop
      vertex   3.481571e+00 6.105237e+01 0.000000e+00
      vertex   3.145898e+00 4.852671e+01 0.000000e+00
      vertex   3.145898e+00 6.147329e+01 0.000000e+00
    endloop
  endfacet
  facet normal 0.000000e+00 -0.000000e+00 -1.000000e+00
    outer loop
      vertex   3.145898e+00 6.147329e+01 0.000000e+00
      vertex   3.145898e+00 4.852671e+01 0.000000e+00
      vertex   2.849307e+00 4.807740e+01 0.000000e+00
    endloop
  endfacet
  facet normal -0.000000e+00 0.000000e+00 -1.000000e+00
    outer loop
      vertex   3.145898e+00 6.147329e+01 0.000000e+00
      vertex   2.849307e+00 4.807740e+01 0.000000e+00
      vertex   2.849307e+00 6.192260e+01 0.000000e+00
    endloop
  endfacet
  facet normal 0.000000e+00 -0.000000e+00 -1.000000e+00
    outer loop
      vertex   2.849307e+00 6.192260e+01 0.000000e+00
      vertex   2.849307e+00 4.807740e+01 0.000000e+00
      vertex   2.594187e+00 4.760330e+01 0.000000e+00
    endloop
  endfacet
  facet normal -0.000000e+00 0.000000e+00 -1.000000e+00
    outer loop
      vertex   2.849307e+00 6.192260e+01 0.000000e+00
      vertex   2.594187e+00 4.760330e+01 0.000000e+00
      vertex   2.594187e+00 6.239670e+01 0.000000e+00
    endloop
  endfacet
  facet normal 0.000000e+00 -0.000000e+00 -1.000000e+00
    outer loop
      vertex   2.594187e+00 6.239670e+01 0.000000e+00
      vertex   2.594187e+00 4.760330e+01 0.000000e+00
      vertex   2.382591e+00 4.710825e+01 0.000000e+00
    endloop
  endfacet
  facet normal -0.000000e+00 0.000000e+00 -1.000000e+00
    outer loop
      vertex   2.594187e+00 6.239670e+01 0.000000e+00
      vertex   2.382591e+00 4.710825e+01 0.000000e+00
      vertex   2.382591e+00 6.289175e+01 0.000000e+00
    endloop
  endfacet
  facet normal 0.000000e+00 -0.000000e+00 -1.000000e+00
    outer loop
      vertex   2.382591e+00 6.289175e+01 0.000000e+00
      vertex   2.382591e+00 4.710825e+01 0.000000e+00
      vertex   2.216223e+00 4.659622e+01 0.000000e+00
    endloop
  endfacet
  facet normal -0.000000e+00 0.000000e+00 -1.000000e+00
    outer loop
      vertex   2.382591e+00 6.289175e+01 0.000000e+00
      vertex   2.216223e+00 4.659622e+01 0.000000e+00
      vertex   2.216223e+00 6.340378e+01 0.000000e+00
    endloop
  endfacet
  facet normal 0.000000e+00 -0.000000e+00 -1.000000e+00
    outer loop
      vertex   2.216223e+00 6.340378e+01 0.000000e+00
      vertex   2.216223e+00 4.659622e+01 0.000000e+00
      vertex   2.096422e+00 4.607134e+01 0.000000e+00
    endloop
  endfacet
  facet normal -0.000000e+00 0.000000e+00 -1.000000e+00
    outer loop
      vertex   2.216223e+00 6.340378e+01 0.000000e+00
      vertex   2.096422e+00 4.607134e+01 0.000000e+00
      vertex   2.096422e+00 6.392866e+01 0.000000e+00
    endloop
  endfacet
  facet normal 0.000000e+00 -0.000000e+00 -1.000000e+00
    outer loop
      vertex   2.096422e+00 6.392866e+01 0.000000e+00
      vertex   2.096422e+00 4.607134e+01 0.000000e+00
      vertex   2.024154e+00 4.553784e+01 0.000000e+00
    endloop
  endfacet
  facet normal -0.000000e+00 0.000000e+00 -1.000000e+00
    outer loop
      vertex   2.096422e+00 6.392866e+01 0.000000e+00
      vertex   2.024154e+00 4.553784e+01 0.000000e+00
      vertex   2.024154e+00 6.446216e+01 0.000000e+00
    endloop
  endfacet
  facet normal 0.000000e+00 -0.000000e+00 -1.000000e+00
    outer loop
      vertex   2.024154e+00 6.446216e+01 0.000000e+00
      vertex   2.024154e+00 4.553784e+01 0.000000e+00
      vertex   2.000000e+00 4.500000e+01 0.000000e+00
    endloop
  endfacet
  facet normal -0.000000e+00 0.000000e+00 -1.000000e+00
    outer loop
      vertex   2.024154e+00 6.446216e+01 0.000000e+00
      vertex   2.000000e+00 4.500000e+01 0.000000e+00
      vertex   2.000000e+00 6.500000e+01 0.000000e+00
    endloop
  endfacet
  facet normal 0.000000e+00 -0.000000e+00 -1.000000e+00
    outer loop
      vertex   2.000000e+00 6.500000e+01 0.000000e+00
      vertex   2.000000e+00 4.500000e+01 0.000000e+00
      vertex   0.000000e+00 0.000000e+00 0.000000e+00
    endloop
  endfacet
  facet normal -0.000000e+00 0.000000e+00 -1.000000e+00
    outer loop
      vertex   2.000000e+00 6.500000e+01 0.000000e+00
      vertex   0.000000e+00 0.000000e+00 0.000000e+00
      vertex   -3.697785e-31 1.200000e+02 0.000000e+00
    endloop
  endfacet
  facet normal 0.000000e+00 0.000000e+00 -1.000000e+00
    outer loop
      vertex   2.000000e+00 4.500000e+01 0.000000e+00
      vertex   2.000000e+00 5.000000e+00 0.000000e+00
      vertex   0.000000e+00 0.000000e+00 0.000000e+00
    endloop
  endfacet
  facet normal 0.000000e+00 0.000000e+00 -1.000000e+00
    outer loop
      vertex   0.000000e+00 0.000000e+00 0.000000e+00
      vertex   2.000000e+00 5.000000e+00 0.000000e+00
      vertex   6.000000e+00 2.644662e-15 0.000000e+00
    endloop
  endfacet
  facet normal 0.000000e+00 0.000000e+00 -1.000000e+00
    outer loop
      vertex   6.000000e+00 2.644662e-15 0.000000e+00
      vertex   2.000000e+00 5.000000e+00 0.000000e+00
      vertex   6.000000e+00 5.000000e+00 0.000000e+00
    endloop
  endfacet
  facet normal -5.957294e-15 -2.166289e-16 -1.000000e+00
    outer loop
      vertex   2.000000e+00 6.500000e+01 0.000000e+00
      vertex   -3.697785e-31 1.200000e+02 0.000000e+00
      vertex   2.000000e+00 1.060000e+02 -8.881784e-15
    endloop
  endfacet
  facet normal -1.850372e-15 3.700743e-16 -1.000000e+00
    outer loop
      vertex   2.000000e+00 1.060000e+02 -8.881784e-15
      vertex   -3.697785e-31 1.200000e+02 0.000000e+00
      vertex   6.000000e+00 1.200000e+02 -1.110223e-14
    endloop
  endfacet
  facet normal 0.000000e+00 -1.586033e-16 -1.000000e+00
    outer loop
      vertex   2.000000e+00 1.060000e+02 -8.881784e-15
      vertex   6.000000e+00 1.200000e+02 -1.110223e-14
      vertex   6.000000e+00 1.060000e+02 -8.881784e-15
    endloop
  endfacet
  facet normal -0.000000e+00 1.000000e+00 2.030122e-15
    outer loop
      vertex   1.400000e+01 1.200000e+02 1.000000e+01
      vertex   1.600000e+01 1.200000e+02 1.000000e+01
      vertex   1.400000e+01 1.200000e+02 3.000000e+00
    endloop
  endfacet
  facet normal 7.105427e-15 1.000000e+00 0.000000e+00
    outer loop
      vertex   1.400000e+01 1.200000e+02 3.000000e+00
      vertex   1.600000e+01 1.200000e+02 1.000000e+01
      vertex   1.600000e+01 1.200000e+02 0.000000e+00
    endloop
  endfacet
  facet normal 2.368476e-15 1.000000e+00 -3.157968e-15
    outer loop
      vertex   1.400000e+01 1.200000e+02 3.000000e+00
      vertex   1.600000e+01 1.200000e+02 0.000000e+00
      vertex   1.000000e+01 1.200000e+02 -1.110223e-14
    endloop
  endfacet
  facet normal 0.000000e+00 1.000000e+00 0.000000e+00
    outer loop
      vertex   1.000000e+01 1.200000e+02 -1.110223e-14
      vertex   1.000000e+01 1.200000e+02 3.000000e+00
      vertex   1.400000e+01 1.200000e+02 3.000000e+00
    endloop
  endfacet
  facet normal 0.000000e+00 1.000000e+00 2.030122e-15
    outer loop
      vertex   2.000000e+00 1.200000e+02 1.000000e+01
      vertex   2.000000e+00 1.200000e+02 3.000000e+00
      vertex   -3.697785e-31 1.200000e+02 1.000000e+01
    endloop
  endfacet
  facet normal -7.105427e-15 1.000000e+00 0.000000e+00
    outer loop
      vertex   -3.697785e-31 1.200000e+02 1.000000e+01
      vertex   2.000000e+00 1.200000e+02 3.000000e+00
      vertex   -3.697785e-31 1.200000e+02 0.000000e+00
    endloop
  endfacet
  facet normal -2.368476e-15 1.000000e+00 -3.157968e-15
    outer loop
      vertex   -3.697785e-31 1.200000e+02 0.000000e+00
      vertex   2.000000e+00 1.200000e+02 3.000000e+00
      vertex   6.000000e+00 1.200000e+02 -1.110223e-14
    endloop
  endfacet
  facet normal 0.000000e+00 1.000000e+00 -0.000000e+00
    outer loop
      vertex   6.000000e+00 1.200000e+02 -1.110223e-14
      vertex   2.000000e+00 1.200000e+02 3.000000e+00
      vertex   6.000000e+00 1.200000e+02 3.000000e+00
    endloop
  endfacet
  facet normal 1.000000e+00 0.000000e+00 0.000000e+00
    outer loop
      vertex   1.600000e+01 -1.925930e-31 0.000000e+00
      vertex   1.600000e+01 1.200000e+02 0.000000e+00
      vertex   1.600000e+01 0.000000e+00 1.000000e+01
    endloop
  endfacet
  facet normal 1.000000e+00 -0.000000e+00 0.000000e+00
    outer loop
      vertex   1.600000e+01 0.000000e+00 1.000000e+01
      vertex   1.600000e+01 1.200000e+02 0.000000e+00
      vertex   1.600000e+01 1.200000e+02 1.000000e+01
    endloop
  endfacet
  facet normal 0.000000e+00 -1.000000e+00 -5.046915e-16
    outer loop
      vertex   1.400000e+01 0.000000e+00 1.000000e+01
      vertex   1.400000e+01 3.532840e-15 3.000000e+00
      vertex   1.600000e+01 0.000000e+00 1.000000e+01
    endloop
  endfacet
  facet normal -1.766420e-15 -1.000000e+00 1.925930e-32
    outer loop
      vertex   1.600000e+01 0.000000e+00 1.000000e+01
      vertex   1.400000e+01 3.532840e-15 3.000000e+00
      vertex   1.600000e+01 -1.925930e-31 0.000000e+00
    endloop
  endfacet
  facet normal -4.407770e-16 -1.000000e+00 8.837621e-16
    outer loop
      vertex   1.600000e+01 -1.925930e-31 0.000000e+00
      vertex   1.400000e+01 3.532840e-15 3.000000e+00
      vertex   1.000000e+01 2.644662e-15 0.000000e+00
    endloop
  endfacet
  facet normal 2.220446e-16 -1.000000e+00 0.000000e+00
    outer loop
      vertex   1.000000e+01 2.644662e-15 0.000000e+00
      vertex   1.400000e+01 3.532840e-15 3.000000e+00
      vertex   1.000000e+01 2.644662e-15 3.000000e+00
    endloop
  endfacet
  facet normal -1.000000e+00 -3.081488e-33 0.000000e+00
    outer loop
      vertex   -3.697785e-31 1.200000e+02 0.000000e+00
      vertex   0.000000e+00 0.000000e+00 0.000000e+00
      vertex   -3.697785e-31 1.200000e+02 1.000000e+01
    endloop
  endfacet
  facet normal -1.000000e+00 -3.081488e-33 0.000000e+00
    outer loop
      vertex   -3.697785e-31 1.200000e+02 1.000000e+01
      vertex   0.000000e+00 0.000000e+00 0.000000e+00
      vertex   0.000000e+00 0.000000e+00 1.000000e+01
    endloop
  endfacet
  facet normal 0.000000e+00 -0.000000e+00 1.000000e+00
    outer loop
      vertex   1.400000e+01 0.000000e+00 1.000000e+01
      vertex   1.600000e+01 0.000000e+00 1.000000e+01
      vertex   1.400000e+01 4.500000e+01 1.000000e+01
    endloop
  endfacet
  facet normal -0.000000e+00 0.000000e+00 1.000000e+00
    outer loop
      vertex   1.400000e+01 4.500000e+01 1.000000e+01
      vertex   1.600000e+01 0.000000e+00 1.000000e+01
      vertex   1.400000e+01 6.500000e+01 1.000000e+01
    endloop
  endfacet
  facet normal 0.000000e+00 -0.000000e+00 1.000000e+00
    outer loop
      vertex   1.400000e+01 4.500000e+01 1.000000e+01
      vertex   1.400000e+01 6.500000e+01 1.000000e+01
      vertex   1.397585e+01 6.446216e+01 1.000000e+01
    endloop
  endfacet
  facet normal 0.000000e+00 -0.000000e+00 1.000000e+00
    outer loop
      vertex   1.600000e+01 0.000000e+00 1.000000e+01
      vertex   1.600000e+01 1.200000e+02 1.000000e+01
      vertex   1.400000e+01 6.500000e+01 1.000000e+01
    endloop
  endfacet
  facet normal 0.000000e+00 -0.000000e+00 1.000000e+00
    outer loop
      vertex   1.400000e+01 6.500000e+01 1.000000e+01
      vertex   1.600000e+01 1.200000e+02 1.000000e+01
      vertex   1.400000e+01 1.200000e+02 1.000000e+01
    endloop
  endfacet
  facet normal 0.000000e+00 0.000000e+00 1.000000e+00
    outer loop
      vertex   1.400000e+01 4.500000e+01 1.000000e+01
      vertex   1.397585e+01 6.446216e+01 1.000000e+01
      vertex   1.397585e+01 4.553784e+01 1.000000e+01
    endloop
  endfacet
  facet normal 0.000000e+00 -0.000000e+00 1.000000e+00
    outer loop
      vertex   1.397585e+01 4.553784e+01 1.000000e+01
      vertex   1.397585e+01 6.446216e+01 1.000000e+01
      vertex   1.390358e+01 6.392866e+01 1.000000e+01
    endloop
  endfacet
  facet normal 0.000000e+00 0.000000e+00 1.000000e+00
    outer loop
      vertex   1.397585e+01 4.553784e+01 1.000000e+01
      vertex   1.390358e+01 6.392866e+01 1.000000e+01
      vertex   1.390358e+01 4.607134e+01 1.000000e+01
    endloop
  endfacet
  facet normal 0.000000e+00 -0.000000e+00 1.000000e+00
    outer loop
      vertex   1.390358e+01 4.607134e+01 1.000000e+01
      vertex   1.390358e+01 6.392866e+01 1.000000e+01
      vertex   1.378378e+01 6.340378e+01 1.000000e+01
    endloop
  endfacet
  facet normal 0.000000e+00 0.000000e+00 1.000000e+00
    outer loop
      vertex   1.390358e+01 4.607134e+01 1.000000e+01
      vertex   1.378378e+01 6.340378e+01 1.000000e+01
      vertex   1.378378e+01 4.659622e+01 1.000000e+01
    endloop
  endfacet
  facet normal 0.000000e+00 -0.000000e+00 1.000000e+00
    outer loop
      vertex   1.378378e+01 4.659622e+01 1.000000e+01
      vertex   1.378378e+01 6.340378e+01 1.000000e+01
      vertex   1.361741e+01 6.289175e+01 1.000000e+01
    endloop
  endfacet
  facet normal 0.000000e+00 0.000000e+00 1.000000e+00
    outer loop
      vertex   1.378378e+01 4.659622e+01 1.000000e+01
      vertex   1.361741e+01 6.289175e+01 1.000000e+01
      vertex   1.361741e+01 4.710825e+01 1.000000e+01
    endloop
  endfacet
  facet normal 0.000000e+00 -0.000000e+00 1.000000e+00
    outer loop
      vertex   1.361741e+01 4.710825e+01 1.000000e+01
      vertex   1.361741e+01 6.289175e+01 1.000000e+01
      vertex   1.340581e+01 6.239670e+01 1.000000e+01
    endloop
  endfacet
  facet normal 0.000000e+00 0.000000e+00 1.000000e+00
    outer loop
      vertex   1.361741e+01 4.710825e+01 1.000000e+01
      vertex   1.340581e+01 6.239670e+01 1.000000e+01
      vertex   1.340581e+01 4.760330e+01 1.000000e+01
    endloop
  endfacet
  facet normal 0.000000e+00 -0.000000e+00 1.000000e+00
    outer loop
      vertex   1.340581e+01 4.760330e+01 1.000000e+01
      vertex   1.340581e+01 6.239670e+01 1.000000e+01
      vertex   1.315069e+01 6.192260e+01 1.000000e+01
    endloop
  endfacet
  facet normal 0.000000e+00 0.000000e+00 1.000000e+00
    outer loop
      vertex   1.340581e+01 4.760330e+01 1.000000e+01
      vertex   1.315069e+01 6.192260e+01 1.000000e+01
      vertex   1.315069e+01 4.807740e+01 1.000000e+01
    endloop
  endfacet
  facet normal 0.000000e+00 -0.000000e+00 1.000000e+00
    outer loop
      vertex   1.315069e+01 4.807740e+01 1.000000e+01
      vertex   1.315069e+01 6.192260e+01 1.000000e+01
      vertex   1.285410e+01 6.147329e+01 1.000000e+01
    endloop
  endfacet
  facet normal 0.000000e+00 0.000000e+00 1.000000e+00
    outer loop
      vertex   1.315069e+01 4.807740e+01 1.000000e+01
      vertex   1.285410e+01 6.147329e+01 1.000000e+01
      vertex   1.285410e+01 4.852671e+01 1.000000e+01
    endloop
  endfacet
  facet normal 0.000000e+00 -0.000000e+00 1.000000e+00
    outer loop
      vertex   1.285410e+01 4.852671e+01 1.000000e+01
      vertex   1.285410e+01 6.147329e+01 1.000000e+01
      vertex   1.251843e+01 6.105237e+01 1.000000e+01
    endloop
  endfacet
  facet normal 0.000000e+00 0.000000e+00 1.000000e+00
    outer loop
      vertex   1.285410e+01 4.852671e+01 1.000000e+01
      vertex   1.251843e+01 6.105237e+01 1.000000e+01
      vertex   1.251843e+01 4.894763e+01 1.000000e+01
    endloop
  endfacet
  facet normal 0.000000e+00 -0.000000e+00 1.000000e+00
    outer loop
      vertex   1.251843e+01 4.894763e+01 1.000000e+01
      vertex   1.251843e+01 6.105237e+01 1.000000e+01
      vertex   1.214638e+01 6.066323e+01 1.000000e+01
    endloop
  endfacet
  facet normal 0.000000e+00 0.000000e+00 1.000000e+00
    outer loop
      vertex   1.251843e+01 4.894763e+01 1.000000e+01
      vertex   1.214638e+01 6.066323e+01 1.000000e+01
      vertex   1.214638e+01 4.933677e+01 1.000000e+01
    endloop
  endfacet
  facet normal 0.000000e+00 -0.000000e+00 1.000000e+00
    outer loop
      vertex   1.214638e+01 4.933677e+01 1.000000e+01
      vertex   1.214638e+01 6.066323e+01 1.000000e+01
      vertex   1.174094e+01 6.030901e+01 1.000000e+01
    endloop
  endfacet
  facet normal 0.000000e+00 0.000000e+00 1.000000e+00
    outer loop
      vertex   1.214638e+01 4.933677e+01 1.000000e+01
      vertex   1.174094e+01 6.030901e+01 1.000000e+01
      vertex   1.174094e+01 4.969099e+01 1.000000e+01
    endloop
  endfacet
  facet normal 0.000000e+00 -0.000000e+00 1.000000e+00
    outer loop
      vertex   1.174094e+01 4.969099e+01 1.000000e+01
      vertex   1.174094e+01 6.030901e+01 1.000000e+01
      vertex   1.130538e+01 5.999256e+01 1.000000e+01
    endloop
  endfacet
  facet normal 0.000000e+00 0.000000e+00 1.000000e+00
    outer loop
      vertex   1.174094e+01 4.969099e+01 1.000000e+01
      vertex   1.130538e+01 5.999256e+01 1.000000e+01
      vertex   1.130538e+01 5.000744e+01 1.000000e+01
    endloop
  endfacet
  facet normal 0.000000e+00 -0.000000e+00 1.000000e+00
    outer loop
      vertex   1.130538e+01 5.000744e+01 1.000000e+01
      vertex   1.130538e+01 5.999256e+01 1.000000e+01
      vertex   1.084321e+01 5.971643e+01 1.000000e+01
    endloop
  endfacet
  facet normal 0.000000e+00 0.000000e+00 1.000000e+00
    outer loop
      vertex   1.130538e+01 5.000744e+01 1.000000e+01
      vertex   1.084321e+01 5.971643e+01 1.000000e+01
      vertex   1.084321e+01 5.028357e+01 1.000000e+01
    endloop
  endfacet
  facet normal 0.000000e+00 -0.000000e+00 1.000000e+00
    outer loop
      vertex   1.084321e+01 5.028357e+01 1.000000e+01
      vertex   1.084321e+01 5.971643e+01 1.000000e+01
      vertex   1.035815e+01 5.948283e+01 1.000000e+01
    endloop
  endfacet
  facet normal 0.000000e+00 0.000000e+00 1.000000e+00
    outer loop
      vertex   1.084321e+01 5.028357e+01 1.000000e+01
      vertex   1.035815e+01 5.948283e+01 1.000000e+01
      vertex   1.035815e+01 5.051717e+01 1.000000e+01
    endloop
  endfacet
  facet normal 0.000000e+00 -0.000000e+00 1.000000e+00
    outer loop
      vertex   1.035815e+01 5.051717e+01 1.000000e+01
      vertex   1.035815e+01 5.948283e+01 1.000000e+01
      vertex   9.854102e+00 5.929366e+01 1.000000e+01
    endloop
  endfacet
  facet normal 0.000000e+00 0.000000e+00 1.000000e+00
    outer loop
      vertex   1.035815e+01 5.051717e+01 1.000000e+01
      vertex   9.854102e+00 5.929366e+01 1.000000e+01
      vertex   9.854102e+00 5.070634e+01 1.000000e+01
    endloop
  endfacet
  facet normal 0.000000e+00 -0.000000e+00 1.000000e+00
    outer loop
      vertex   9.854102e+00 5.070634e+01 1.000000e+01
      vertex   9.854102e+00 5.929366e+01 1.000000e+01
      vertex   9.335126e+00 5.915043e+01 1.000000e+01
    endloop
  endfacet
  facet normal 0.000000e+00 0.000000e+00 1.000000e+00
    outer loop
      vertex   9.854102e+00 5.070634e+01 1.000000e+01
      vertex   9.335126e+00 5.915043e+01 1.000000e+01
      vertex   9.335126e+00 5.084957e+01 1.000000e+01
    endloop
  endfacet
  facet normal 0.000000e+00 -0.000000e+00 1.000000e+00
    outer loop
      vertex   9.335126e+00 5.084957e+01 1.000000e+01
      vertex   9.335126e+00 5.915043e+01 1.000000e+01
      vertex   8.805400e+00 5.905430e+01 1.000000e+01
    endloop
  endfacet
  facet normal 0.000000e+00 0.000000e+00 1.000000e+00
    outer loop
      vertex   9.335126e+00 5.084957e+01 1.000000e+01
      vertex   8.805400e+00 5.905430e+01 1.000000e+01
      vertex   8.805400e+00 5.094570e+01 1.000000e+01
    endloop
  endfacet
  facet normal 0.000000e+00 -0.000000e+00 1.000000e+00
    outer loop
      vertex   8.805400e+00 5.094570e+01 1.000000e+01
      vertex   8.805400e+00 5.905430e+01 1.000000e+01
      vertex   8.269189e+00 5.900604e+01 1.000000e+01
    endloop
  endfacet
  facet normal 0.000000e+00 0.000000e+00 1.000000e+00
    outer loop
      vertex   8.805400e+00 5.094570e+01 1.000000e+01
      vertex   8.269189e+00 5.900604e+01 1.000000e+01
      vertex   8.269189e+00 5.099396e+01 1.000000e+01
    endloop
  endfacet
  facet normal 0.000000e+00 0.000000e+00 1.000000e+00
    outer loop
      vertex   8.269189e+00 5.099396e+01 1.000000e+01
      vertex   8.269189e+00 5.900604e+01 1.000000e+01
      vertex   7.730811e+00 5.900604e+01 1.000000e+01
    endloop
  endfacet
  facet normal 0.000000e+00 0.000000e+00 1.000000e+00
    outer loop
      vertex   8.269189e+00 5.099396e+01 1.000000e+01
      vertex   7.730811e+00 5.900604e+01 1.000000e+01
      vertex   7.730811e+00 5.099396e+01 1.000000e+01
    endloop
  endfacet
  facet normal 0.000000e+00 0.000000e+00 1.000000e+00
    outer loop
      vertex   7.730811e+00 5.099396e+01 1.000000e+01
      vertex   7.730811e+00 5.900604e+01 1.000000e+01
      vertex   7.194600e+00 5.094570e+01 1.000000e+01
    endloop
  endfacet
  facet normal 0.000000e+00 -0.000000e+00 1.000000e+00
    outer loop
      vertex   7.194600e+00 5.094570e+01 1.000000e+01
      vertex   7.730811e+00 5.900604e+01 1.000000e+01
      vertex   7.194600e+00 5.905430e+01 1.000000e+01
    endloop
  endfacet
  facet normal 0.000000e+00 0.000000e+00 1.000000e+00
    outer loop
      vertex   7.194600e+00 5.094570e+01 1.000000e+01
      vertex   7.194600e+00 5.905430e+01 1.000000e+01
      vertex   6.664874e+00 5.084957e+01 1.000000e+01
    endloop
  endfacet
  facet normal 0.000000e+00 -0.000000e+00 1.000000e+00
    outer loop
      vertex   6.664874e+00 5.084957e+01 1.000000e+01
      vertex   7.194600e+00 5.905430e+01 1.000000e+01
      vertex   6.664874e+00 5.915043e+01 1.000000e+01
    endloop
  endfacet
  facet normal 0.000000e+00 0.000000e+00 1.000000e+00
    outer loop
      vertex   6.664874e+00 5.084957e+01 1.000000e+01
      vertex   6.664874e+00 5.915043e+01 1.000000e+01
      vertex   6.145898e+00 5.070634e+01 1.000000e+01
    endloop
  endfacet
  facet normal 0.000000e+00 -0.000000e+00 1.000000e+00
    outer loop
      vertex   6.145898e+00 5.070634e+01 1.000000e+01
      vertex   6.664874e+00 5.915043e+01 1.000000e+01
      vertex   6.145898e+00 5.929366e+01 1.000000e+01
    endloop
  endfacet
  facet normal 0.000000e+00 0.000000e+00 1.000000e+00
    outer loop
      vertex   6.145898e+00 5.070634e+01 1.000000e+01
      vertex   6.145898e+00 5.929366e+01 1.000000e+01
      vertex   5.641850e+00 5.051717e+01 1.000000e+01
    endloop
  endfacet
  facet normal 0.000000e+00 -0.000000e+00 1.000000e+00
    outer loop
      vertex   5.641850e+00 5.051717e+01 1.000000e+01
      vertex   6.145898e+00 5.929366e+01 1.000000e+01
      vertex   5.641850e+00 5.948283e+01 1.000000e+01
    endloop
  endfacet
  facet normal 0.000000e+00 0.000000e+00 1.000000e+00
    outer loop
      vertex   5.641850e+00 5.051717e+01 1.000000e+01
      vertex   5.641850e+00 5.948283e+01 1.000000e+01
      vertex   5.156788e+00 5.028357e+01 1.000000e+01
    endloop
  endfacet
  facet normal 0.000000e+00 -0.000000e+00 1.000000e+00
    outer loop
      vertex   5.156788e+00 5.028357e+01 1.000000e+01
      vertex   5.641850e+00 5.948283e+01 1.000000e+01
      vertex   5.156788e+00 5.971643e+01 1.000000e+01
    endloop
  endfacet
  facet normal 0.000000e+00 0.000000e+00 1.000000e+00
    outer loop
      vertex   5.156788e+00 5.028357e+01 1.000000e+01
      vertex   5.156788e+00 5.971643e+01 1.000000e+01
      vertex   4.694618e+00 5.000744e+01 1.000000e+01
    endloop
  endfacet
  facet normal 0.000000e+00 -0.000000e+00 1.000000e+00
    outer loop
      vertex   4.694618e+00 5.000744e+01 1.000000e+01
      vertex   5.156788e+00 5.971643e+01 1.000000e+01
      vertex   4.694618e+00 5.999256e+01 1.000000e+01
    endloop
  endfacet
  facet normal 0.000000e+00 0.000000e+00 1.000000e+00
    outer loop
      vertex   4.694618e+00 5.000744e+01 1.000000e+01
      vertex   4.694618e+00 5.999256e+01 1.000000e+01
      vertex   4.259061e+00 4.969099e+01 1.000000e+01
    endloop
  endfacet
  facet normal 0.000000e+00 -0.000000e+00 1.000000e+00
    outer loop
      vertex   4.259061e+00 4.969099e+01 1.000000e+01
      vertex   4.694618e+00 5.999256e+01 1.000000e+01
      vertex   4.259061e+00 6.030901e+01 1.000000e+01
    endloop
  endfacet
  facet normal 0.000000e+00 0.000000e+00 1.000000e+00
    outer loop
      vertex   4.259061e+00 4.969099e+01 1.000000e+01
      vertex   4.259061e+00 6.030901e+01 1.000000e+01
      vertex   3.853624e+00 4.933677e+01 1.000000e+01
    endloop
  endfacet
  facet normal 0.000000e+00 -0.000000e+00 1.000000e+00
    outer loop
      vertex   3.853624e+00 4.933677e+01 1.000000e+01
      vertex   4.259061e+00 6.030901e+01 1.000000e+01
      vertex   3.853624e+00 6.066323e+01 1.000000e+01
    endloop
  endfacet
  facet normal 0.000000e+00 0.000000e+00 1.000000e+00
    outer loop
      vertex   3.853624e+00 4.933677e+01 1.000000e+01
      vertex   3.853624e+00 6.066323e+01 1.000000e+01
      vertex   3.481571e+00 4.894763e+01 1.000000e+01
    endloop
  endfacet
  facet normal 0.000000e+00 -0.000000e+00 1.000000e+00
    outer loop
      vertex   3.481571e+00 4.894763e+01 1.000000e+01
      vertex   3.853624e+00 6.066323e+01 1.000000e+01
      vertex   3.481571e+00 6.105237e+01 1.000000e+01
    endloop
  endfacet
  facet normal 0.000000e+00 0.000000e+00 1.000000e+00
    outer loop
      vertex   3.481571e+00 4.894763e+01 1.000000e+01
      vertex   3.481571e+00 6.105237e+01 1.000000e+01
      vertex   3.145898e+00 4.852671e+01 1.000000e+01
    endloop
  endfacet
  facet normal 0.000000e+00 -0.000000e+00 1.000000e+00
    outer loop
      vertex   3.145898e+00 4.852671e+01 1.000000e+01
      vertex   3.481571e+00 6.105237e+01 1.000000e+01
      vertex   3.145898e+00 6.147329e+01 1.000000e+01
    endloop
  endfacet
  facet normal 0.000000e+00 0.000000e+00 1.000000e+00
    outer loop
      vertex   3.145898e+00 4.852671e+01 1.000000e+01
      vertex   3.145898e+00 6.147329e+01 1.000000e+01
      vertex   2.849307e+00 4.807740e+01 1.000000e+01
    endloop
  endfacet
  facet normal 0.000000e+00 -0.000000e+00 1.000000e+00
    outer loop
      vertex   2.849307e+00 4.807740e+01 1.000000e+01
      vertex   3.145898e+00 6.147329e+01 1.000000e+01
      vertex   2.849307e+00 6.192260e+01 1.000000e+01
    endloop
  endfacet
  facet normal 0.000000e+00 0.000000e+00 1.000000e+00
    outer loop
      vertex   2.849307e+00 4.807740e+01 1.000000e+01
      vertex   2.849307e+00 6.192260e+01 1.000000e+01
      vertex   2.594187e+00 4.760330e+01 1.000000e+01
    endloop
  endfacet
  facet normal 0.000000e+00 -0.000000e+00 1.000000e+00
    outer loop
      vertex   2.594187e+00 4.760330e+01 1.000000e+01
      vertex   2.849307e+00 6.192260e+01 1.000000e+01
      vertex   2.594187e+00 6.239670e+01 1.000000e+01
    endloop
  endfacet
  facet normal 0.000000e+00 0.000000e+00 1.000000e+00
    outer loop
      vertex   2.594187e+00 4.760330e+01 1.000000e+01
      vertex   2.594187e+00 6.239670e+01 1.000000e+01
      vertex   2.382591e+00 4.710825e+01 1.000000e+01
    endloop
  endfacet
  facet normal 0.000000e+00 -0.000000e+00 1.000000e+00
    outer loop
      vertex   2.382591e+00 4.710825e+01 1.000000e+01
      vertex   2.594187e+00 6.239670e+01 1.000000e+01
      vertex   2.382591e+00 6.289175e+01 1.000000e+01
    endloop
  endfacet
  facet normal 0.000000e+00 0.000000e+00 1.000000e+00
    outer loop
      vertex   2.382591e+00 4.710825e+01 1.000000e+01
      vertex   2.382591e+00 6.289175e+01 1.000000e+01
      vertex   2.216223e+00 4.659622e+01 1.000000e+01
    endloop
  endfacet
  facet normal 0.000000e+00 -0.000000e+00 1.000000e+00
    outer loop
      vertex   2.216223e+00 4.659622e+01 1.000000e+01
      vertex   2.382591e+00 6.289175e+01 1.000000e+01
      vertex   2.216223e+00 6.340378e+01 1.000000e+01
    endloop
  endfacet
  facet normal 0.000000e+00 0.000000e+00 1.000000e+00
    outer loop
      vertex   2.216223e+00 4.659622e+01 1.000000e+01
      vertex   2.216223e+00 6.340378e+01 1.000000e+01
      vertex   2.096422e+00 4.607134e+01 1.000000e+01
    endloop
  endfacet
  facet normal 0.000000e+00 -0.000000e+00 1.000000e+00
    outer loop
      vertex   2.096422e+00 4.607134e+01 1.000000e+01
      vertex   2.216223e+00 6.340378e+01 1.000000e+01
      vertex   2.096422e+00 6.392866e+01 1.000000e+01
    endloop
  endfacet
  facet normal 0.000000e+00 0.000000e+00 1.000000e+00
    outer loop
      vertex   2.096422e+00 4.607134e+01 1.000000e+01
      vertex   2.096422e+00 6.392866e+01 1.000000e+01
      vertex   2.024154e+00 4.553784e+01 1.000000e+01
    endloop
  endfacet
  facet normal 0.000000e+00 -0.000000e+00 1.000000e+00
    outer loop
      vertex   2.024154e+00 4.553784e+01 1.000000e+01
      vertex   2.096422e+00 6.392866e+01 1.000000e+01
      vertex   2.024154e+00 6.446216e+01 1.000000e+01
    endloop
  endfacet
  facet normal 0.000000e+00 0.000000e+00 1.000000e+00
    outer loop
      vertex   2.024154e+00 4.553784e+01 1.000000e+01
      vertex   2.024154e+00 6.446216e+01 1.000000e+01
      vertex   2.000000e+00 4.500000e+01 1.000000e+01
    endloop
  endfacet
  facet normal 0.000000e+00 -0.000000e+00 1.000000e+00
    outer loop
      vertex   2.000000e+00 4.500000e+01 1.000000e+01
      vertex   2.024154e+00 6.446216e+01 1.000000e+01
      vertex   2.000000e+00 6.500000e+01 1.000000e+01
    endloop
  endfacet
  facet normal 0.000000e+00 0.000000e+00 1.000000e+00
    outer loop
      vertex   2.000000e+00 4.500000e+01 1.000000e+01
      vertex   2.000000e+00 6.500000e+01 1.000000e+01
      vertex   0.000000e+00 0.000000e+00 1.000000e+01
    endloop
  endfacet
  facet normal 0.000000e+00 -0.000000e+00 1.000000e+00
    outer loop
      vertex   0.000000e+00 0.000000e+00 1.000000e+01
      vertex   2.000000e+00 6.500000e+01 1.000000e+01
      vertex   -3.697785e-31 1.200000e+02 1.000000e+01
    endloop
  endfacet
  facet normal -0.000000e+00 0.000000e+00 1.000000e+00
    outer loop
      vertex   -3.697785e-31 1.200000e+02 1.000000e+01
      vertex   2.000000e+00 6.500000e+01 1.000000e+01
      vertex   2.000000e+00 1.200000e+02 1.000000e+01
    endloop
  endfacet
  facet normal 0.000000e+00 0.000000e+00 1.000000e+00
    outer loop
      vertex   0.000000e+00 0.000000e+00 1.000000e+01
      vertex   2.000000e+00 0.000000e+00 1.000000e+01
      vertex   2.000000e+00 4.500000e+01 1.000000e+01
    endloop
  endfacet
endsolid
