solid ASCII
  facet normal 1.726848e-30 1.000000e+00 1.417542e-15
    outer loop
      vertex   1.750000e+02 1.899500e+02 -2.190062e-13
      vertex   1.750000e+02 1.899500e+02 2.005000e+01
      vertex   1.900000e+02 1.899500e+02 -2.372792e-13
    endloop
  endfacet
  facet normal 3.357413e-30 1.000000e+00 1.417542e-15
    outer loop
      vertex   1.900000e+02 1.899500e+02 -2.372792e-13
      vertex   1.750000e+02 1.899500e+02 2.005000e+01
      vertex   1.900000e+02 1.899500e+02 2.005000e+01
    endloop
  endfacet
  facet normal 0.000000e+00 -1.000000e+00 -0.000000e+00
    outer loop
      vertex   1.750000e+02 2.000500e+02 2.005000e+01
      vertex   1.750000e+02 2.000500e+02 -2.190062e-13
      vertex   1.900000e+02 2.000500e+02 2.005000e+01
    endloop
  endfacet
  facet normal 0.000000e+00 -1.000000e+00 -0.000000e+00
    outer loop
      vertex   1.900000e+02 2.000500e+02 2.005000e+01
      vertex   1.750000e+02 2.000500e+02 -2.190062e-13
      vertex   1.900000e+02 2.000500e+02 -2.372792e-13
    endloop
  endfacet
  facet normal -2.368476e-15 -0.000000e+00 -1.000000e+00
    outer loop
      vertex   1.750000e+02 2.000500e+02 2.005000e+01
      vertex   1.900000e+02 2.000500e+02 2.005000e+01
      vertex   1.750000e+02 1.899500e+02 2.005000e+01
    endloop
  endfacet
  facet normal -2.368476e-15 0.000000e+00 -1.000000e+00
    outer loop
      vertex   1.750000e+02 1.899500e+02 2.005000e+01
      vertex   1.900000e+02 2.000500e+02 2.005000e+01
      vertex   1.900000e+02 1.899500e+02 2.005000e+01
    endloop
  endfacet
  facet normal -1.218199e-15 -1.692704e-16 -1.000000e+00
    outer loop
      vertex   1.750000e+02 2.000500e+02 -2.190062e-13
      vertex   1.750000e+02 2.180000e+02 -2.220446e-13
      vertex   1.900000e+02 2.000500e+02 -2.372792e-13
    endloop
  endfacet
  facet normal -1.057724e-15 -3.516866e-17 -1.000000e+00
    outer loop
      vertex   1.900000e+02 2.000500e+02 -2.372792e-13
      vertex   1.750000e+02 2.180000e+02 -2.220446e-13
      vertex   1.900000e+02 2.180000e+02 -2.379105e-13
    endloop
  endfacet
  facet normal 1.184238e-15 -0.000000e+00 1.000000e+00
    outer loop
      vertex   1.900000e+02 1.850000e+02 2.300000e+01
      vertex   1.900000e+02 2.180000e+02 2.300000e+01
      vertex   1.750000e+02 1.850000e+02 2.300000e+01
    endloop
  endfacet
  facet normal 1.184238e-15 -0.000000e+00 1.000000e+00
    outer loop
      vertex   1.750000e+02 1.850000e+02 2.300000e+01
      vertex   1.900000e+02 2.180000e+02 2.300000e+01
      vertex   1.750000e+02 2.180000e+02 2.300000e+01
    endloop
  endfacet
  facet normal 0.000000e+00 -1.000000e+00 0.000000e+00
    outer loop
      vertex   1.900000e+02 1.850000e+02 -2.375190e-13
      vertex   1.900000e+02 1.850000e+02 2.300000e+01
      vertex   1.750000e+02 1.850000e+02 -2.176037e-13
    endloop
  endfacet
  facet normal 0.000000e+00 -1.000000e+00 0.000000e+00
    outer loop
      vertex   1.750000e+02 1.850000e+02 -2.176037e-13
      vertex   1.900000e+02 1.850000e+02 2.300000e+01
      vertex   1.750000e+02 1.850000e+02 2.300000e+01
    endloop
  endfacet
  facet normal -1.218199e-15 4.844004e-17 -1.000000e+00
    outer loop
      vertex   1.900000e+02 1.899500e+02 -2.372792e-13
      vertex   1.900000e+02 1.850000e+02 -2.375190e-13
      vertex   1.750000e+02 1.899500e+02 -2.190062e-13
    endloop
  endfacet
  facet normal -1.327684e-15 -2.833310e-16 -1.000000e+00
    outer loop
      vertex   1.750000e+02 1.899500e+02 -2.190062e-13
      vertex   1.900000e+02 1.850000e+02 -2.375190e-13
      vertex   1.750000e+02 1.850000e+02 -2.176037e-13
    endloop
  endfacet
  facet normal 0.000000e+00 1.000000e+00 0.000000e+00
    outer loop
      vertex   1.900000e+02 2.180000e+02 2.300000e+01
      vertex   1.900000e+02 2.180000e+02 -2.379105e-13
      vertex   1.750000e+02 2.180000e+02 2.300000e+01
    endloop
  endfacet
  facet normal 0.000000e+00 1.000000e+00 0.000000e+00
    outer loop
      vertex   1.750000e+02 2.180000e+02 2.300000e+01
      vertex   1.900000e+02 2.180000e+02 -2.379105e-13
      vertex   1.750000e+02 2.180000e+02 -2.220446e-13
    endloop
  endfacet
  facet normal -1.000000e+00 4.016335e-31 1.417542e-15
    outer loop
      vertex   1.750000e+02 1.899500e+02 -2.190062e-13
      vertex   1.750000e+02 1.850000e+02 -2.176037e-13
      vertex   1.750000e+02 1.899500e+02 2.005000e+01
    endloop
  endfacet
  facet normal -1.000000e+00 7.364431e-16 1.235726e-15
    outer loop
      vertex   1.750000e+02 1.899500e+02 2.005000e+01
      vertex   1.750000e+02 1.850000e+02 -2.176037e-13
      vertex   1.750000e+02 1.850000e+02 2.300000e+01
    endloop
  endfacet
  facet normal -1.000000e+00 0.000000e+00 0.000000e+00
    outer loop
      vertex   1.750000e+02 1.899500e+02 2.005000e+01
      vertex   1.750000e+02 1.850000e+02 2.300000e+01
      vertex   1.750000e+02 2.000500e+02 2.005000e+01
    endloop
  endfacet
  facet normal -1.000000e+00 0.000000e+00 0.000000e+00
    outer loop
      vertex   1.750000e+02 2.000500e+02 2.005000e+01
      vertex   1.750000e+02 1.850000e+02 2.300000e+01
      vertex   1.750000e+02 2.180000e+02 2.300000e+01
    endloop
  endfacet
  facet normal -1.000000e+00 -2.030860e-16 1.235726e-15
    outer loop
      vertex   1.750000e+02 2.000500e+02 2.005000e+01
      vertex   1.750000e+02 2.180000e+02 2.300000e+01
      vertex   1.750000e+02 2.180000e+02 -2.220446e-13
    endloop
  endfacet
  facet normal -1.000000e+00 2.399478e-31 1.417542e-15
    outer loop
      vertex   1.750000e+02 2.180000e+02 -2.220446e-13
      vertex   1.750000e+02 2.000500e+02 -2.190062e-13
      vertex   1.750000e+02 2.000500e+02 2.005000e+01
    endloop
  endfacet
  facet normal 1.000000e+00 -1.380296e-15 -1.235726e-15
    outer loop
      vertex   1.900000e+02 2.180000e+02 -2.379105e-13
      vertex   1.900000e+02 2.180000e+02 2.300000e+01
      vertex   1.900000e+02 2.000500e+02 2.005000e+01
    endloop
  endfacet
  facet normal 1.000000e+00 0.000000e+00 -9.634478e-15
    outer loop
      vertex   1.900000e+02 2.000500e+02 2.005000e+01
      vertex   1.900000e+02 2.180000e+02 2.300000e+01
      vertex   1.900000e+02 1.850000e+02 2.300000e+01
    endloop
  endfacet
  facet normal 1.000000e+00 0.000000e+00 -9.634478e-15
    outer loop
      vertex   1.900000e+02 2.000500e+02 2.005000e+01
      vertex   1.900000e+02 1.850000e+02 2.300000e+01
      vertex   1.900000e+02 1.899500e+02 2.005000e+01
    endloop
  endfacet
  facet normal 1.000000e+00 5.005316e-15 -1.235726e-15
    outer loop
      vertex   1.900000e+02 1.899500e+02 2.005000e+01
      vertex   1.900000e+02 1.850000e+02 2.300000e+01
      vertex   1.900000e+02 1.850000e+02 -2.375190e-13
    endloop
  endfacet
  facet normal 1.000000e+00 0.000000e+00 0.000000e+00
    outer loop
      vertex   1.900000e+02 1.899500e+02 2.005000e+01
      vertex   1.900000e+02 1.850000e+02 -2.375190e-13
      vertex   1.900000e+02 1.899500e+02 -2.372792e-13
    endloop
  endfacet
  facet normal 1.000000e+00 0.000000e+00 0.000000e+00
    outer loop
      vertex   1.900000e+02 2.000500e+02 2.005000e+01
      vertex   1.900000e+02 2.000500e+02 -2.372792e-13
      vertex   1.900000e+02 2.180000e+02 -2.379105e-13
    endloop
  endfacet
endsolid
